<svg xmlns="http://www.w3.org/2000/svg" xmlns:xlink="http://www.w3.org/1999/xlink" width="500" zoomAndPan="magnify" viewBox="0 0 375 299.999988" height="400" preserveAspectRatio="xMidYMid meet" version="1.0"><defs><clipPath id="db38773e20"><path d="M 16.261719 143 L 48 143 L 48 183 L 16.261719 183 Z M 16.261719 143 " clip-rule="nonzero"/></clipPath></defs><path fill="#efe3d4" d="M 33.539062 267.054688 C 34.21875 262.132812 37.566406 257.761719 41.730469 255.164062 C 43.710938 254.070312 43.234375 251.40625 43.507812 249.425781 C 43.300781 247.988281 44.804688 247.03125 44.53125 245.667969 C 44.394531 244.847656 44.53125 244.027344 45.28125 243.546875 C 46.714844 242.660156 46.917969 241.019531 47.738281 239.722656 C 51.5625 234.871094 55.453125 230.222656 59.414062 225.507812 C 60.300781 224.484375 60.847656 222.707031 61.871094 221.953125 C 62.828125 221.613281 63.375 220.859375 63.648438 219.835938 C 63.851562 219.085938 64.332031 218.402344 64.945312 217.855469 C 66.789062 215.871094 68.152344 213.480469 69.519531 211.226562 C 70.816406 210.40625 71.566406 209.109375 72.523438 207.945312 C 74.84375 205.078125 77.710938 202.820312 79.898438 199.882812 C 81.808594 197.695312 83.585938 195.578125 85.429688 193.390625 C 85.703125 192.914062 86.519531 192.980469 86.589844 192.433594 C 87 190.65625 89.183594 190.316406 89.660156 188.609375 C 89.660156 188.539062 89.796875 188.472656 89.933594 188.402344 C 90.820312 188.128906 91.300781 187.445312 91.503906 186.558594 C 91.503906 186.285156 91.777344 186.078125 91.984375 185.941406 C 93.484375 184.714844 94.371094 182.867188 95.667969 181.433594 C 96.558594 180.269531 97.375 178.835938 98.878906 178.222656 C 99.289062 178.085938 99.355469 177.539062 99.492188 177.128906 C 99.972656 175.351562 101.816406 174.464844 102.839844 173.097656 C 104.339844 170.839844 106.253906 168.929688 108.027344 166.878906 C 110.28125 165.578125 112.808594 164.761719 114.921875 163.324219 C 118.0625 161.617188 121.886719 161.820312 123.730469 158.199219 C 123.867188 157.925781 123.9375 157.515625 124.210938 157.378906 C 125.574219 156.695312 126.324219 155.464844 127.144531 154.375 C 127.828125 153.210938 129.464844 153.144531 129.808594 151.84375 C 128.988281 149.179688 126.871094 147.199219 126.324219 144.464844 C 126.324219 144.328125 126.1875 144.125 126.054688 144.125 C 125.027344 143.851562 124.960938 142.894531 124.617188 142.140625 C 123.800781 140.570312 123.59375 138.65625 122.433594 137.222656 C 121.75 136.402344 121.339844 135.375 121.070312 134.351562 C 120.660156 132.644531 119.429688 131.34375 119.019531 129.707031 C 118.882812 128.203125 118.132812 126.902344 117.65625 125.46875 C 117.246094 124.238281 116.902344 123.078125 117.039062 121.777344 C 117.109375 120.753906 117.175781 119.796875 116.015625 119.25 C 114.308594 117.335938 115.878906 114.46875 114.378906 112.417969 C 113.285156 110.433594 113.832031 107.976562 113.558594 105.855469 C 113.011719 99.433594 113.695312 93.011719 114.71875 86.65625 C 115.402344 82.554688 115.949219 78.457031 116.492188 74.355469 C 117.109375 70.253906 118.679688 66.496094 119.703125 62.535156 C 120.113281 60.960938 121.683594 59.800781 122.023438 58.160156 C 122.910156 54.195312 126.1875 51.464844 127.28125 47.5 C 127.828125 45.929688 129.058594 44.835938 130.21875 43.8125 C 134.246094 39.640625 137.933594 35.199219 142.097656 31.167969 C 143.601562 29.527344 144.554688 27.480469 146.398438 26.113281 C 150.15625 22.695312 153.433594 18.800781 157.734375 16 C 159.917969 14.222656 162.785156 13.746094 165.175781 12.445312 C 170.707031 9.4375 177.054688 8.6875 182.722656 5.886719 C 183.472656 5.476562 184.359375 5.132812 185.179688 5.203125 C 187.09375 5.269531 188.730469 4.382812 190.574219 4.175781 C 191.460938 4.039062 192.417969 4.039062 193.167969 3.496094 C 193.921875 2.949219 194.808594 2.8125 195.761719 2.742188 C 199.109375 2.539062 202.316406 1.445312 205.59375 1.035156 C 206.621094 0.898438 207.644531 1.171875 208.597656 0.761719 C 210.171875 0.144531 211.605469 0.625 213.105469 0.964844 C 217.886719 1.375 222.734375 1.855469 227.582031 1.921875 C 233.246094 2.539062 238.847656 4.3125 244.445312 5.542969 C 245.539062 6.023438 246.492188 6.980469 247.722656 7.046875 C 249.976562 7.390625 251.273438 9.234375 253.320312 9.917969 C 256.804688 11.078125 259.671875 13.472656 263.015625 15.042969 C 266.363281 16.683594 269.433594 18.9375 272.371094 21.328125 C 274.351562 22.765625 276.058594 24.539062 277.902344 26.042969 C 280.015625 27.753906 282.40625 29.324219 283.566406 31.988281 C 283.839844 32.535156 284.320312 32.945312 284.796875 33.21875 C 287.1875 34.859375 288.074219 37.730469 290.191406 39.574219 C 290.738281 40.121094 291.214844 40.734375 291.554688 41.488281 C 292.308594 43.675781 294.152344 45.246094 295.242188 47.226562 C 297.15625 51.667969 300.5 55.222656 302.070312 59.867188 C 303.09375 63.011719 305.007812 65.746094 305.6875 69.027344 C 305.824219 70.800781 306.917969 72.375 306.851562 74.082031 C 306.78125 75.378906 306.917969 76.609375 307.257812 77.839844 C 307.941406 80.503906 308.078125 83.238281 308.558594 85.902344 C 308.761719 86.859375 308.964844 87.75 308.695312 88.707031 C 308.558594 89.183594 308.488281 89.867188 308.695312 90.277344 C 309.71875 92.121094 308.695312 94.171875 309.308594 96.015625 C 309.308594 96.152344 309.308594 96.496094 309.171875 96.632812 C 308.285156 97.726562 308.761719 98.957031 308.828125 100.183594 C 308.964844 102.371094 309.308594 104.625 308.488281 106.746094 C 308.214844 107.359375 308.898438 108.042969 308.488281 108.589844 C 307.601562 109.957031 307.941406 111.871094 307.941406 113.375 C 306.167969 122.050781 304.597656 130.933594 300.839844 139 C 296.335938 149.453125 291.351562 160.179688 282.816406 167.972656 C 282.132812 169.40625 280.496094 170.160156 280.015625 171.796875 C 278.71875 172.550781 277.695312 173.644531 277.011719 175.011719 C 276.671875 175.625 276.332031 176.171875 275.511719 176.171875 C 275.101562 176.171875 274.761719 176.511719 274.488281 176.921875 C 273.394531 178.769531 271.6875 179.929688 269.914062 180.679688 C 266.15625 182.664062 262.949219 185.191406 259.191406 187.035156 C 258.578125 187.378906 258.101562 187.855469 257.417969 188.0625 C 252.296875 189.496094 247.246094 191.273438 242.261719 193.117188 C 240.484375 193.871094 238.230469 193.597656 236.523438 194.621094 C 235.773438 195.03125 235.089844 195.238281 234.339844 195.238281 C 228.398438 196.398438 222.597656 198.039062 216.453125 198.3125 C 213.105469 198.515625 210.035156 197.21875 206.824219 197.082031 C 205.867188 196.808594 204.980469 196.191406 203.886719 196.738281 C 203.75 196.738281 203.546875 196.738281 203.410156 196.738281 C 201.910156 195.441406 199.722656 196.535156 198.222656 195.304688 C 197.332031 195.507812 196.71875 194.757812 195.96875 194.757812 C 193.921875 194.757812 191.941406 194.144531 190.027344 193.664062 C 188.59375 193.253906 187.09375 193.664062 185.660156 193.117188 C 184.90625 192.84375 184.019531 192.707031 183.132812 192.914062 C 182.925781 192.980469 182.519531 192.914062 182.382812 192.84375 C 181.492188 192.023438 180.332031 192.160156 179.308594 191.820312 C 176.714844 191 173.847656 191.136719 171.457031 189.359375 C 170.980469 189.019531 170.089844 188.609375 169.546875 189.222656 C 168.792969 190.042969 167.90625 190.726562 167.496094 191.820312 C 163.742188 200.839844 165.3125 204.734375 158.074219 213.070312 C 157.117188 214.234375 156.027344 215.328125 155.410156 216.761719 C 155.207031 217.238281 154.867188 217.511719 154.386719 217.71875 C 153.773438 217.992188 153.363281 218.402344 153.433594 219.222656 C 153.433594 219.632812 153.433594 220.042969 153.089844 220.246094 C 152.132812 220.859375 151.65625 221.886719 150.835938 222.636719 C 149.265625 224.210938 147.765625 225.917969 145.988281 227.421875 C 144.828125 228.652344 144.078125 230.359375 142.371094 231.042969 C 137.523438 236.917969 132.472656 242.726562 127.625 248.671875 C 123.59375 254.277344 118.269531 258.71875 113.625 263.84375 C 110.074219 267.328125 106.664062 270.882812 103.113281 274.367188 C 99.492188 278.464844 95.398438 282.15625 91.640625 286.121094 C 90.550781 286.871094 88.910156 286.664062 88.160156 288.101562 C 87.613281 288.988281 86.863281 289.195312 85.90625 289.332031 C 83.996094 289.605469 82.015625 290.015625 79.898438 290.015625 C 79.554688 292.472656 77.578125 293.839844 76.550781 295.824219 C 76.414062 296.164062 76.007812 296.367188 75.597656 296.4375 C 74.707031 296.574219 73.957031 296.777344 73.683594 297.804688 C 73.546875 298.351562 72.933594 298.488281 72.386719 298.554688 C 70.40625 298.964844 68.5625 299.785156 66.515625 299.785156 C 63.375 299.855469 60.097656 299.375 57.09375 298.691406 C 55.660156 297.667969 54.089844 297.257812 52.449219 296.777344 C 51.222656 296.4375 49.925781 296.300781 49.105469 295.140625 C 47.261719 294.113281 44.871094 293.910156 43.507812 292.0625 C 42.550781 290.902344 41.117188 290.082031 40.433594 288.714844 C 40.023438 287.894531 39.546875 287.144531 38.796875 286.597656 C 38.523438 286.390625 38.25 286.121094 38.25 285.847656 C 38.386719 284.617188 37.632812 284 36.816406 283.453125 C 35.585938 282.496094 35.722656 280.652344 35.039062 279.492188 C 34.289062 278.601562 34.082031 277.78125 34.21875 276.6875 C 34.21875 275.664062 33.128906 274.980469 33.46875 273.820312 C 33.8125 271.5625 33.058594 269.242188 33.675781 266.984375 Z M 33.539062 267.054688 " fill-opacity="1" fill-rule="nonzero"/><path fill="#febf00" d="M 51.972656 251.882812 C 53.132812 248.058594 56.34375 245.257812 59.347656 242.796875 C 59.757812 243.34375 59.277344 243.957031 59.824219 244.4375 C 60.847656 244.4375 61.871094 244.300781 63.035156 244.230469 C 62.964844 245.53125 61.121094 245.734375 61.328125 247.101562 C 62.898438 247.785156 63.441406 245.597656 65.011719 245.667969 C 66.789062 244.503906 68.359375 242.660156 69.519531 240.8125 C 70.203125 239.585938 70.75 238.21875 72.113281 237.464844 C 72.457031 237.261719 72.660156 236.851562 72.796875 236.441406 C 75.050781 233.230469 78.53125 230.90625 79.417969 226.738281 C 81.398438 223.320312 81.125 219.015625 83.378906 215.734375 C 84.128906 214.507812 84.199219 213.003906 85.019531 211.839844 C 85.085938 211.703125 85.019531 211.429688 85.019531 211.226562 C 84.539062 209.449219 85.222656 207.945312 86.179688 206.578125 C 89.933594 201.316406 94.578125 196.738281 98.128906 191.339844 C 98.878906 190.113281 99.972656 189.15625 100.585938 187.855469 C 100.722656 187.515625 101.132812 187.171875 101.40625 186.898438 C 103.042969 185.53125 104.203125 183.757812 106.117188 182.664062 C 106.390625 182.527344 106.59375 182.253906 106.730469 181.980469 C 107.140625 180.953125 108.027344 180.40625 108.847656 179.863281 C 110.894531 178.359375 112.601562 176.445312 114.582031 174.804688 C 116.015625 173.507812 116.222656 173.507812 117.65625 174.875 C 118.472656 174.601562 119.292969 174.328125 120.179688 174.054688 C 120.589844 173.917969 121 173.644531 121.410156 173.917969 C 122.367188 174.667969 123.253906 174.191406 124.074219 173.710938 C 125.4375 172.960938 126.941406 173.164062 128.441406 173.164062 C 130.21875 173.371094 129.398438 175.351562 131.992188 174.875 C 132.402344 174.191406 132.675781 172.824219 133.699219 173.234375 C 134.449219 173.644531 135.269531 173.984375 135.816406 174.601562 C 138.070312 176.921875 139.84375 179.589844 140.1875 182.867188 C 140.324219 184.304688 141.210938 185.875 139.570312 187.171875 C 140.324219 188.0625 139.980469 189.222656 140.460938 190.113281 C 141.277344 191.886719 141.347656 193.800781 141.6875 195.644531 C 141.6875 197.285156 140.800781 198.859375 140.1875 200.292969 C 139.707031 201.179688 139.503906 202.273438 138.753906 202.890625 C 134.996094 206.714844 132.878906 211.976562 129.332031 215.941406 C 128.167969 216.898438 127.214844 217.992188 126.1875 219.015625 C 122.230469 223.867188 118.199219 228.71875 114.515625 233.84375 C 111.578125 237.398438 109.257812 241.429688 106.253906 244.914062 C 103.792969 247.648438 101.132812 250.175781 99.289062 253.320312 C 97.785156 255.371094 95.601562 257.078125 95.667969 260.015625 C 95.601562 260.699219 94.714844 260.972656 94.988281 261.792969 C 95.53125 261.65625 96.285156 260.769531 96.695312 261.996094 C 95.464844 264.183594 95.53125 264.59375 97.71875 266.300781 C 96.351562 269.035156 93.894531 270.539062 91.847656 272.519531 C 90.207031 274.433594 88.636719 276.347656 86.589844 277.851562 C 86.042969 278.191406 85.90625 278.671875 85.90625 279.355469 C 85.90625 282.15625 83.859375 281.882812 81.605469 281.949219 C 76.074219 282.632812 71.429688 277.851562 69.722656 273 C 68.699219 271.632812 67.539062 270.265625 65.765625 269.515625 C 62.964844 268.558594 60.984375 266.371094 58.867188 264.457031 C 56.070312 261.996094 53.882812 259.128906 53.269531 255.300781 C 53.132812 254.414062 53.132812 253.386719 52.246094 252.703125 C 51.972656 252.5 51.902344 252.019531 52.039062 251.679688 Z M 104 197.011719 C 102.90625 197.21875 102.496094 197.96875 102.15625 198.925781 C 103.25 198.925781 103.519531 198.652344 104 197.011719 Z M 85.222656 273.066406 C 84.675781 273.410156 83.996094 273.546875 83.585938 274.296875 C 84.609375 274.503906 84.949219 273.820312 85.222656 273.066406 Z M 85.222656 273.066406 " fill-opacity="1" fill-rule="nonzero"/><path fill="#4a71f6" d="M 148.039062 100.867188 C 148.039062 100.730469 148.175781 100.59375 148.242188 100.457031 C 149.675781 98.957031 147.96875 97.042969 148.992188 95.539062 C 150.5625 92.804688 149.882812 89.253906 151.863281 86.585938 C 152.066406 86.3125 152.066406 85.972656 151.996094 85.699219 C 151.863281 84.398438 152.476562 83.171875 152.953125 82.078125 C 153.976562 79.890625 154.867188 77.636719 156.230469 75.585938 C 157.527344 73.671875 158.144531 71.347656 160.191406 70.050781 C 160.464844 69.914062 160.601562 69.570312 160.804688 69.296875 C 161.214844 68.683594 161.625 68.207031 162.308594 67.933594 C 164.21875 66.429688 165.789062 64.378906 167.632812 62.738281 C 170.707031 59.457031 174.664062 57.273438 178.285156 54.742188 C 179.378906 53.171875 181.152344 52.558594 182.519531 51.257812 C 182.925781 50.847656 183.472656 50.574219 184.019531 50.371094 C 185.933594 49.6875 187.773438 48.867188 189.480469 47.636719 C 191.667969 46.816406 193.921875 46.132812 196.171875 45.859375 C 198.425781 45.65625 200.746094 44.902344 203.070312 45.859375 C 203.410156 45.996094 203.683594 45.859375 204.023438 45.722656 C 204.433594 45.65625 204.84375 45.449219 205.253906 45.519531 C 207.234375 45.65625 209.144531 44.835938 211.125 45.519531 C 211.398438 45.585938 211.742188 45.519531 212.082031 45.449219 C 214.949219 44.902344 217.40625 46.886719 220.273438 46.953125 C 223.347656 46.953125 225.875 49.617188 229.015625 48.730469 C 231.402344 48.253906 233.726562 49.753906 235.570312 51.054688 C 237.070312 51.941406 238.640625 52.898438 239.734375 54.195312 C 242.125 57 245.402344 59.050781 247.246094 62.398438 C 250.25 65.265625 252.980469 68.617188 254.960938 72.304688 C 256.1875 75.242188 258.441406 77.703125 259.328125 80.777344 C 259.464844 82.007812 259.875 83.171875 260.488281 84.195312 C 261.789062 86.175781 261.308594 88.5 262.128906 90.550781 C 263.628906 93.011719 263.015625 95.949219 263.902344 98.546875 C 263.972656 98.820312 264.109375 99.230469 264.039062 99.5 C 263.5625 100.527344 264.039062 101.550781 264.039062 102.644531 C 264.039062 105.652344 263.765625 108.660156 264.039062 111.664062 C 264.039062 112.007812 264.039062 112.28125 263.765625 112.554688 C 263.015625 113.988281 263.222656 115.765625 263.289062 117.335938 C 263.359375 118.976562 262.675781 120.546875 262.332031 122.121094 C 262.128906 123.078125 261.652344 124.101562 261.242188 125.125 C 260.761719 126.21875 260.761719 127.519531 259.671875 128.339844 C 259.328125 128.613281 259.398438 129.023438 259.328125 129.363281 C 259.125 132.371094 257.007812 134.421875 256.050781 137.152344 C 255.914062 137.632812 255.574219 137.972656 255.164062 138.246094 C 254.070312 139.066406 253.457031 140.433594 252.433594 141.320312 C 251.75 142.140625 250.726562 142.210938 250.113281 142.824219 C 247.925781 145.214844 244.992188 146.71875 242.601562 148.703125 C 241.097656 151.367188 237.890625 150.136719 235.910156 152.117188 C 235.226562 152.800781 234.410156 153.621094 233.179688 153.621094 C 232.835938 153.621094 232.496094 153.894531 232.222656 154.167969 C 231.265625 155.261719 229.765625 155.601562 228.742188 156.558594 C 228.535156 156.765625 228.261719 156.832031 227.988281 156.765625 C 226.964844 156.628906 226.078125 157.105469 225.328125 157.722656 C 222.117188 159.839844 218.160156 160.25 214.882812 162.230469 C 214.539062 162.367188 214.199219 162.640625 214.0625 162.984375 C 213.3125 164.691406 210.375 163.804688 208.804688 164.144531 C 208.667969 164.761719 209.28125 164.964844 209.28125 165.648438 C 206.894531 165.988281 204.570312 165.785156 202.113281 165.851562 C 201.15625 165.851562 200.203125 165.714844 199.449219 165.101562 C 198.632812 164.417969 197.742188 164.28125 196.789062 164.761719 C 196.242188 165.035156 195.628906 164.964844 195.082031 164.691406 C 194.054688 164.078125 192.964844 163.734375 191.804688 163.597656 C 189.890625 163.324219 188.117188 162.574219 186.410156 161.753906 C 184.226562 160.726562 181.835938 160.316406 179.855469 159.019531 C 171.117188 154.167969 162.921875 148.632812 156.980469 140.5 C 155.617188 138.589844 153.976562 136.742188 153.703125 134.214844 C 153.636719 133.601562 153.296875 132.984375 152.886719 132.507812 C 151.316406 131.070312 152.066406 128.886719 151.179688 127.175781 C 150.632812 126.082031 149.949219 125.058594 150.292969 123.691406 C 149.882812 121.367188 148.515625 119.183594 148.449219 116.722656 C 148.449219 115.695312 148.378906 114.671875 148.105469 113.714844 C 146.945312 109.546875 147.902344 105.378906 148.3125 101.140625 Z M 148.039062 100.867188 " fill-opacity="1" fill-rule="nonzero"/><path fill="#fc7c2c" d="M 164.699219 239.789062 C 171.867188 233.84375 173.710938 236.441406 181.5625 234.597656 C 186.820312 234.597656 192.144531 234.050781 197.402344 234.9375 C 200.542969 235.894531 203.957031 235.757812 207.027344 236.78125 C 208.191406 237.125 209.078125 236.988281 209.964844 236.371094 C 211.808594 235.144531 213.789062 234.117188 215.90625 233.296875 C 225.875 229.539062 236.867188 228.378906 247.378906 230.085938 C 247.925781 230.15625 248.472656 230.292969 248.746094 229.609375 C 249.429688 227.695312 251.066406 226.53125 252.363281 225.097656 C 253.800781 223.390625 256.324219 223.390625 257.964844 221.816406 C 263.085938 218.402344 269.570312 217.101562 275.648438 217.375 C 281.042969 217.375 286.433594 218.265625 291.554688 219.90625 C 293.945312 220.382812 296.265625 220.996094 298.453125 222.226562 C 300.773438 223.730469 303.640625 224.003906 305.824219 225.847656 C 308.828125 226.804688 311.152344 228.855469 313.335938 230.972656 C 313.675781 231.316406 313.882812 231.726562 314.019531 232.203125 C 314.292969 233.84375 313.132812 235.417969 311.425781 235.554688 C 310.128906 235.554688 308.761719 235.6875 307.738281 234.597656 C 305.960938 233.707031 304.050781 233.023438 302.277344 232 C 298.792969 229.8125 294.695312 229.402344 291.078125 227.625 C 290.875 227.488281 290.53125 227.488281 290.328125 227.488281 C 289.304688 227.488281 288.6875 226.53125 287.664062 226.667969 C 286.503906 226.875 285.480469 225.984375 284.386719 225.984375 C 281.722656 226.804688 279.265625 224.6875 276.601562 225.234375 C 274.894531 225.574219 273.191406 225.304688 271.550781 226.054688 C 271.414062 226.054688 271.210938 226.054688 271.074219 226.054688 C 269.023438 226.054688 267.25 227.078125 265.335938 227.421875 C 263.152344 228.035156 260.761719 228.378906 259.191406 230.222656 C 258.238281 230.835938 257.347656 231.316406 256.53125 232.339844 C 263.699219 234.871094 271.003906 237.738281 276.125 243.753906 C 278.171875 244.984375 278.71875 247.03125 279.472656 249.082031 C 281.65625 252.636719 277.492188 257.417969 274.078125 258.238281 C 269.640625 259.058594 265.542969 257.417969 261.515625 255.78125 C 258.304688 254.070312 255.914062 251.40625 253.390625 248.945312 C 251.613281 247.03125 249.632812 244.984375 248.882812 242.386719 C 248.746094 241.359375 248.472656 240.269531 247.859375 239.449219 C 246.015625 237.671875 248.542969 234.117188 245.808594 233.980469 C 237.820312 233.09375 229.628906 233.367188 221.914062 235.757812 C 219.867188 236.371094 217.886719 237.054688 215.972656 238.082031 C 215.289062 238.492188 214.539062 238.832031 214.335938 239.585938 C 214.539062 240.199219 215.019531 240.335938 215.496094 240.40625 C 217.75 241.222656 219.730469 242.796875 221.570312 244.300781 C 226.078125 247.511719 228.605469 257.28125 221.367188 258.582031 C 216.792969 258.992188 212.148438 256.667969 208.734375 253.730469 C 207.371094 252.429688 205.457031 251.40625 205.390625 249.152344 C 205.390625 249.015625 205.253906 248.808594 205.1875 248.742188 C 202.933594 246.484375 204.777344 243.753906 205.050781 241.019531 C 201.839844 240.746094 198.769531 239.859375 195.558594 240.472656 C 194.738281 240.609375 193.851562 240.679688 193.03125 240.679688 C 191.871094 240.609375 190.710938 240.335938 189.6875 241.085938 C 189.480469 241.222656 189.140625 241.222656 188.9375 241.085938 C 186.339844 240.609375 184.15625 242.386719 181.699219 242.386719 C 180.675781 242.179688 179.785156 242.386719 178.96875 242.933594 C 177.671875 243.617188 176.101562 243.480469 175.074219 244.574219 C 173.574219 245.394531 170.980469 245.324219 169.613281 244.230469 C 169.476562 244.09375 169.203125 244.164062 169 244.09375 C 166.949219 244.09375 165.789062 242.589844 164.492188 241.429688 C 163.808594 240.8125 164.015625 240.335938 164.765625 239.789062 Z M 256.734375 239.722656 C 256.871094 239.859375 257.007812 239.996094 257.007812 240.132812 C 257.007812 241.769531 258.375 242.726562 259.125 244.027344 C 260.832031 247.714844 264.996094 249.152344 267.933594 251.679688 C 274.28125 256.324219 274.625 250.585938 271.347656 246.28125 C 269.09375 242.589844 259.738281 236.988281 255.574219 236.507812 C 255.710938 237.738281 255.847656 238.902344 256.804688 239.722656 Z M 211.398438 243.957031 C 211.605469 244.777344 211.875 245.597656 211.605469 246.417969 C 211.46875 246.828125 211.605469 247.167969 211.945312 247.375 C 213.3125 248.195312 213.789062 249.765625 214.746094 250.925781 C 215.972656 252.566406 217.816406 253.523438 219.457031 254.753906 C 219.796875 255.027344 220.136719 255.234375 220.617188 255.234375 C 221.503906 255.300781 221.707031 255.234375 221.914062 254.277344 C 222.734375 248.398438 216.519531 243.753906 211.398438 242.660156 C 211.058594 243.070312 211.332031 243.480469 211.398438 243.890625 Z M 211.398438 243.957031 " fill-opacity="1" fill-rule="nonzero"/><path fill="#fc7c2c" d="M 55.386719 126.765625 C 58.1875 126.492188 60.917969 125.945312 63.785156 126.015625 C 66.925781 125.945312 69.246094 123.554688 70.953125 121.164062 C 71.566406 120.480469 72.046875 120 73.207031 120.070312 C 73.273438 119.046875 73.753906 118.5 74.433594 117.953125 C 75.1875 117.269531 75.664062 116.242188 76.621094 115.765625 C 76.960938 115.558594 76.824219 115.082031 76.894531 114.738281 C 77.167969 113.167969 77.578125 111.597656 78.941406 110.570312 C 80.035156 109.75 84.746094 107.15625 85.085938 109.546875 C 85.222656 111.253906 86.863281 112.554688 85.835938 114.332031 C 84.8125 116.722656 85.90625 119.523438 86.382812 121.984375 C 87.953125 127.039062 90.414062 132.027344 95.054688 134.695312 C 95.941406 136.128906 97.921875 136.402344 99.425781 136.265625 C 101.335938 136.265625 102.632812 137.699219 102.292969 139.476562 C 101.816406 140.980469 102.019531 143.714844 99.902344 143.851562 C 97.855469 144.054688 95.804688 144.328125 93.824219 143.371094 C 87 143.371094 87.75 143.714844 82.289062 147.265625 C 81.742188 148.703125 80.308594 149.453125 79.625 150.820312 C 78.53125 152.871094 77.644531 154.921875 77.234375 157.175781 C 76.414062 162.164062 74.503906 167.082031 69.519531 161.683594 C 68.972656 158.335938 68.769531 154.851562 68.835938 151.433594 C 68.835938 150.476562 68.835938 149.453125 67.949219 148.703125 C 67.402344 148.292969 67.265625 147.539062 67.199219 146.789062 C 67.199219 146.308594 67.199219 145.832031 66.855469 145.421875 C 65.832031 143.988281 65.421875 142.210938 64.875 140.570312 C 63.578125 136.46875 59.277344 134.828125 55.589844 133.464844 C 52.859375 132.644531 52.722656 132.164062 52.792969 129.363281 C 52.792969 128.132812 54.019531 126.699219 55.179688 126.699219 Z M 55.386719 126.765625 " fill-opacity="1" fill-rule="nonzero"/><g clip-path="url(#db38773e20)"><path fill="#fc7c2c" d="M 19.335938 157.996094 C 23.089844 157.515625 26.914062 156.148438 29.507812 153.144531 C 30.738281 151.570312 32.445312 150.339844 32.648438 148.085938 C 32.648438 147.882812 32.855469 147.746094 32.992188 147.609375 C 33.8125 146.71875 33.675781 145.351562 34.152344 144.261719 C 35.246094 143.851562 36.269531 143.917969 37.359375 144.054688 C 37.566406 147.746094 37.90625 151.367188 38.660156 154.921875 C 39.136719 156.765625 40.707031 158.132812 41.183594 159.976562 C 41.320312 160.589844 42.003906 160.796875 42.550781 161 C 44.871094 161.957031 46.375 163.734375 47.464844 165.988281 C 45.347656 168.792969 42.414062 167.015625 40.433594 169.40625 C 36.746094 172.070312 33.878906 175.351562 32.921875 179.929688 C 32.71875 180.886719 32.242188 181.707031 31.558594 182.457031 C 31.078125 183.003906 30.535156 183.074219 30.054688 182.457031 C 29.234375 181.296875 27.394531 180.953125 27.527344 179.246094 C 27.257812 174.53125 26.300781 169.542969 23.023438 165.988281 C 22.273438 165.101562 21.792969 163.941406 20.703125 163.460938 C 18.585938 162.503906 17.21875 160.933594 16.261719 158.816406 C 17.21875 158.269531 18.175781 157.789062 19.40625 157.996094 Z M 19.335938 157.996094 " fill-opacity="1" fill-rule="nonzero"/></g><path fill="#febf00" d="M 327.332031 80.710938 C 327.675781 79.753906 330.199219 79.207031 331.15625 79.207031 C 333.203125 79.410156 335.253906 78.457031 337.300781 79.207031 C 339.28125 78.660156 341.398438 78.867188 343.445312 78.867188 C 344.265625 78.660156 345.015625 78.867188 345.90625 79.003906 C 346.722656 79.207031 347.542969 78.386719 348.5 78.457031 C 349.113281 78.457031 349.796875 78.796875 350.34375 78.796875 C 351.503906 78.320312 352.324219 79.003906 353.277344 79.480469 C 354.097656 79.890625 354.507812 80.640625 355.191406 81.121094 C 356.28125 81.941406 356.28125 83.171875 356.351562 84.265625 C 356.351562 85.015625 356.351562 85.628906 356.761719 86.3125 C 357.511719 87.679688 356.144531 88.636719 356.007812 89.867188 C 356.007812 90.824219 355.464844 91.4375 354.710938 91.917969 C 352.9375 93.214844 354.710938 95.878906 352.457031 97.316406 C 351.707031 97.929688 351.160156 98.066406 350.34375 97.792969 C 343.789062 94.511719 337.507812 90.824219 330.609375 88.296875 C 326.105469 86.382812 325.285156 85.492188 327.265625 80.847656 Z M 327.332031 80.710938 " fill-opacity="1" fill-rule="nonzero"/><path fill="#febf00" d="M 329.382812 56.519531 C 333.476562 55.015625 335.800781 51.328125 339.214844 48.800781 C 340.648438 47.980469 341.601562 46.476562 343.171875 45.65625 C 343.582031 45.449219 344.128906 45.246094 344.335938 44.835938 C 345.152344 43.46875 346.65625 43.058594 347.882812 42.238281 C 348.703125 41.691406 349.386719 41.761719 350.207031 42.375 C 351.707031 43.742188 352.253906 45.859375 353.210938 47.570312 C 353.894531 49.34375 355.667969 50.234375 356.828125 51.667969 C 359.011719 54.265625 356.351562 57 353.824219 57.613281 C 351.980469 57.886719 350.546875 59.050781 348.773438 59.527344 C 343.925781 60.757812 339.28125 62.464844 334.503906 63.96875 C 331.496094 64.445312 328.5625 66.359375 325.558594 64.378906 C 326.378906 62.054688 327.195312 59.9375 328.085938 57.957031 C 328.355469 57.339844 328.699219 56.726562 329.382812 56.453125 Z M 329.382812 56.519531 " fill-opacity="1" fill-rule="nonzero"/><path fill="#febf00" d="M 316.066406 38.824219 C 316.476562 34.3125 317.023438 29.871094 317.433594 25.359375 C 317.707031 23.449219 319.890625 22.421875 321.53125 21.738281 C 322.347656 22.421875 323.578125 22.421875 324.398438 22.96875 C 326.105469 24.128906 328.355469 24.335938 329.792969 25.839844 C 329.925781 25.976562 330.199219 26.042969 330.40625 26.042969 C 331.226562 25.769531 331.632812 26.386719 332.25 26.726562 C 333 27.136719 333.410156 27.617188 333.136719 28.503906 C 333.136719 28.574219 333.136719 28.710938 333.273438 28.777344 C 334.433594 29.460938 332.933594 30.828125 332.523438 31.578125 C 329.449219 35.746094 326.035156 39.574219 322.621094 43.402344 C 321.394531 44.765625 319.824219 45.65625 318.046875 46.132812 C 316.339844 46.613281 315.65625 46.476562 315.382812 44.355469 C 314.90625 42.511719 315.726562 40.734375 316.136719 38.960938 Z M 316.066406 38.824219 " fill-opacity="1" fill-rule="nonzero"/><path fill="#000001" d="M 44.667969 270.882812 C 44.941406 265.484375 49.652344 261.996094 54.15625 259.878906 C 55.179688 259.265625 55.179688 259.265625 54.839844 258.101562 C 53.679688 255.371094 52.175781 252.15625 54.566406 249.628906 C 55.863281 247.785156 57.570312 246.28125 58.527344 244.300781 C 58.800781 243.683594 59.550781 243.34375 59.824219 242.386719 C 58.117188 243.207031 57.570312 245.121094 55.589844 245.460938 C 56.957031 241.496094 60.507812 238.96875 62.898438 235.621094 C 72.863281 223.046875 84.265625 211.773438 93.894531 198.925781 C 96.761719 195.441406 99.765625 191.957031 102.632812 188.472656 C 104.136719 186.625 105.296875 184.644531 107.070312 183.140625 C 108.574219 180.679688 110.417969 178.496094 112.875 176.921875 C 115.058594 175.554688 116.699219 173.300781 119.429688 172.824219 C 120.453125 172.617188 121.273438 171.796875 122.230469 171.523438 C 124.277344 170.773438 126.460938 170.566406 128.578125 171.523438 C 129.058594 171.730469 129.464844 172.140625 130.148438 172.003906 C 130.558594 170.839844 131.378906 169.886719 132.605469 169.269531 C 132.878906 169.132812 133.015625 168.929688 133.015625 168.65625 C 133.425781 166.808594 134.996094 165.851562 136.019531 164.488281 C 136.773438 163.394531 137.863281 162.4375 138.683594 161.34375 C 140.597656 158.953125 142.710938 156.765625 144.964844 154.714844 C 145.511719 154.238281 146.261719 153.757812 146.398438 152.800781 C 145.375 151.84375 144.144531 150.886719 143.804688 149.386719 C 143.804688 149.25 143.601562 149.179688 143.464844 149.042969 C 142.574219 148.429688 142.234375 147.539062 142.097656 146.445312 C 142.097656 146.105469 142.097656 145.625 141.757812 145.421875 C 140.527344 144.738281 140.050781 143.441406 139.503906 142.277344 C 136.839844 138.792969 136.019531 134.695312 133.769531 131.003906 C 128.375 121.503906 124.6875 110.980469 124.210938 99.980469 C 124.277344 98.886719 124.003906 96.015625 125.507812 96.222656 C 126.460938 98.339844 126.054688 100.800781 126.667969 103.054688 C 127.078125 102.78125 127.078125 102.441406 127.007812 102.167969 C 126.804688 100.320312 126.667969 98.546875 127.214844 96.699219 C 127.417969 96.015625 127.488281 95.265625 127.007812 94.515625 C 126.734375 94.105469 126.734375 93.695312 126.941406 93.285156 C 127.351562 92.191406 127.214844 91.097656 127.078125 90.003906 C 127.214844 86.996094 127.488281 83.921875 127.828125 80.847656 C 128.988281 75.039062 130.902344 69.367188 133.5625 64.039062 C 134.722656 61.851562 136.429688 60.003906 137.386719 57.683594 C 143.394531 45.3125 153.023438 34.515625 164.289062 26.589844 C 170.296875 22.285156 177.328125 20.234375 184.226562 17.777344 C 191.871094 15.246094 199.792969 14.085938 207.78125 13.472656 C 212.082031 13.402344 216.453125 12.992188 220.753906 13.0625 C 227.785156 14.222656 234.75 16.203125 241.371094 18.734375 C 249.085938 22.082031 257.621094 23.859375 264.109375 29.460938 C 264.722656 29.9375 265.472656 30.28125 265.609375 31.304688 C 263.496094 31.648438 262.195312 29.800781 260.351562 29.390625 C 260.351562 29.871094 260.488281 30.210938 260.898438 30.417969 C 262.539062 31.238281 264.039062 32.398438 265.542969 33.425781 C 267.25 34.652344 268.683594 36.15625 270.457031 37.320312 C 272.371094 38.550781 273.394531 40.667969 275.167969 41.964844 C 275.441406 42.171875 275.511719 42.511719 275.648438 42.785156 C 275.988281 43.402344 276.261719 44.21875 276.808594 44.628906 C 278.515625 45.929688 279.335938 47.84375 280.496094 49.550781 C 281.65625 51.191406 282.816406 52.898438 283.703125 54.8125 C 284.046875 55.496094 284.660156 56.042969 284.457031 57 C 284.386719 57.410156 284.796875 57.613281 285.070312 57.886719 C 286.09375 58.914062 287.1875 59.800781 287.324219 61.441406 C 287.324219 61.851562 287.597656 62.261719 287.9375 62.535156 C 290.394531 64.71875 290.121094 68.136719 291.691406 70.734375 C 292.851562 72.101562 293.332031 73.742188 293.605469 75.515625 C 295.585938 80.300781 295.585938 85.628906 296.265625 90.6875 C 296.265625 93.558594 296.746094 96.496094 296.8125 99.367188 C 296.8125 100.664062 296.0625 101.894531 296.335938 103.125 C 296.609375 107.222656 295.652344 111.324219 295.449219 115.421875 C 295.585938 118.019531 293.945312 120.273438 293.808594 122.804688 C 293.742188 123.964844 293.535156 125.125 292.851562 126.152344 C 292.648438 126.425781 292.648438 126.699219 292.582031 127.039062 C 292.238281 132.917969 288.621094 137.835938 286.570312 143.234375 C 286.433594 143.578125 286.296875 143.917969 286.027344 144.191406 C 284.523438 145.285156 284.25 147.128906 283.15625 148.496094 C 282.40625 149.386719 281.792969 150.410156 281.246094 151.433594 C 280.085938 153.894531 278.039062 155.738281 276.671875 158.0625 C 276.125 158.609375 275.441406 158.882812 275.167969 159.636719 C 273.597656 162.09375 271.074219 163.53125 268.957031 165.375 C 267.042969 166.878906 265.882812 169.339844 263.359375 170.023438 C 263.152344 170.023438 262.949219 170.226562 262.878906 170.429688 C 262.058594 171.523438 260.625 171.730469 259.738281 172.753906 C 258.304688 173.164062 257.007812 174.257812 255.4375 174.464844 C 250.523438 178.835938 244.238281 181.296875 238.164062 183.621094 C 235.226562 184.507812 226.964844 187.789062 224.714844 186.625 C 225.054688 186.011719 225.53125 185.875 226.078125 185.804688 C 227.035156 185.667969 227.855469 185.191406 228.808594 184.917969 C 229.152344 184.851562 229.355469 184.644531 229.289062 184.304688 C 228.46875 184.714844 227.445312 183.757812 226.691406 184.441406 C 226.011719 185.054688 225.191406 185.054688 224.304688 185.054688 C 222.390625 184.851562 220.34375 185.941406 218.5 185.191406 C 218.089844 184.988281 217.816406 185.261719 217.476562 185.394531 C 214.8125 186.558594 212.011719 185.667969 209.214844 185.875 C 207.574219 185.941406 205.9375 185.328125 204.230469 185.328125 C 203.886719 185.328125 203.683594 185.054688 203.410156 184.851562 C 203.136719 184.644531 202.863281 184.441406 202.523438 184.578125 C 201.292969 185.054688 200.066406 184.851562 198.835938 184.441406 C 197.265625 183.960938 195.558594 184.167969 193.921875 183.621094 C 192.351562 183.074219 190.710938 182.390625 189.074219 182.253906 C 187.023438 182.046875 185.386719 181.089844 183.609375 180.476562 C 179.855469 179.042969 176.167969 177.605469 172.617188 175.691406 C 170.707031 175.011719 169.410156 173.234375 167.429688 172.824219 C 164.628906 176.648438 161.285156 180.066406 158.417969 183.824219 C 160.394531 183.210938 161.488281 181.023438 163.742188 180.953125 C 163.945312 181.433594 163.671875 181.636719 163.46875 181.84375 C 160.464844 184.851562 157.800781 188.128906 154.320312 190.726562 C 152.339844 192.230469 152.339844 192.230469 153.160156 194.621094 C 153.910156 196.808594 155.003906 199.199219 153.160156 201.316406 C 153.023438 201.523438 153.023438 201.863281 152.953125 202.070312 C 152.269531 203.914062 151.996094 205.894531 150.359375 207.261719 C 149.882812 207.671875 149.402344 208.355469 149.265625 208.972656 C 148.925781 210.203125 148.105469 211.089844 147.355469 212.046875 C 146.808594 212.730469 146.535156 213.617188 145.851562 214.234375 C 144.417969 215.464844 143.601562 217.308594 141.757812 218.195312 C 141.277344 218.402344 140.730469 219.015625 140.664062 219.496094 C 140.460938 220.792969 139.367188 221.269531 138.753906 222.160156 C 138.480469 222.5 138.070312 222.707031 137.863281 223.046875 C 136.636719 225.03125 134.65625 226.328125 133.222656 228.242188 C 129.945312 232.546875 126.054688 236.304688 122.230469 240.132812 C 121.75 241.769531 120.179688 242.523438 119.429688 243.890625 C 117.996094 245.050781 116.492188 246.007812 115.539062 247.851562 C 115.058594 249.289062 113.082031 249.425781 112.601562 250.859375 C 111.304688 252.976562 109.53125 254.753906 107.6875 256.460938 C 105.980469 257.554688 104.410156 258.71875 103.25 260.425781 C 101.542969 262.476562 98.742188 263.433594 97.375 265.890625 C 97.308594 266.027344 97.035156 266.164062 96.832031 266.234375 C 94.371094 267.941406 92.9375 270.878906 90.480469 272.65625 C 89.183594 274.980469 87.679688 277.097656 84.746094 277.304688 C 83.242188 277.304688 83.378906 279.421875 81.945312 279.558594 C 79.964844 279.902344 78.054688 280.175781 76.210938 279.082031 C 74.84375 278.261719 73.136719 278.054688 71.773438 276.757812 C 71.5 279.902344 70.269531 282.222656 68.972656 284.890625 C 68.5625 285.914062 67.882812 286.527344 66.992188 287.007812 C 65.832031 287.621094 64.605469 288.238281 63.921875 289.46875 C 63.648438 289.945312 63.167969 290.21875 62.625 290.289062 C 58.59375 291.242188 50.195312 288.785156 48.148438 284.957031 C 50.878906 285.984375 53.339844 286.9375 55.933594 287.144531 C 55.863281 286.9375 55.726562 286.800781 55.589844 286.800781 C 52.585938 286.117188 50.265625 284.070312 47.601562 282.632812 C 44.597656 279.695312 44.941406 274.84375 44.734375 270.949219 Z M 232.632812 183.074219 C 231.8125 183.140625 230.996094 183.277344 230.3125 183.824219 C 230.039062 184.097656 229.695312 184.234375 229.355469 184.234375 C 230.652344 184.507812 231.675781 183.894531 232.632812 183.074219 Z M 161.828125 158.542969 C 165.722656 162.09375 169.75 165.511719 174.257812 168.382812 C 177.738281 170.5 181.765625 171.523438 185.386719 173.4375 C 190.777344 175.964844 196.789062 176.71875 202.660156 177.539062 C 207.917969 178.222656 213.175781 178.769531 218.5 178.5625 C 232.429688 176.648438 245.878906 172.277344 257.828125 164.761719 C 265.335938 160.25 271.277344 153.691406 275.648438 146.171875 C 277.558594 143.167969 280.222656 140.5 281.449219 137.085938 C 289.710938 117.0625 292.101562 93.558594 284.933594 72.851562 C 283.5 71.210938 283.019531 69.09375 282.132812 67.179688 C 281.246094 65.265625 280.085938 63.492188 279.472656 61.441406 C 276.671875 58.023438 274.488281 53.925781 271.414062 50.710938 C 270.046875 49.207031 268.613281 47.707031 267.113281 46.339844 C 265.882812 45.246094 265.40625 43.605469 263.902344 42.855469 C 262.195312 41.625 261.445312 39.300781 259.328125 38.550781 C 259.191406 38.550781 258.988281 38.414062 258.917969 38.34375 C 258.101562 36.773438 256.394531 36.089844 255.164062 34.996094 C 254.003906 33.902344 252.707031 32.808594 251.203125 32.058594 C 248.40625 30.554688 246.152344 28.164062 243.214844 27 C 242.464844 26.726562 241.917969 26.113281 241.234375 25.703125 C 239.664062 24.746094 237.820312 24.199219 236.320312 23.105469 C 232.769531 21.945312 228.878906 21.808594 225.328125 20.644531 C 223.347656 20.097656 221.230469 20.578125 219.183594 19.894531 C 218.226562 19.6875 217.203125 19.484375 216.246094 19.894531 C 215.289062 20.167969 214.199219 19.414062 213.242188 19.621094 C 206.074219 19.894531 198.769531 19.347656 191.804688 21.398438 C 189.753906 21.945312 187.636719 22.628906 185.726562 23.652344 C 181.699219 25.632812 177.261719 26.523438 173.503906 29.050781 C 171.253906 30.621094 168.453125 31.441406 166.472656 33.492188 C 165.515625 34.175781 164.628906 34.925781 163.671875 35.542969 C 162.238281 36.566406 161.488281 38.34375 160.054688 39.300781 C 157.664062 41.078125 155.890625 43.402344 154.320312 45.929688 C 152.816406 47.089844 151.929688 48.664062 151.179688 50.371094 C 150.835938 51.121094 150.019531 51.601562 149.402344 52.148438 C 148.039062 53.445312 147.285156 55.015625 146.535156 56.65625 C 145.921875 58.09375 144.554688 59.050781 143.804688 60.484375 C 141.414062 64.789062 139.433594 69.433594 137.933594 74.082031 C 137.25 76.816406 136.226562 79.480469 136.019531 82.417969 C 135.953125 86.382812 134.792969 90.277344 134.929688 94.242188 C 134.929688 97.589844 133.496094 100.867188 134.246094 104.21875 C 134.722656 107.359375 134.929688 110.503906 135.75 113.648438 C 136.636719 117.679688 138.34375 121.367188 139.707031 125.195312 C 139.980469 126.355469 140.730469 127.382812 141.414062 128.40625 C 141.757812 128.816406 142.097656 129.296875 142.03125 129.839844 C 142.03125 130.933594 142.4375 131.824219 142.984375 132.644531 C 143.875 134.078125 144.488281 135.71875 145.648438 136.949219 C 146.261719 137.5625 146.261719 138.519531 146.671875 139.273438 C 147.285156 140.433594 148.3125 141.390625 148.515625 142.757812 C 148.652344 143.234375 149.402344 143.578125 149.675781 143.988281 C 150.425781 145.695312 151.996094 146.855469 152.816406 148.496094 C 153.910156 150.203125 155.683594 151.433594 156.574219 153.417969 C 156.710938 153.691406 156.914062 154.03125 157.1875 154.167969 C 159.03125 155.261719 160.054688 157.175781 161.691406 158.40625 Z M 149.0625 183.140625 C 152.066406 179.863281 155.070312 176.511719 157.871094 173.027344 C 158.621094 172.070312 159.097656 170.839844 160.328125 170.226562 C 161.898438 168.859375 159.507812 166.398438 158.074219 165.714844 C 157.800781 165.578125 157.527344 165.375 157.390625 165.101562 C 157.117188 164.417969 156.574219 164.078125 155.957031 163.667969 C 155.273438 163.257812 154.660156 162.710938 154.320312 161.957031 C 153.433594 160.660156 152.066406 159.703125 151.589844 158.0625 C 151.246094 157.175781 150.835938 157.105469 150.222656 157.789062 C 146.878906 161.617188 143.53125 165.511719 140.253906 169.339844 C 138.546875 171.386719 136.5 173.164062 135.339844 175.625 C 137.320312 177.402344 139.640625 179.042969 141.621094 180.816406 C 141.960938 182.390625 143.464844 182.800781 144.488281 183.621094 C 146.125 184.917969 147.695312 184.644531 149.128906 183.003906 Z M 89.867188 266.847656 C 88.84375 266.847656 88.570312 267.601562 88.226562 268.421875 C 88.773438 267.875 89.320312 267.394531 89.867188 266.847656 Z M 67.0625 262.816406 C 68.425781 264.046875 70.066406 264.867188 71.15625 266.300781 C 72.863281 269.035156 75.664062 270.675781 78.257812 272.316406 C 80.921875 273.339844 82.832031 270.128906 84.472656 268.558594 C 87.679688 265.414062 90.414062 261.519531 94.234375 259.058594 C 94.917969 259.402344 94.851562 260.222656 95.464844 260.496094 C 99.425781 255.984375 102.632812 250.925781 106.796875 246.621094 C 108.367188 244.367188 109.9375 242.113281 111.851562 240.132812 C 113.148438 237.875 115.195312 236.371094 116.835938 234.460938 C 117.65625 232.820312 119.429688 232 120.179688 230.292969 C 122.09375 227.695312 124.480469 225.441406 126.597656 223.046875 C 128.785156 220.109375 131.445312 217.511719 134.042969 214.847656 C 137.046875 211.089844 140.800781 207.808594 143.121094 203.503906 C 144.144531 200.292969 149.335938 196.464844 145.238281 193.597656 C 144.214844 192.980469 143.738281 191.75 142.710938 191.273438 C 141.074219 190.65625 139.980469 189.429688 138.890625 188.199219 C 137.183594 186.488281 135.203125 185.191406 133.5625 183.414062 C 133.222656 183.074219 132.949219 182.730469 132.472656 182.527344 C 130.832031 181.910156 129.671875 180.679688 128.511719 179.453125 C 127.757812 178.632812 126.734375 178.222656 125.847656 177.742188 C 125.097656 177.332031 124.277344 177.878906 123.664062 178.289062 C 121.683594 179.726562 119.769531 181.226562 117.859375 182.664062 C 116.699219 184.441406 115.402344 185.941406 113.558594 186.96875 C 111.917969 187.925781 111.03125 189.632812 109.667969 190.792969 C 108.984375 191.136719 108.4375 191.546875 108.367188 192.433594 C 108.367188 192.777344 108.097656 192.980469 107.824219 193.1875 C 105.160156 195.167969 104.066406 198.515625 101.746094 200.769531 C 100.789062 201.726562 99.835938 202.546875 99.355469 203.847656 C 98.945312 204.941406 97.785156 205.554688 96.96875 206.304688 C 95.53125 207.605469 94.441406 209.109375 93.007812 210.40625 C 92.597656 210.609375 92.324219 210.953125 92.253906 211.363281 C 92.050781 212.386719 91.300781 213.003906 90.480469 213.480469 C 88.636719 214.847656 88.089844 217.308594 86.179688 218.675781 C 83.449219 222.363281 80.308594 225.917969 77.574219 229.609375 C 75.390625 231.179688 74.027344 233.640625 72.046875 235.417969 C 70.066406 237.125 68.769531 239.378906 66.71875 241.019531 C 64.945312 243.273438 63.988281 246.210938 61.53125 247.988281 C 60.847656 248.535156 60.371094 249.492188 59.824219 250.246094 C 59.6875 250.449219 59.757812 250.722656 59.824219 250.996094 C 60.097656 256.050781 64.195312 259.128906 67.265625 262.679688 Z M 52.585938 276.824219 C 52.859375 277.507812 53.269531 278.054688 54.226562 278.125 C 55.179688 278.125 55.796875 279.148438 56.75 279.421875 C 57.367188 279.628906 57.84375 280.039062 58.527344 279.832031 C 58.664062 279.832031 58.867188 279.832031 59.003906 279.832031 C 60.507812 280.722656 62.007812 280.039062 63.511719 279.96875 C 64.46875 279.96875 65.148438 279.285156 65.96875 279.011719 C 66.242188 278.945312 66.308594 278.671875 66.378906 278.398438 C 67.199219 276.621094 66.242188 274.707031 66.992188 272.929688 C 65.628906 271.085938 63.851562 269.925781 62.554688 268.285156 C 61.53125 267.464844 61.191406 265.484375 59.550781 266.097656 C 57.160156 266.847656 54.566406 265.757812 52.3125 267.257812 C 49.652344 268.96875 51.835938 274.367188 52.65625 276.757812 Z M 52.585938 276.824219 " fill-opacity="1" fill-rule="nonzero"/><path fill="#000001" d="M 153.839844 128.339844 C 152.75 124.851562 151.453125 121.503906 150.085938 118.15625 C 147.558594 111.734375 147.96875 104.898438 147.695312 98.203125 C 147.421875 96.699219 147.695312 95.128906 147.355469 93.625 C 147.148438 92.394531 147.902344 91.097656 147.558594 89.867188 C 147.285156 88.363281 148.652344 87.269531 148.585938 85.765625 C 148.585938 81.871094 149.609375 77.910156 151.382812 74.492188 C 151.382812 73.261719 151.996094 72.375 152.679688 71.484375 C 152.886719 71.210938 153.023438 70.871094 153.023438 70.597656 C 152.953125 69.296875 153.703125 68.480469 154.523438 67.726562 C 155.070312 67.25 155.410156 66.703125 155.546875 66.019531 C 155.957031 64.515625 156.980469 63.285156 157.527344 61.851562 C 158.074219 60.824219 159.507812 60.484375 159.371094 59.050781 C 159.644531 57.75 161.761719 57.339844 161.964844 55.972656 C 162.308594 54.265625 164.152344 53.652344 164.628906 52.148438 C 164.699219 51.941406 165.105469 51.738281 165.449219 51.667969 C 166.539062 51.394531 167.085938 50.644531 167.632812 49.753906 C 168.453125 48.390625 169.613281 47.226562 170.980469 46.40625 C 172.277344 45.65625 173.4375 44.5625 175.007812 44.21875 C 177.535156 42.445312 179.992188 40.394531 183.132812 39.777344 C 185.179688 39.574219 186.476562 37.660156 188.527344 37.59375 C 194.945312 35.609375 201.773438 34.105469 208.597656 33.835938 C 211.605469 33.835938 214.539062 33.972656 217.542969 34.039062 C 221.230469 34.722656 224.917969 35.679688 228.605469 36.292969 C 231.0625 36.703125 233.316406 37.59375 235.636719 38.207031 C 238.777344 38.960938 240.960938 41.417969 243.898438 42.445312 C 245.128906 44.21875 247.246094 44.5625 248.816406 45.859375 C 250.589844 47.570312 252.910156 48.800781 254.34375 50.847656 C 255.097656 52.148438 256.1875 53.171875 257.347656 54.128906 C 259.261719 55.496094 260.351562 57.476562 261.652344 59.320312 C 262.332031 59.867188 262.878906 60.484375 263.085938 61.371094 C 264.585938 63.285156 266.226562 65.265625 267.042969 67.660156 C 267.316406 68.410156 267.726562 69.230469 268.34375 69.84375 C 270.046875 72.304688 270.664062 75.378906 272.234375 77.976562 C 272.710938 78.933594 272.4375 79.957031 272.847656 80.914062 C 273.804688 83.101562 273.941406 85.5625 274.894531 87.75 C 275.03125 88.023438 275.101562 88.363281 275.03125 88.707031 C 274.761719 92.328125 275.851562 95.878906 275.851562 99.503906 C 275.851562 100.390625 276.398438 101.210938 275.714844 102.03125 C 276.464844 103.125 276.058594 104.148438 275.441406 105.105469 C 275.375 105.242188 275.441406 105.445312 275.441406 105.582031 C 275.03125 109.410156 275.441406 113.511719 273.804688 117.132812 C 273.257812 118.15625 272.78125 119.25 272.917969 120.480469 C 272.984375 121.027344 272.710938 121.4375 272.4375 121.914062 C 271.550781 123.28125 270.390625 124.511719 270.253906 126.21875 C 270.253906 126.699219 269.980469 127.039062 269.503906 127.175781 C 268.820312 127.449219 268.613281 127.996094 268.410156 128.613281 C 267.863281 130.386719 267.179688 132.234375 265.953125 133.738281 C 265.542969 134.214844 265.335938 134.832031 265.066406 135.375 C 264.929688 135.648438 264.65625 135.855469 265.066406 136.195312 C 266.429688 135.101562 267.179688 133.464844 268.546875 131.960938 C 268.273438 134.421875 266.769531 135.785156 265.609375 137.699219 C 261.71875 143.714844 256.667969 148.359375 250.25 151.707031 C 245.878906 155.464844 240.757812 158.199219 235.296875 159.976562 C 232.292969 161.890625 228.808594 162.300781 225.394531 163.121094 C 222.597656 163.941406 219.660156 163.804688 216.792969 164.488281 C 210.648438 165.648438 204.230469 164.554688 198.152344 163.667969 C 194.261719 163.050781 190.710938 161.207031 187.023438 159.976562 C 181.21875 157.996094 176.371094 154.03125 171.457031 150.476562 C 168.382812 148.496094 165.585938 146.105469 163.46875 143.097656 C 163.128906 142.347656 162.101562 142.210938 161.898438 141.320312 C 161.558594 140.226562 160.875 139.339844 160.191406 138.453125 C 157.800781 135.238281 155.207031 131.960938 153.773438 128.269531 Z M 162.511719 131.6875 C 165.175781 136.675781 169.613281 140.5 173.574219 144.535156 C 176.167969 147.8125 179.785156 149.933594 183.269531 152.117188 C 185.863281 153.28125 188.664062 154.304688 191.394531 155.398438 C 194.738281 156.628906 197.742188 158.679688 201.363281 158.816406 C 207.78125 160.316406 214.199219 159.703125 220.480469 158.269531 C 223.414062 158.679688 226.078125 157.722656 228.605469 156.558594 C 232.632812 155.054688 236.730469 153.757812 240.691406 152.117188 C 246.5625 149.589844 249.90625 143.644531 254.277344 139.136719 C 261.242188 129.839844 265.609375 118.773438 267.316406 107.359375 C 267.660156 105.171875 267.316406 102.988281 267.863281 100.867188 C 268 100.253906 267.726562 99.707031 267.726562 99.160156 C 267.796875 93.832031 266.566406 88.636719 265.335938 83.511719 C 264.585938 81.121094 263.699219 78.867188 263.085938 76.40625 C 262.949219 75.859375 262.8125 75.378906 262.46875 74.96875 C 261.378906 73.671875 261.105469 72.03125 260.695312 70.253906 C 258.167969 69.164062 257.894531 66.019531 255.777344 64.378906 C 255.640625 64.242188 255.4375 64.039062 255.371094 63.902344 C 254.6875 62.125 253.183594 61.097656 251.957031 59.800781 C 250.386719 57.683594 248.609375 55.699219 246.835938 53.71875 C 246.425781 53.242188 245.808594 52.898438 245.742188 52.214844 C 245.742188 52.148438 245.675781 52.011719 245.605469 51.941406 C 242.53125 49.6875 239.664062 47.089844 236.113281 45.382812 C 234.613281 44.628906 232.972656 44.21875 231.402344 43.675781 C 230.789062 43.46875 230.105469 44.015625 229.5625 43.8125 C 228.125 43.265625 226.488281 43.605469 225.054688 42.992188 C 222.9375 42.582031 220.753906 42.855469 218.636719 42.035156 C 214.199219 41.691406 209.554688 40.871094 204.980469 41.691406 C 203.34375 41.964844 201.636719 41.214844 200.132812 42.101562 C 199.996094 42.171875 199.792969 42.238281 199.65625 42.238281 C 198.425781 41.898438 197.402344 42.511719 196.308594 42.785156 C 194.671875 43.402344 192.757812 43.128906 191.324219 44.289062 C 191.050781 44.5625 190.574219 44.765625 190.164062 44.835938 C 188.320312 45.039062 186.886719 46.203125 185.316406 47.023438 C 181.835938 48.800781 178.011719 49.6875 175.347656 52.695312 C 174.664062 53.378906 173.710938 53.652344 172.960938 54.195312 C 171.253906 55.5625 170.089844 57.410156 168.519531 58.914062 C 166.609375 60.824219 165.449219 63.21875 163.945312 65.402344 C 160.054688 70.597656 157.597656 76.679688 155.890625 82.964844 C 155.480469 84.808594 154.59375 86.585938 153.976562 88.363281 C 153.910156 91.164062 152.679688 93.898438 153.023438 96.699219 C 153.296875 98.75 152.953125 100.867188 153.570312 102.851562 C 153.773438 103.535156 153.773438 104.285156 153.636719 105.035156 C 153.5 106.335938 153.5 107.566406 153.976562 108.796875 C 154.320312 112.007812 155.546875 115.011719 156.367188 118.15625 C 157.664062 122.941406 160.328125 127.175781 162.445312 131.617188 Z M 162.511719 131.6875 " fill-opacity="1" fill-rule="nonzero"/></svg>