<svg width="698" height="176" viewBox="0 0 698 176" fill="none" xmlns="http://www.w3.org/2000/svg">
<path d="M594.178 13.812H608.84C611.348 13.812 613.295 14.5184 614.679 15.9312C616.091 17.344 616.798 19.2181 616.798 21.5536C616.798 22.7069 616.639 23.6872 616.322 24.4946C616.034 25.3019 615.63 25.965 615.111 26.484C614.621 27.003 614.03 27.3923 613.338 27.6518C612.675 27.8824 611.954 28.0122 611.175 28.041V28.3005C611.896 28.3005 612.646 28.4302 613.424 28.6897C614.232 28.9492 614.967 29.3673 615.63 29.944C616.293 30.4918 616.841 31.2126 617.273 32.1064C617.735 33.0003 617.965 34.0959 617.965 35.3934C617.965 36.5755 617.764 37.7 617.36 38.7668C616.985 39.8048 616.452 40.7131 615.76 41.4915C615.068 42.27 614.246 42.8899 613.295 43.3513C612.343 43.7838 611.305 44 610.181 44H594.178V13.812ZM600.752 38.4641H608.321C609.186 38.4641 609.863 38.2334 610.354 37.7721C610.873 37.2819 611.132 36.6044 611.132 35.7394V34.2689C611.132 33.4039 610.873 32.7408 610.354 32.2794C609.863 31.7893 609.186 31.5442 608.321 31.5442H600.752V38.4641ZM600.752 26.1813H607.283C608.148 26.1813 608.825 25.9362 609.316 25.446C609.806 24.9559 610.051 24.2783 610.051 23.4133V22.1158C610.051 21.2509 609.806 20.5733 609.316 20.0831C608.825 19.593 608.148 19.3479 607.283 19.3479H600.752V26.1813ZM623.025 44V13.812H643.569V19.6506H629.599V25.8353H641.579V31.6307H629.599V38.1613H643.569V44H623.025ZM661.881 19.6506V44H655.308V19.6506H647.133V13.812H670.056V19.6506H661.881ZM690.32 44L688.158 36.8206H678.081L675.918 44H669.258L679.205 13.812H687.336L697.154 44H690.32ZM683.184 19.7804H682.968L679.638 31.2415H686.558L683.184 19.7804Z" fill="#3C45B9"/>
<path d="M78.1589 135.01C74.0818 138.516 69.5154 141.207 64.4597 143.083C59.4041 144.958 54.1649 145.896 48.7423 145.896C44.5836 145.896 40.5676 145.345 36.6943 144.245C32.8618 143.185 29.2535 141.676 25.8695 139.719C22.5262 137.721 19.4684 135.336 16.6959 132.564C13.9235 129.791 11.5383 126.733 9.54053 123.39C7.5835 120.006 6.05457 116.398 4.95374 112.565C3.89368 108.692 3.36365 104.676 3.36365 100.517C3.36365 96.3585 3.89368 92.3425 4.95374 88.4692C6.05457 84.5959 7.5835 80.9877 9.54053 77.6444C11.5383 74.2604 13.9235 71.1821 16.6959 68.4097C19.4684 65.6372 22.5262 63.2725 25.8695 61.3154C29.2535 59.3176 32.8618 57.7887 36.6943 56.7286C40.5676 55.6278 44.5836 55.0774 48.7423 55.0774C54.1649 55.0774 59.4041 56.0151 64.4597 57.8906C69.5154 59.7253 74.0818 62.4163 78.1589 65.9634L68.863 81.2527C66.2944 78.4802 63.257 76.3601 59.7506 74.8923C56.2443 73.3838 52.5748 72.6295 48.7423 72.6295C44.869 72.6295 41.2404 73.3634 37.8563 74.8312C34.4723 76.299 31.5164 78.2968 28.9885 80.8246C26.4607 83.3116 24.4629 86.2676 22.9951 89.6924C21.5273 93.0764 20.7935 96.6847 20.7935 100.517C20.7935 104.35 21.5273 107.958 22.9951 111.342C24.4629 114.685 26.4607 117.621 28.9885 120.149C31.5164 122.677 34.4723 124.674 37.8563 126.142C41.2404 127.61 44.869 128.344 48.7423 128.344C52.5748 128.344 56.2443 127.61 59.7506 126.142C63.257 124.634 66.2944 122.493 68.863 119.721L78.1589 135.01ZM147.695 144H143.658L137.176 135.01C135.586 136.437 133.894 137.782 132.1 139.046C130.346 140.269 128.491 141.35 126.534 142.288C124.577 143.185 122.559 143.898 120.48 144.428C118.441 144.958 116.362 145.223 114.242 145.223C109.635 145.223 105.292 144.448 101.215 142.899C97.1788 141.35 93.6317 139.107 90.5739 136.172C87.5568 133.196 85.1716 129.567 83.4185 125.286C81.6653 121.005 80.7887 116.133 80.7887 110.669C80.7887 105.573 81.6653 100.905 83.4185 96.6643C85.1716 92.3833 87.5568 88.7139 90.5739 85.656C93.6317 82.5981 97.1788 80.2334 101.215 78.5618C105.292 76.8494 109.635 75.9932 114.242 75.9932C116.362 75.9932 118.462 76.2582 120.541 76.7882C122.62 77.3182 124.638 78.0521 126.595 78.9899C128.552 79.9276 130.408 81.0284 132.161 82.2924C133.955 83.5563 135.626 84.9221 137.176 86.3899L143.658 78.6229H147.695V144ZM130.876 110.669C130.876 108.386 130.428 106.184 129.531 104.064C128.675 101.903 127.492 100.008 125.984 98.3767C124.475 96.7051 122.702 95.38 120.663 94.4015C118.665 93.3822 116.525 92.8726 114.242 92.8726C111.958 92.8726 109.798 93.2599 107.759 94.0345C105.761 94.8092 104.008 95.9508 102.5 97.4594C101.032 98.9679 99.8698 100.843 99.0135 103.086C98.1573 105.287 97.7292 107.815 97.7292 110.669C97.7292 113.523 98.1573 116.072 99.0135 118.314C99.8698 120.516 101.032 122.371 102.5 123.879C104.008 125.388 105.761 126.529 107.759 127.304C109.798 128.079 111.958 128.466 114.242 128.466C116.525 128.466 118.665 127.977 120.663 126.998C122.702 125.979 124.475 124.654 125.984 123.023C127.492 121.351 128.675 119.456 129.531 117.335C130.428 115.175 130.876 112.953 130.876 110.669ZM243.773 144H227.138V102.413C227.138 101.271 226.914 100.191 226.465 99.1718C226.057 98.1525 225.466 97.2555 224.692 96.4808C223.917 95.7062 223.02 95.115 222.001 94.7073C220.981 94.2588 219.901 94.0345 218.759 94.0345C217.618 94.0345 216.537 94.2588 215.518 94.7073C214.54 95.115 213.663 95.7062 212.888 96.4808C212.154 97.2555 211.563 98.1525 211.115 99.1718C210.707 100.191 210.503 101.271 210.503 102.413V144H193.807V102.413C193.807 101.271 193.583 100.191 193.135 99.1718C192.727 98.1525 192.136 97.2555 191.361 96.4808C190.586 95.7062 189.689 95.115 188.67 94.7073C187.651 94.2588 186.57 94.0345 185.429 94.0345C184.287 94.0345 183.207 94.2588 182.187 94.7073C181.209 95.115 180.332 95.7062 179.558 96.4808C178.824 97.2555 178.233 98.1525 177.784 99.1718C177.376 100.191 177.172 101.271 177.172 102.413V144H160.477V78.5006H164.513L169.039 83.5155C171.363 81.5585 173.911 80.0499 176.683 78.9899C179.496 77.889 182.412 77.3386 185.429 77.3386C188.487 77.3386 191.463 77.9094 194.358 79.051C197.293 80.1926 199.862 82.17 202.063 84.9833C203.083 83.597 204.245 82.4147 205.549 81.4362C206.854 80.4576 208.22 79.6626 209.647 79.051C211.115 78.4395 212.623 78.0114 214.173 77.7667C215.722 77.4813 217.251 77.3386 218.759 77.3386C222.225 77.3386 225.466 77.991 228.483 79.2957C231.541 80.6003 234.191 82.3943 236.434 84.6775C238.717 86.9199 240.511 89.5701 241.816 92.6279C243.12 95.6858 243.773 98.9475 243.773 102.413V144ZM272.822 168.952H256.004V78.5006H260.041L266.707 86.3899C268.215 84.9629 269.866 83.6174 271.66 82.3535C273.454 81.0896 275.309 80.0092 277.226 79.1122C279.183 78.1744 281.201 77.4406 283.28 76.9105C285.36 76.3805 287.459 76.1155 289.579 76.1155C294.187 76.1155 298.508 76.9513 302.545 78.6229C306.622 80.2538 310.169 82.5778 313.186 85.5948C316.244 88.6119 318.65 92.261 320.403 96.542C322.156 100.782 323.032 105.491 323.032 110.669C323.032 116.051 322.156 120.903 320.403 125.225C318.65 129.506 316.244 133.155 313.186 136.172C310.169 139.148 306.622 141.431 302.545 143.021C298.508 144.612 294.187 145.407 289.579 145.407C288.112 145.407 286.644 145.244 285.176 144.917C283.749 144.591 282.322 144.163 280.895 143.633C279.509 143.062 278.123 142.43 276.736 141.737C275.391 141.044 274.086 140.331 272.822 139.597V168.952ZM306.275 110.669C306.275 107.897 305.827 105.41 304.93 103.208C304.074 101.006 302.891 99.1514 301.383 97.6428C299.874 96.0935 298.101 94.9111 296.062 94.0957C294.024 93.2803 291.863 92.8726 289.579 92.8726C287.296 92.8726 285.135 93.2803 283.097 94.0957C281.099 94.9111 279.346 96.0935 277.837 97.6428C276.329 99.1514 275.126 101.006 274.229 103.208C273.373 105.41 272.945 107.897 272.945 110.669C272.945 113.319 273.373 115.745 274.229 117.947C275.126 120.149 276.329 122.024 277.837 123.573C279.346 125.123 281.099 126.326 283.097 127.182C285.135 128.038 287.296 128.466 289.579 128.466C291.863 128.466 294.024 128.038 296.062 127.182C298.101 126.326 299.874 125.123 301.383 123.573C302.891 122.024 304.074 120.149 304.93 117.947C305.827 115.745 306.275 113.319 306.275 110.669ZM380.459 136.355C379.114 137.578 377.666 138.74 376.117 139.841C374.608 140.901 373.018 141.839 371.347 142.655C369.675 143.429 367.942 144.041 366.148 144.489C364.395 144.979 362.601 145.223 360.766 145.223C356.73 145.223 352.938 144.51 349.391 143.083C345.844 141.656 342.725 139.637 340.034 137.028C337.384 134.378 335.284 131.177 333.735 127.426C332.226 123.635 331.472 119.394 331.472 114.706V78.5006H348.107V114.706C348.107 116.907 348.433 118.885 349.085 120.638C349.779 122.35 350.696 123.798 351.838 124.98C352.979 126.162 354.304 127.059 355.813 127.671C357.362 128.283 359.013 128.588 360.766 128.588C362.479 128.588 364.089 128.201 365.598 127.426C367.147 126.611 368.493 125.551 369.634 124.246C370.776 122.942 371.673 121.474 372.325 119.843C372.978 118.171 373.304 116.459 373.304 114.706V78.5006H390V144H385.963L380.459 136.355ZM438.742 144H400.58V127.365H438.742C439.884 127.365 440.862 126.958 441.677 126.142C442.493 125.327 442.901 124.348 442.901 123.207C442.901 122.024 442.493 121.25 441.677 120.883C440.862 120.516 439.884 120.332 438.742 120.332H421.373C418.479 120.332 415.767 119.782 413.239 118.681C410.712 117.58 408.51 116.092 406.634 114.216C404.759 112.3 403.271 110.078 402.17 107.55C401.11 105.022 400.58 102.311 400.58 99.4164C400.58 96.5216 401.11 93.8103 402.17 91.2825C403.271 88.7546 404.759 86.553 406.634 84.6775C408.51 82.802 410.712 81.3342 413.239 80.2742C415.767 79.1733 418.479 78.6229 421.373 78.6229H455.193V95.2577H421.373C420.232 95.2577 419.253 95.6654 418.438 96.4808C417.622 97.2963 417.215 98.2748 417.215 99.4164C417.215 100.599 417.622 101.618 418.438 102.474C419.253 103.29 420.232 103.697 421.373 103.697H438.742C441.596 103.697 444.287 104.187 446.815 105.165C449.343 106.103 451.544 107.428 453.42 109.14C455.295 110.853 456.783 112.912 457.884 115.317C458.985 117.723 459.535 120.353 459.535 123.207C459.535 126.101 458.985 128.813 457.884 131.34C456.783 133.828 455.295 136.029 453.42 137.945C451.544 139.821 449.343 141.309 446.815 142.41C444.287 143.47 441.596 144 438.742 144ZM556.959 108.957V91.4048C556.959 88.9993 556.49 86.7365 555.552 84.6163C554.655 82.4554 553.412 80.58 551.822 78.9899C550.232 77.3998 548.356 76.1562 546.195 75.2593C544.075 74.3215 541.812 73.8527 539.407 73.8527C537.001 73.8527 534.718 74.3215 532.557 75.2593C530.437 76.1562 528.582 77.3998 526.992 78.9899C525.402 80.58 524.138 82.4554 523.2 84.6163C522.303 86.7365 521.855 88.9993 521.855 91.4048V108.957H556.959ZM574.511 144H556.959V126.448H521.855V144H504.364V91.4048C504.364 86.553 505.281 82.007 507.116 77.7667C508.95 73.4857 511.438 69.7551 514.577 66.575C517.757 63.3948 521.467 60.8873 525.708 59.0526C529.989 57.2179 534.555 56.3005 539.407 56.3005C544.259 56.3005 548.805 57.2179 553.045 59.0526C557.326 60.8873 561.056 63.3948 564.237 66.575C567.417 69.7551 569.924 73.4857 571.759 77.7667C573.594 82.007 574.511 86.553 574.511 91.4048V144ZM604.661 144H587.966V78.5006H592.002L597.506 86.2676C600.197 83.8213 603.255 81.9458 606.68 80.6411C610.104 79.2957 613.652 78.6229 617.321 78.6229H632.06V95.2577H617.321C615.568 95.2577 613.917 95.5839 612.367 96.2362C610.818 96.8885 609.473 97.7855 608.331 98.9271C607.189 100.069 606.292 101.414 605.64 102.964C604.988 104.513 604.661 106.164 604.661 107.917V144ZM695.847 91.5271L683.615 103.82C683.004 102.107 682.168 100.578 681.108 99.2329C680.048 97.8467 678.845 96.6847 677.5 95.7469C676.195 94.8092 674.768 94.0957 673.219 93.6064C671.669 93.1172 670.079 92.8726 668.448 92.8726C666.165 92.8726 664.004 93.3414 661.966 94.2792C659.968 95.2169 658.215 96.542 656.706 98.2544C655.239 99.926 654.077 101.924 653.22 104.248C652.364 106.572 651.936 109.14 651.936 111.954C651.936 114.237 652.364 116.377 653.22 118.375C654.077 120.373 655.239 122.126 656.706 123.635C658.215 125.143 659.968 126.326 661.966 127.182C664.004 128.038 666.165 128.466 668.448 128.466C670.079 128.466 671.649 128.242 673.158 127.793C674.666 127.345 676.073 126.713 677.377 125.897C678.723 125.041 679.905 124.022 680.925 122.84C681.985 121.616 682.841 120.271 683.493 118.803L695.725 131.096C694.175 133.297 692.381 135.275 690.343 137.028C688.345 138.781 686.164 140.269 683.799 141.493C681.475 142.716 679.008 143.633 676.399 144.245C673.83 144.897 671.18 145.223 668.448 145.223C663.841 145.223 659.499 144.367 655.422 142.655C651.386 140.901 647.839 138.516 644.781 135.499C641.764 132.482 639.378 128.955 637.625 124.919C635.872 120.883 634.995 116.561 634.995 111.954C634.995 106.939 635.872 102.25 637.625 97.8875C639.378 93.5249 641.764 89.7332 644.781 86.5122C647.839 83.2505 651.386 80.6819 655.422 78.8064C659.499 76.9309 663.841 75.9932 668.448 75.9932C671.18 75.9932 673.851 76.3397 676.46 77.0328C679.11 77.726 681.618 78.7452 683.982 80.0907C686.388 81.3954 688.59 83.0059 690.587 84.9221C692.626 86.8384 694.379 89.04 695.847 91.5271Z" fill="black"/>
</svg>
