<svg xmlns="http://www.w3.org/2000/svg" xmlns:xlink="http://www.w3.org/1999/xlink" width="900" zoomAndPan="magnify" viewBox="0 0 675 599.999999" height="800" preserveAspectRatio="xMidYMid meet" version="1.0"><defs><clipPath id="21cf20da97"><path d="M 598 597 L 671.753906 597 L 671.753906 600 L 598 600 Z M 598 597 " clip-rule="nonzero"/></clipPath><clipPath id="ba7c826fb3"><path d="M 3.503906 556 L 78 556 L 78 559 L 3.503906 559 Z M 3.503906 556 " clip-rule="nonzero"/></clipPath></defs><path fill="#000000" d="M 634.871094 578.933594 L 54.203125 578.933594 C 53.640625 578.933594 53.148438 578.441406 53.148438 577.882812 C 53.148438 577.320312 53.640625 576.828125 54.203125 576.828125 L 634.871094 576.828125 C 635.433594 576.828125 635.921875 577.320312 635.921875 577.882812 C 635.921875 578.441406 635.433594 578.933594 634.871094 578.933594 Z M 634.871094 578.933594 " fill-opacity="1" fill-rule="nonzero"/><g clip-path="url(#21cf20da97)"><path fill="#000000" d="M 670.703125 599.890625 L 599.179688 599.890625 C 598.617188 599.890625 598.128906 599.398438 598.128906 598.839844 C 598.128906 598.277344 598.617188 597.789062 599.179688 597.789062 L 670.703125 597.789062 C 671.265625 597.789062 671.753906 598.277344 671.753906 598.839844 C 671.753906 599.398438 671.265625 599.890625 670.703125 599.890625 Z M 670.703125 599.890625 " fill-opacity="1" fill-rule="nonzero"/></g><g clip-path="url(#ba7c826fb3)"><path fill="#000000" d="M 76.78125 558.535156 L 4.554688 558.535156 C 3.996094 558.535156 3.503906 558.046875 3.503906 557.484375 C 3.503906 556.921875 3.996094 556.433594 4.554688 556.433594 L 76.78125 556.433594 C 77.339844 556.433594 77.832031 556.921875 77.832031 557.484375 C 77.832031 558.046875 77.339844 558.535156 76.78125 558.535156 Z M 76.78125 558.535156 " fill-opacity="1" fill-rule="nonzero"/></g><path fill="#000000" d="M 80.847656 140.785156 C 80.777344 140.785156 80.777344 140.785156 80.707031 140.785156 C 80.148438 140.714844 79.726562 140.15625 79.796875 139.59375 C 82.671875 120.457031 95.574219 107.421875 105.878906 99.851562 C 112.613281 94.875 119.976562 90.878906 127.757812 87.867188 C 128.320312 87.65625 128.878906 87.933594 129.089844 88.496094 C 129.300781 89.058594 129.019531 89.617188 128.460938 89.828125 C 128.039062 89.96875 87.160156 104.617188 81.898438 139.875 C 81.757812 140.433594 81.339844 140.785156 80.847656 140.785156 Z M 80.847656 140.785156 " fill-opacity="1" fill-rule="nonzero"/><path fill="#d9cfff" d="M 91.996094 167.140625 L 81.757812 165.808594 C 80.007812 165.597656 78.183594 165.878906 76.570312 166.789062 L 67.523438 171.695312 C 63.386719 173.9375 58.199219 172.398438 55.886719 168.261719 C 55.464844 167.492188 55.183594 166.648438 54.972656 165.738281 L 53.078125 155.644531 C 52.730469 153.890625 51.886719 152.28125 50.554688 151.019531 L 43.121094 143.9375 C 39.6875 140.644531 39.546875 135.246094 42.84375 131.8125 C 43.472656 131.183594 44.175781 130.621094 44.945312 130.203125 L 53.992188 125.292969 C 55.605469 124.453125 56.867188 123.121094 57.636719 121.441406 L 62.054688 112.1875 C 64.089844 107.910156 69.207031 106.089844 73.484375 108.121094 C 74.328125 108.542969 75.027344 109.035156 75.730469 109.664062 L 83.230469 116.742188 C 84.5625 118.003906 86.175781 118.777344 88 118.988281 L 98.167969 120.316406 C 102.867188 120.949219 106.160156 125.226562 105.53125 129.921875 C 105.390625 130.832031 105.179688 131.671875 104.757812 132.445312 L 100.339844 141.765625 C 99.570312 143.378906 99.289062 145.199219 99.640625 146.953125 L 101.535156 157.046875 C 102.375 161.671875 99.289062 166.160156 94.660156 167 C 93.820312 167.210938 92.910156 167.28125 91.996094 167.140625 Z M 91.996094 167.140625 " fill-opacity="1" fill-rule="nonzero"/><path fill="#000000" d="M 69.839844 107.28125 C 72.011719 107.28125 74.117188 108.121094 75.730469 109.59375 L 83.230469 116.671875 C 84.5625 117.933594 86.175781 118.707031 88 118.917969 L 98.238281 120.25 C 102.9375 120.878906 106.230469 125.15625 105.601562 129.851562 C 105.460938 130.761719 105.25 131.601562 104.828125 132.375 L 100.410156 141.695312 C 99.640625 143.308594 99.359375 145.132812 99.710938 146.882812 L 101.601562 156.976562 C 102.445312 161.601562 99.359375 166.089844 94.730469 166.929688 C 94.242188 167 93.679688 167.070312 93.1875 167.070312 C 92.839844 167.070312 92.417969 167.070312 92.066406 167 L 81.828125 165.667969 C 81.480469 165.597656 81.128906 165.597656 80.707031 165.597656 C 79.304688 165.597656 77.902344 165.949219 76.640625 166.648438 L 67.59375 171.554688 C 66.332031 172.257812 64.929688 172.605469 63.527344 172.605469 C 59.390625 172.605469 55.886719 169.664062 55.113281 165.597656 L 53.21875 155.503906 C 52.871094 153.753906 52.027344 152.140625 50.695312 150.878906 L 43.191406 143.800781 C 39.757812 140.503906 39.617188 135.109375 42.914062 131.671875 C 43.542969 131.042969 44.246094 130.480469 45.015625 130.0625 L 54.0625 125.15625 C 55.675781 124.3125 56.9375 122.980469 57.707031 121.300781 L 62.125 112.046875 C 63.457031 109.171875 66.542969 107.28125 69.839844 107.28125 M 69.839844 105.179688 C 65.703125 105.179688 61.914062 107.492188 60.164062 111.277344 L 55.746094 120.527344 C 55.183594 121.71875 54.203125 122.769531 53.011719 123.402344 L 43.964844 128.308594 C 38.773438 131.113281 36.882812 137.632812 39.757812 142.816406 C 40.316406 143.800781 40.949219 144.640625 41.789062 145.410156 L 49.222656 152.492188 C 50.203125 153.402344 50.90625 154.664062 51.117188 155.996094 L 53.011719 166.089844 C 54.0625 171.90625 59.671875 175.691406 65.421875 174.640625 C 66.542969 174.429688 67.59375 174.078125 68.578125 173.519531 L 77.621094 168.613281 C 78.535156 168.121094 79.65625 167.839844 80.707031 167.839844 C 80.988281 167.839844 81.269531 167.839844 81.550781 167.910156 L 91.785156 169.242188 C 92.277344 169.3125 92.699219 169.3125 93.1875 169.3125 C 99.078125 169.3125 103.847656 164.476562 103.847656 158.589844 C 103.847656 157.957031 103.777344 157.328125 103.636719 156.695312 L 101.742188 146.601562 C 101.464844 145.269531 101.671875 143.871094 102.234375 142.675781 L 106.652344 133.355469 C 109.175781 128.027344 106.863281 121.648438 101.535156 119.125 C 100.550781 118.636719 99.5 118.355469 98.378906 118.214844 L 88.140625 116.882812 C 86.808594 116.671875 85.546875 116.113281 84.5625 115.203125 L 77.132812 108.050781 C 75.167969 106.230469 72.574219 105.179688 69.839844 105.179688 Z M 69.839844 105.179688 " fill-opacity="1" fill-rule="nonzero"/><path fill="#000000" d="M 67.175781 133.566406 C 66.542969 133.566406 66.121094 133.003906 66.121094 132.445312 C 67.316406 112.609375 84.84375 85.132812 118.363281 50.925781 C 134.210938 34.875 150.898438 19.664062 168.359375 5.4375 C 168.777344 5.085938 169.480469 5.15625 169.832031 5.578125 C 170.179688 5.996094 170.113281 6.699219 169.691406 7.050781 C 168.710938 7.820312 70.960938 86.324219 68.296875 132.585938 C 68.226562 133.144531 67.804688 133.566406 67.175781 133.566406 Z M 67.175781 133.566406 " fill-opacity="1" fill-rule="nonzero"/><path fill="#ffad00" d="M 312.945312 93.121094 C 312.945312 64.035156 344.429688 40.414062 383.207031 40.414062 C 421.984375 40.414062 453.46875 64.035156 453.46875 93.121094 C 453.46875 122.210938 421.984375 145.832031 383.207031 145.832031 C 378.441406 145.832031 373.742188 145.480469 369.042969 144.78125 L 353.125 160.199219 L 349.410156 139.3125 C 327.671875 130.339844 312.945312 113.027344 312.945312 93.121094 Z M 312.945312 93.121094 " fill-opacity="1" fill-rule="nonzero"/><path fill="#000000" d="M 353.125 161.253906 C 352.636719 161.253906 352.214844 160.902344 352.074219 160.410156 L 348.429688 140.085938 C 325.847656 130.550781 311.894531 112.609375 311.894531 93.121094 C 311.894531 63.472656 343.871094 39.363281 383.207031 39.363281 C 422.546875 39.363281 454.519531 63.472656 454.519531 93.121094 C 454.519531 122.769531 422.546875 146.882812 383.207031 146.882812 C 378.582031 146.882812 373.953125 146.53125 369.394531 145.902344 L 353.828125 160.972656 C 353.6875 161.183594 353.40625 161.253906 353.125 161.253906 Z M 383.207031 41.394531 C 345.0625 41.394531 314 64.59375 314 93.050781 C 314 111.835938 327.671875 129.148438 349.761719 138.261719 C 350.109375 138.402344 350.320312 138.683594 350.390625 139.03125 L 353.757812 157.957031 L 368.273438 143.871094 C 368.484375 143.660156 368.832031 143.519531 369.183594 143.589844 C 373.8125 144.289062 378.511719 144.640625 383.207031 144.640625 C 421.355469 144.640625 452.417969 121.441406 452.417969 92.980469 C 452.417969 64.523438 421.425781 41.464844 383.207031 41.394531 Z M 383.207031 41.394531 " fill-opacity="1" fill-rule="nonzero"/><path fill="#ffffff" d="M 335.316406 118.144531 C 333.84375 116.601562 332.441406 114.992188 331.25 113.167969 C 330.058594 111.417969 329.003906 109.59375 328.09375 107.632812 C 327.953125 107.351562 327.882812 107.140625 327.742188 106.859375 L 327.601562 106.441406 C 327.671875 106.648438 327.601562 106.441406 327.601562 106.371094 C 327.390625 105.878906 327.183594 105.320312 326.972656 104.828125 C 326.621094 103.847656 326.269531 102.796875 325.988281 101.742188 C 325.710938 100.691406 325.5 99.710938 325.289062 98.660156 C 325.21875 98.449219 325.21875 98.238281 325.148438 97.957031 L 325.078125 97.539062 C 325.078125 97.539062 325.007812 97.046875 325.078125 97.328125 C 325.007812 96.765625 324.9375 96.277344 324.9375 95.714844 C 324.726562 93.613281 324.796875 91.511719 325.007812 89.40625 C 325.007812 89.195312 325.078125 88.917969 325.078125 88.707031 L 325.148438 88.355469 C 325.078125 88.636719 325.148438 88.214844 325.148438 88.214844 C 325.21875 87.726562 325.289062 87.164062 325.429688 86.671875 C 325.640625 85.691406 325.847656 84.710938 326.128906 83.800781 C 326.410156 82.890625 326.691406 81.90625 327.042969 80.996094 C 327.113281 80.714844 327.25 80.503906 327.320312 80.226562 L 327.460938 79.945312 C 327.460938 79.875 327.601562 79.59375 327.53125 79.875 C 327.742188 79.382812 327.953125 78.894531 328.164062 78.402344 C 329.074219 76.582031 330.058594 74.757812 331.25 73.074219 C 332.511719 71.183594 333.984375 69.429688 335.527344 67.890625 C 336.367188 67.046875 337.207031 66.207031 338.121094 65.4375 C 339.101562 64.59375 339.804688 64.035156 340.855469 63.332031 C 341.484375 62.914062 341.765625 62.070312 341.347656 61.441406 C 340.925781 60.738281 340.082031 60.53125 339.453125 60.949219 C 332.160156 66.066406 326.761719 73.285156 323.886719 81.695312 C 321.152344 90.039062 321.570312 99.148438 324.9375 107.28125 C 326.902344 112.046875 329.777344 116.464844 333.421875 120.109375 C 333.984375 120.667969 334.824219 120.667969 335.386719 120.109375 C 335.875 119.617188 335.875 118.777344 335.316406 118.144531 Z M 335.316406 118.144531 " fill-opacity="1" fill-rule="nonzero"/><path fill="#000000" d="M 406.910156 63.191406 C 406.347656 63.191406 405.855469 62.773438 405.855469 62.140625 C 405.855469 61.511719 406.277344 61.089844 406.910156 61.089844 C 436.21875 59.128906 459.921875 42.867188 474.574219 29.546875 C 484.113281 20.996094 492.597656 11.324219 499.820312 0.742188 C 500.097656 0.25 500.800781 0.109375 501.292969 0.390625 C 501.78125 0.671875 501.921875 1.371094 501.640625 1.863281 C 494.347656 12.585938 485.722656 22.398438 476.117188 31.089844 C 461.183594 44.617188 436.992188 61.230469 407.121094 63.191406 Z M 406.910156 63.191406 " fill-opacity="1" fill-rule="nonzero"/><path fill="#000000" d="M 442.109375 86.113281 C 440.355469 86.113281 438.601562 86.042969 436.78125 85.832031 C 436.21875 85.761719 435.796875 85.273438 435.796875 84.710938 C 435.867188 84.152344 436.359375 83.730469 436.921875 83.730469 C 470.367188 86.953125 487.898438 57.375 488.109375 57.09375 C 488.390625 56.605469 489.019531 56.394531 489.511719 56.746094 C 490 57.09375 490.210938 57.65625 489.863281 58.144531 C 489.792969 58.425781 473.453125 86.113281 442.109375 86.113281 Z M 442.109375 86.113281 " fill-opacity="1" fill-rule="nonzero"/><path fill="#ffffff" d="M 406.699219 122.070312 C 405.996094 122.070312 405.296875 121.789062 404.804688 121.230469 L 363.082031 73.144531 C 362.171875 72.164062 362.242188 70.621094 363.222656 69.710938 C 364.207031 68.800781 365.75 68.871094 366.660156 69.851562 C 366.730469 69.921875 366.730469 69.921875 366.800781 69.992188 L 408.523438 118.074219 C 409.433594 119.125 409.292969 120.667969 408.242188 121.578125 C 407.820312 121.859375 407.257812 122.070312 406.699219 122.070312 Z M 406.699219 122.070312 " fill-opacity="1" fill-rule="nonzero"/><path fill="#ffffff" d="M 364.976562 118.425781 C 363.644531 118.425781 362.523438 117.375 362.523438 115.972656 C 362.523438 115.339844 362.734375 114.710938 363.222656 114.289062 L 404.945312 69.851562 C 405.925781 68.871094 407.46875 68.871094 408.382812 69.851562 C 409.292969 70.761719 409.363281 72.234375 408.523438 73.214844 L 366.730469 117.65625 C 366.308594 118.144531 365.679688 118.425781 364.976562 118.425781 Z M 364.976562 118.425781 " fill-opacity="1" fill-rule="nonzero"/><path fill="#000000" d="M 34.429688 456.761719 C 34.007812 456.761719 33.585938 456.480469 33.445312 456.128906 C 12.621094 404.332031 15.074219 365.78125 20.894531 342.582031 C 27.136719 317.347656 38.214844 304.519531 38.707031 303.960938 C 39.125 303.539062 39.757812 303.46875 40.179688 303.890625 C 40.597656 304.3125 40.667969 304.941406 40.246094 305.363281 C 40.109375 305.503906 29.027344 318.398438 22.859375 343.210938 C 17.179688 366.132812 14.792969 404.191406 35.410156 455.289062 C 35.621094 455.851562 35.410156 456.480469 34.847656 456.691406 C 34.707031 456.761719 34.566406 456.761719 34.429688 456.761719 Z M 34.429688 456.761719 " fill-opacity="1" fill-rule="nonzero"/><path fill="#6c32ad" d="M 445.6875 216.273438 C 346.605469 230.714844 375.773438 240.386719 266.667969 190.902344 C 205.59375 163.144531 128.109375 186.484375 100.550781 249.777344 C 80.847656 295.058594 27.835938 320.570312 34.707031 393.257812 C 47.050781 523.347656 131.546875 576.550781 131.546875 576.550781 L 507.109375 570.3125 Z M 445.6875 216.273438 " fill-opacity="1" fill-rule="nonzero"/><path fill="#000000" d="M 213.023438 179.40625 C 231.535156 179.40625 249.839844 183.332031 266.738281 190.902344 C 328.375 218.867188 345.902344 227.910156 367.289062 227.910156 C 383.769531 227.910156 402.632812 222.511719 445.753906 216.273438 L 507.25 570.382812 L 131.683594 576.621094 C 131.683594 576.621094 47.191406 523.417969 34.847656 393.328125 C 27.976562 320.640625 80.988281 295.058594 100.691406 249.847656 C 120.464844 204.289062 166.113281 179.40625 213.023438 179.40625 M 213.023438 177.304688 C 189.324219 177.234375 165.972656 183.542969 145.640625 195.738281 C 124.8125 208.144531 108.40625 226.789062 98.730469 249.007812 C 92.277344 263.867188 82.179688 276.484375 71.523438 289.800781 C 61.003906 302.980469 50.136719 316.648438 42.492188 333.046875 C 33.867188 351.691406 30.640625 371.460938 32.746094 393.539062 C 35.550781 423.398438 42.492188 451.714844 53.21875 477.648438 C 61.632812 498.117188 72.714844 517.390625 86.175781 535.054688 C 108.824219 564.5625 129.652344 577.882812 130.5625 578.441406 C 130.914062 578.652344 131.265625 578.792969 131.683594 578.792969 L 507.25 572.554688 C 508.445312 572.554688 509.355469 571.574219 509.285156 570.382812 C 509.285156 570.242188 509.285156 570.171875 509.285156 570.03125 L 447.859375 215.996094 C 447.71875 215.011719 446.808594 214.242188 445.753906 214.242188 C 445.6875 214.242188 445.546875 214.242188 445.476562 214.242188 C 427.804688 216.835938 414.203125 219.21875 403.261719 221.179688 C 387.414062 223.984375 376.96875 225.878906 367.359375 225.878906 C 348.570312 225.878906 332.511719 218.585938 284.96875 196.859375 L 267.71875 189.007812 C 250.398438 181.226562 231.816406 177.234375 213.023438 177.304688 Z M 213.023438 177.304688 " fill-opacity="1" fill-rule="nonzero"/><path fill="#ffad00" d="M 196.195312 577.25 C 196.195312 577.25 280.199219 454.378906 450.101562 453.1875 C 624.984375 451.925781 606.824219 578.511719 606.824219 578.511719 Z M 196.195312 577.25 " fill-opacity="1" fill-rule="nonzero"/><path fill="#000000" d="M 606.824219 579.5625 L 196.195312 578.300781 C 195.636719 578.300781 195.144531 577.8125 195.144531 577.25 C 195.144531 577.039062 195.214844 576.828125 195.355469 576.691406 C 195.566406 576.410156 216.953125 545.5 258.8125 514.867188 C 283.214844 496.996094 310.003906 482.625 338.402344 472.113281 C 373.671875 459.144531 411.257812 452.414062 450.101562 452.136719 C 511.597656 451.644531 556.125 466.855469 582.632812 497.136719 C 614.046875 533.09375 607.945312 578.160156 607.875 578.652344 C 607.804688 579.144531 607.3125 579.5625 606.824219 579.5625 Z M 198.230469 576.199219 L 605.839844 577.460938 C 606.542969 570.941406 609.277344 530.917969 580.949219 498.535156 C 554.863281 468.746094 510.828125 453.816406 450.101562 454.238281 C 362.59375 454.871094 298.433594 488.445312 260.078125 516.550781 C 223.894531 542.90625 203.207031 569.46875 198.230469 576.199219 Z M 198.230469 576.199219 " fill-opacity="1" fill-rule="nonzero"/><path fill="#ffffff" d="M 412.800781 455.429688 C 412.800781 455.429688 389.589844 487.8125 419.8125 498.398438 C 450.03125 508.980469 477.03125 483.886719 477.03125 483.886719 C 477.03125 483.886719 482.640625 513.957031 529.691406 503.304688 C 576.742188 492.648438 532.425781 463.699219 532.425781 463.699219 C 532.425781 463.699219 490.28125 447.019531 412.800781 455.429688 Z M 412.800781 455.429688 " fill-opacity="1" fill-rule="nonzero"/><path fill="#000000" d="M 511.109375 506.667969 C 501.851562 506.667969 494.140625 504.632812 488.039062 500.640625 C 482.640625 497.136719 478.503906 491.878906 476.46875 485.78125 C 470.648438 490.546875 446.246094 508.699219 419.53125 499.378906 C 411.398438 496.574219 406.277344 491.878906 404.246094 485.5 C 399.898438 471.902344 411.535156 455.5 412.027344 454.800781 C 412.167969 454.589844 412.449219 454.378906 412.800781 454.378906 C 489.652344 446.039062 532.496094 462.578125 532.914062 462.789062 C 532.984375 462.789062 533.054688 462.859375 533.125 462.859375 C 534.039062 463.421875 554.582031 477.019531 552.339844 489.566406 C 551.148438 496.292969 543.644531 501.269531 530.039062 504.355469 C 523.730469 505.828125 517.417969 506.597656 511.109375 506.667969 Z M 477.03125 482.835938 C 477.519531 482.835938 478.011719 483.1875 478.082031 483.675781 C 479.765625 489.984375 483.761719 495.382812 489.230469 498.886719 C 498.695312 505.054688 512.230469 506.175781 529.480469 502.320312 C 542.171875 499.449219 549.113281 495.03125 550.164062 489.214844 C 552.128906 478.421875 533.40625 465.664062 531.933594 464.683594 C 529.621094 463.769531 487.617188 448.492188 413.429688 456.410156 C 411.746094 458.933594 402.5625 473.375 406.207031 484.867188 C 408.03125 490.546875 412.730469 494.75 420.160156 497.34375 C 424.929688 499.027344 429.980469 499.867188 435.097656 499.867188 C 457.886719 499.867188 476.117188 483.257812 476.328125 483.046875 C 476.539062 482.90625 476.75 482.835938 477.03125 482.835938 Z M 477.03125 482.835938 " fill-opacity="1" fill-rule="nonzero"/><path fill="#6c32ad" d="M 638.167969 207.722656 C 638.167969 209.515625 638.078125 211.304688 637.902344 213.089844 C 637.726562 214.875 637.464844 216.644531 637.113281 218.402344 C 636.765625 220.160156 636.328125 221.898438 635.808594 223.613281 C 635.289062 225.328125 634.683594 227.015625 634 228.671875 C 633.3125 230.328125 632.546875 231.949219 631.699219 233.527344 C 630.855469 235.109375 629.933594 236.644531 628.9375 238.136719 C 627.941406 239.628906 626.875 241.066406 625.734375 242.453125 C 624.597656 243.835938 623.394531 245.164062 622.125 246.433594 C 620.859375 247.699219 619.53125 248.902344 618.144531 250.039062 C 616.757812 251.175781 615.320312 252.242188 613.828125 253.238281 C 612.335938 254.234375 610.800781 255.15625 609.21875 256 C 607.636719 256.847656 606.015625 257.613281 604.359375 258.296875 C 602.703125 258.984375 601.015625 259.585938 599.300781 260.109375 C 597.582031 260.628906 595.84375 261.0625 594.085938 261.414062 C 592.328125 261.761719 590.554688 262.027344 588.769531 262.203125 C 586.984375 262.378906 585.195312 262.464844 583.402344 262.464844 C 581.609375 262.464844 579.820312 262.378906 578.035156 262.203125 C 576.25 262.027344 574.476562 261.761719 572.71875 261.414062 C 570.960938 261.0625 569.222656 260.628906 567.503906 260.109375 C 565.789062 259.585938 564.101562 258.984375 562.445312 258.296875 C 560.789062 257.613281 559.167969 256.847656 557.585938 256 C 556.003906 255.15625 554.46875 254.234375 552.976562 253.238281 C 551.484375 252.242188 550.046875 251.175781 548.660156 250.039062 C 547.273438 248.902344 545.945312 247.699219 544.679688 246.433594 C 543.410156 245.164062 542.207031 243.835938 541.070312 242.453125 C 539.929688 241.066406 538.863281 239.628906 537.867188 238.136719 C 536.871094 236.644531 535.949219 235.109375 535.105469 233.527344 C 534.257812 231.949219 533.492188 230.328125 532.808594 228.671875 C 532.121094 227.015625 531.515625 225.328125 530.996094 223.613281 C 530.476562 221.898438 530.039062 220.160156 529.691406 218.402344 C 529.339844 216.644531 529.078125 214.875 528.902344 213.089844 C 528.726562 211.304688 528.636719 209.515625 528.636719 207.722656 C 528.636719 205.929688 528.726562 204.140625 528.902344 202.359375 C 529.078125 200.574219 529.339844 198.800781 529.691406 197.042969 C 530.039062 195.285156 530.476562 193.546875 530.996094 191.832031 C 531.515625 190.117188 532.121094 188.429688 532.808594 186.773438 C 533.492188 185.117188 534.257812 183.5 535.105469 181.917969 C 535.949219 180.335938 536.871094 178.800781 537.867188 177.308594 C 538.863281 175.820312 539.929688 174.382812 541.070312 172.996094 C 542.207031 171.609375 543.410156 170.28125 544.679688 169.015625 C 545.945312 167.746094 547.273438 166.542969 548.660156 165.40625 C 550.046875 164.269531 551.484375 163.203125 552.976562 162.207031 C 554.46875 161.210938 556.003906 160.289062 557.585938 159.445312 C 559.167969 158.601562 560.789062 157.835938 562.445312 157.148438 C 564.101562 156.460938 565.789062 155.859375 567.503906 155.339844 C 569.222656 154.816406 570.960938 154.382812 572.71875 154.03125 C 574.476562 153.683594 576.25 153.421875 578.035156 153.246094 C 579.820312 153.070312 581.609375 152.980469 583.402344 152.980469 C 585.195312 152.980469 586.984375 153.070312 588.769531 153.246094 C 590.554688 153.421875 592.328125 153.683594 594.085938 154.03125 C 595.84375 154.382812 597.582031 154.816406 599.300781 155.339844 C 601.015625 155.859375 602.703125 156.460938 604.359375 157.148438 C 606.015625 157.835938 607.636719 158.601562 609.21875 159.445312 C 610.800781 160.289062 612.335938 161.210938 613.828125 162.207031 C 615.320312 163.203125 616.757812 164.269531 618.144531 165.40625 C 619.53125 166.542969 620.859375 167.746094 622.125 169.015625 C 623.394531 170.28125 624.597656 171.609375 625.734375 172.996094 C 626.875 174.382812 627.941406 175.820312 628.9375 177.308594 C 629.933594 178.800781 630.855469 180.335938 631.699219 181.917969 C 632.546875 183.5 633.3125 185.117188 634 186.773438 C 634.683594 188.429688 635.289062 190.117188 635.808594 191.832031 C 636.328125 193.546875 636.765625 195.285156 637.113281 197.042969 C 637.464844 198.800781 637.726562 200.574219 637.902344 202.359375 C 638.078125 204.140625 638.167969 205.929688 638.167969 207.722656 Z M 638.167969 207.722656 " fill-opacity="1" fill-rule="nonzero"/><path fill="#000000" d="M 583.402344 152.980469 C 613.625 153.050781 638.097656 177.582031 638.027344 207.792969 C 637.957031 237.371094 614.394531 261.554688 584.804688 262.394531 C 584.3125 262.394531 583.824219 262.394531 583.332031 262.394531 C 553.109375 262.324219 528.636719 237.792969 528.707031 207.582031 C 528.777344 178.003906 552.339844 153.824219 581.929688 152.980469 C 582.421875 152.980469 582.910156 152.980469 583.402344 152.980469 M 583.402344 150.878906 C 582.910156 150.878906 582.351562 150.878906 581.859375 150.878906 C 550.445312 151.71875 525.691406 177.863281 526.605469 209.265625 C 527.445312 240.035156 552.621094 264.5 583.332031 264.566406 L 584.875 264.566406 C 616.289062 263.726562 641.042969 237.582031 640.128906 206.179688 C 639.359375 175.410156 614.1875 150.878906 583.402344 150.878906 Z M 583.402344 150.878906 " fill-opacity="1" fill-rule="nonzero"/><path fill="#6c32ad" d="M 372.480469 296.390625 C 372.480469 296.390625 352.144531 250.269531 381.386719 226.296875 C 410.625 202.328125 417.425781 208.773438 432.011719 195.105469 C 446.597656 181.4375 484.671875 178.773438 508.445312 199.734375 C 508.445312 199.734375 554.652344 190.199219 581.789062 212.699219 C 608.925781 235.199219 612.851562 255.035156 610.257812 283.28125 C 607.664062 311.53125 611.378906 326.390625 610.257812 346.296875 C 609.136719 366.203125 597.074219 418.070312 515.105469 421.855469 C 433.132812 425.640625 372.480469 296.390625 372.480469 296.390625 Z M 372.480469 296.390625 " fill-opacity="1" fill-rule="nonzero"/><path fill="#000000" d="M 465.601562 184.453125 C 480.253906 184.453125 496.242188 189.007812 508.515625 199.734375 C 516.015625 198.402344 523.660156 197.699219 531.304688 197.699219 C 546.800781 197.699219 567.132812 200.503906 581.859375 212.699219 C 608.996094 235.199219 612.851562 255.035156 610.257812 283.28125 C 607.664062 311.53125 611.378906 326.390625 610.257812 346.296875 C 609.136719 366.203125 597.074219 418.070312 515.105469 421.855469 C 513.914062 421.925781 512.722656 421.925781 511.597656 421.925781 C 431.382812 421.996094 372.480469 296.390625 372.480469 296.390625 C 372.480469 296.390625 352.144531 250.269531 381.386719 226.296875 C 410.625 202.328125 417.425781 208.773438 432.011719 195.105469 C 439.09375 188.449219 451.714844 184.453125 465.601562 184.453125 M 465.601562 182.351562 C 451.226562 182.351562 438.113281 186.554688 430.609375 193.566406 C 424.367188 199.382812 419.671875 201.414062 413.710938 203.9375 C 406.066406 207.164062 396.53125 211.226562 380.050781 224.6875 C 367.570312 234.988281 361.960938 250.898438 363.925781 270.597656 C 364.835938 279.777344 367.152344 288.75 370.585938 297.300781 L 370.585938 297.371094 C 381.664062 319.730469 394.988281 340.898438 410.273438 360.59375 C 424.789062 378.960938 439.726562 393.679688 454.800781 404.191406 C 473.734375 417.441406 492.808594 424.167969 511.597656 424.167969 C 512.792969 424.167969 514.054688 424.167969 515.246094 424.097656 C 551.21875 422.417969 577.933594 411.480469 594.691406 391.644531 C 608.855469 374.824219 611.871094 356.179688 612.433594 346.578125 C 612.921875 338.023438 612.503906 330.457031 612.082031 322.394531 C 611.519531 311.25 610.890625 299.753906 612.363281 283.5625 C 613.835938 267.089844 612.921875 255.667969 609.207031 245.222656 C 604.859375 233.097656 596.585938 222.300781 583.191406 211.15625 C 567.765625 198.332031 546.449219 195.667969 531.304688 195.667969 C 523.871094 195.667969 516.4375 196.296875 509.074219 197.488281 C 497.574219 187.675781 482.148438 182.351562 465.601562 182.351562 Z M 465.601562 182.351562 " fill-opacity="1" fill-rule="nonzero"/><path fill="#ffcdb2" d="M 446.175781 417.019531 L 425.910156 454.097656 C 425.910156 454.097656 458.519531 500.5 520.925781 460.898438 C 520.925781 460.898438 510.757812 437.347656 516.4375 376.996094 C 516.4375 376.996094 543.222656 384.566406 550.867188 361.15625 C 558.507812 337.746094 543.292969 324.847656 529.96875 325.199219 C 529.96875 325.199219 475.347656 331.648438 479.273438 227 C 479.273438 227 427.664062 221.742188 395.550781 260.714844 C 363.433594 299.683594 344.992188 354.988281 370.726562 387.511719 C 396.460938 420.035156 446.175781 417.019531 446.175781 417.019531 Z M 446.175781 417.019531 " fill-opacity="1" fill-rule="nonzero"/><path fill="#000000" d="M 473.03125 226.789062 C 477.03125 226.789062 479.34375 227 479.34375 227 C 475.90625 320.222656 518.820312 325.269531 528.289062 325.269531 C 528.917969 325.269531 529.480469 325.269531 530.109375 325.199219 L 530.671875 325.199219 C 543.785156 325.199219 558.578125 338.023438 551.007812 361.15625 C 546.378906 375.382812 534.667969 378.1875 526.183594 378.1875 C 522.957031 378.1875 519.734375 377.765625 516.578125 376.996094 C 510.898438 437.347656 521.066406 460.898438 521.066406 460.898438 C 502.414062 472.742188 486.355469 476.878906 473.101562 476.878906 C 442.039062 476.878906 425.980469 454.097656 425.980469 454.097656 L 446.246094 417.019531 C 446.246094 417.019531 445.054688 417.089844 442.949219 417.089844 C 431.449219 417.089844 392.535156 414.988281 370.796875 387.511719 C 345.0625 355.058594 363.503906 299.824219 395.691406 260.785156 C 420.933594 230.082031 458.238281 226.789062 473.03125 226.789062 M 473.03125 224.6875 C 457.886719 224.6875 419.8125 228.050781 394.007812 259.382812 C 377.039062 279.988281 364.765625 303.609375 359.4375 326.039062 C 353.40625 351.414062 356.773438 373.140625 369.113281 388.773438 C 391.273438 416.738281 430.609375 419.121094 442.671875 419.191406 L 424.160156 453.117188 C 423.808594 453.816406 423.808594 454.660156 424.296875 455.359375 C 424.507812 455.570312 428.574219 461.386719 436.710938 467.277344 C 447.296875 474.984375 460.058594 479.050781 473.171875 479.050781 C 488.667969 479.050781 505.148438 473.582031 522.257812 462.71875 C 523.097656 462.160156 523.449219 461.039062 523.097656 460.125 C 523.027344 459.914062 513.492188 436.785156 518.539062 379.589844 C 521.066406 380.082031 523.660156 380.289062 526.253906 380.289062 C 539.648438 380.289062 549.183594 373.773438 553.039062 361.855469 C 556.6875 350.851562 555.703125 340.6875 550.304688 333.257812 C 545.746094 326.949219 538.457031 323.234375 530.671875 323.164062 L 529.902344 323.164062 C 529.902344 323.164062 529.339844 323.234375 528.359375 323.234375 C 523.941406 323.234375 512.441406 322.042969 501.921875 311.109375 C 486.917969 295.550781 480.042969 267.300781 481.515625 227.070312 C 481.585938 225.949219 480.746094 225.035156 479.625 224.894531 C 479.414062 224.964844 477.03125 224.6875 473.03125 224.6875 Z M 473.03125 224.6875 " fill-opacity="1" fill-rule="nonzero"/><path fill="#000000" d="M 522.816406 366.273438 C 522.257812 366.273438 521.765625 365.78125 521.765625 365.222656 C 521.765625 364.871094 521.976562 364.519531 522.257812 364.308594 C 530.320312 359.472656 534.457031 354.425781 534.527344 349.167969 C 534.667969 341.671875 526.464844 336.203125 526.394531 336.132812 C 525.902344 335.78125 525.832031 335.152344 526.113281 334.660156 C 526.464844 334.238281 527.027344 334.101562 527.515625 334.378906 C 527.867188 334.589844 536.773438 340.546875 536.632812 349.167969 C 536.492188 355.199219 532.003906 360.875 523.308594 366.132812 C 523.238281 366.273438 523.027344 366.273438 522.816406 366.273438 Z M 522.816406 366.273438 " fill-opacity="1" fill-rule="nonzero"/><path fill="#ffb49f" d="M 443.019531 291.34375 C 466.019531 307.675781 504.9375 311.25 506.902344 322.816406 C 508.863281 334.378906 499.1875 344.613281 484.183594 341.671875 C 469.175781 338.726562 455.710938 332.488281 428.785156 318.257812 C 401.859375 304.03125 376.546875 288.121094 386.152344 274.589844 C 395.757812 261.0625 409.222656 267.371094 443.019531 291.34375 Z M 443.019531 291.34375 " fill-opacity="1" fill-rule="nonzero"/><path fill="#000000" d="M 447.089844 418.492188 C 446.035156 418.492188 444.984375 418.492188 444.003906 418.351562 C 443.441406 418.28125 442.949219 417.789062 443.019531 417.230469 C 443.089844 416.667969 443.582031 416.179688 444.144531 416.25 C 459.359375 417.371094 477.378906 409.167969 477.589844 409.097656 C 478.082031 408.820312 478.710938 409.027344 478.992188 409.519531 C 479.273438 410.011719 479.0625 410.640625 478.570312 410.921875 C 478.503906 410.921875 478.503906 410.992188 478.433594 410.992188 C 477.730469 411.339844 462.023438 418.492188 447.089844 418.492188 Z M 447.089844 418.492188 " fill-opacity="1" fill-rule="nonzero"/><path fill="#000000" d="M 409.152344 263.9375 C 408.59375 263.9375 408.101562 263.445312 408.101562 262.886719 C 408.101562 262.464844 408.3125 262.113281 408.660156 261.976562 C 414.550781 259.3125 421.074219 258.46875 427.523438 259.453125 C 428.085938 259.523438 428.507812 260.082031 428.4375 260.644531 C 428.367188 261.203125 427.804688 261.625 427.242188 261.484375 C 421.285156 260.574219 415.183594 261.414062 409.714844 263.796875 C 409.503906 263.9375 409.363281 263.9375 409.152344 263.9375 Z M 409.152344 263.9375 " fill-opacity="1" fill-rule="nonzero"/><path fill="#000000" d="M 508.863281 309.289062 C 508.375 309.289062 507.953125 309.007812 507.882812 308.515625 C 507.742188 307.957031 504.027344 295.480469 492.597656 295.898438 C 492.035156 295.898438 491.542969 295.480469 491.542969 294.917969 C 491.542969 294.359375 491.964844 293.867188 492.527344 293.796875 C 505.640625 293.304688 509.847656 307.746094 509.917969 307.886719 C 510.054688 308.445312 509.777344 309.007812 509.214844 309.21875 C 509.074219 309.21875 509.003906 309.289062 508.863281 309.289062 Z M 508.863281 309.289062 " fill-opacity="1" fill-rule="nonzero"/><path fill="#000000" d="M 533.265625 324.21875 C 525.691406 324.21875 517.839844 323.09375 510.96875 319.730469 C 510.476562 319.449219 510.195312 318.820312 510.476562 318.328125 C 510.757812 317.839844 511.390625 317.558594 511.878906 317.839844 C 532.707031 327.933594 564.050781 316.789062 564.328125 316.648438 C 564.890625 316.4375 565.453125 316.648438 565.730469 317.207031 C 565.941406 317.769531 565.730469 318.328125 565.171875 318.609375 C 565.101562 318.609375 565.101562 318.679688 565.03125 318.679688 C 564.191406 319.03125 549.394531 324.21875 533.265625 324.21875 Z M 533.265625 324.21875 " fill-opacity="1" fill-rule="nonzero"/><path fill="#ffffff" d="M 534.667969 312.863281 C 534.597656 312.863281 534.457031 312.863281 534.386719 312.792969 C 508.863281 305.574219 499.117188 287.417969 495.472656 273.46875 C 493.085938 264.078125 492.457031 254.265625 493.648438 244.660156 C 493.71875 244.101562 494.277344 243.679688 494.839844 243.75 C 495.402344 243.820312 495.820312 244.382812 495.75 244.941406 C 494.628906 254.335938 495.191406 263.796875 497.503906 272.910156 C 502.625 292.464844 515.246094 305.152344 534.878906 310.6875 C 535.441406 310.828125 535.789062 311.390625 535.652344 311.949219 C 535.652344 312.582031 535.230469 312.933594 534.667969 312.863281 Z M 534.667969 312.863281 " fill-opacity="1" fill-rule="nonzero"/><path fill="#000000" d="M 415.605469 332.417969 C 415.042969 332.417969 414.550781 331.925781 414.550781 331.367188 C 414.550781 331.085938 414.621094 330.875 414.832031 330.664062 L 445.753906 297.230469 C 446.105469 296.742188 446.738281 296.601562 447.226562 296.949219 C 447.71875 297.300781 447.859375 297.933594 447.507812 298.421875 C 447.4375 298.492188 447.367188 298.5625 447.296875 298.632812 L 416.375 332.066406 C 416.164062 332.277344 415.882812 332.417969 415.605469 332.417969 Z M 415.605469 332.417969 " fill-opacity="1" fill-rule="nonzero"/><path fill="#ffffff" d="M 623.300781 212.699219 C 622.671875 212.699219 622.25 212.210938 622.25 211.578125 C 622.878906 198.332031 619.585938 188.097656 612.433594 181.089844 C 600.722656 169.59375 582.632812 170.644531 582.421875 170.644531 C 581.859375 170.714844 581.371094 170.222656 581.300781 169.664062 C 581.230469 169.101562 581.71875 168.613281 582.28125 168.542969 C 583.050781 168.472656 601.5625 167.421875 613.90625 179.546875 C 621.476562 187.046875 625.054688 197.839844 624.351562 211.648438 C 624.351562 212.210938 623.863281 212.699219 623.300781 212.699219 Z M 623.300781 212.699219 " fill-opacity="1" fill-rule="nonzero"/><path fill="#000000" d="M 418.410156 288.75 C 418.410156 289.132812 418.371094 289.511719 418.296875 289.886719 C 418.222656 290.261719 418.113281 290.625 417.964844 290.976562 C 417.820312 291.328125 417.640625 291.664062 417.429688 291.980469 C 417.214844 292.300781 416.972656 292.59375 416.703125 292.863281 C 416.433594 293.132812 416.140625 293.375 415.820312 293.585938 C 415.503906 293.800781 415.167969 293.980469 414.816406 294.125 C 414.460938 294.269531 414.097656 294.382812 413.722656 294.457031 C 413.347656 294.53125 412.972656 294.566406 412.589844 294.566406 C 412.207031 294.566406 411.828125 294.53125 411.453125 294.457031 C 411.078125 294.382812 410.714844 294.269531 410.363281 294.125 C 410.007812 293.980469 409.671875 293.800781 409.355469 293.585938 C 409.039062 293.375 408.742188 293.132812 408.472656 292.863281 C 408.203125 292.59375 407.960938 292.300781 407.75 291.980469 C 407.539062 291.664062 407.359375 291.328125 407.210938 290.976562 C 407.066406 290.625 406.953125 290.261719 406.878906 289.886719 C 406.804688 289.511719 406.769531 289.132812 406.769531 288.75 C 406.769531 288.367188 406.804688 287.988281 406.878906 287.613281 C 406.953125 287.242188 407.066406 286.875 407.210938 286.523438 C 407.359375 286.171875 407.539062 285.835938 407.75 285.519531 C 407.960938 285.199219 408.203125 284.90625 408.472656 284.636719 C 408.742188 284.367188 409.039062 284.125 409.355469 283.914062 C 409.671875 283.699219 410.007812 283.523438 410.363281 283.375 C 410.714844 283.230469 411.078125 283.117188 411.453125 283.042969 C 411.828125 282.96875 412.207031 282.933594 412.589844 282.933594 C 412.972656 282.933594 413.347656 282.96875 413.722656 283.042969 C 414.097656 283.117188 414.460938 283.230469 414.816406 283.375 C 415.167969 283.523438 415.503906 283.699219 415.820312 283.914062 C 416.140625 284.125 416.433594 284.367188 416.703125 284.636719 C 416.972656 284.90625 417.214844 285.199219 417.429688 285.519531 C 417.640625 285.835938 417.820312 286.171875 417.964844 286.523438 C 418.113281 286.875 418.222656 287.242188 418.296875 287.613281 C 418.371094 287.988281 418.410156 288.367188 418.410156 288.75 Z M 418.410156 288.75 " fill-opacity="1" fill-rule="nonzero"/><path fill="#000000" d="M 475.835938 320.921875 C 475.835938 321.304688 475.800781 321.683594 475.726562 322.058594 C 475.652344 322.433594 475.539062 322.796875 475.394531 323.148438 C 475.25 323.5 475.070312 323.835938 474.855469 324.15625 C 474.644531 324.472656 474.402344 324.765625 474.132812 325.035156 C 473.863281 325.304688 473.570312 325.546875 473.25 325.757812 C 472.933594 325.972656 472.597656 326.152344 472.246094 326.296875 C 471.890625 326.445312 471.527344 326.554688 471.152344 326.628906 C 470.777344 326.703125 470.398438 326.742188 470.015625 326.742188 C 469.636719 326.742188 469.257812 326.703125 468.882812 326.628906 C 468.507812 326.554688 468.144531 326.445312 467.789062 326.296875 C 467.4375 326.152344 467.101562 325.972656 466.785156 325.757812 C 466.464844 325.546875 466.171875 325.304688 465.902344 325.035156 C 465.632812 324.765625 465.390625 324.472656 465.179688 324.15625 C 464.964844 323.835938 464.785156 323.5 464.640625 323.148438 C 464.496094 322.796875 464.382812 322.433594 464.308594 322.058594 C 464.234375 321.683594 464.199219 321.304688 464.199219 320.921875 C 464.199219 320.539062 464.234375 320.164062 464.308594 319.789062 C 464.382812 319.414062 464.496094 319.050781 464.640625 318.695312 C 464.785156 318.34375 464.964844 318.007812 465.179688 317.691406 C 465.390625 317.371094 465.632812 317.078125 465.902344 316.808594 C 466.171875 316.539062 466.464844 316.296875 466.785156 316.085938 C 467.101562 315.875 467.4375 315.695312 467.789062 315.546875 C 468.144531 315.402344 468.507812 315.292969 468.882812 315.214844 C 469.257812 315.140625 469.636719 315.105469 470.015625 315.105469 C 470.398438 315.105469 470.777344 315.140625 471.152344 315.214844 C 471.527344 315.292969 471.890625 315.402344 472.246094 315.546875 C 472.597656 315.695312 472.933594 315.875 473.25 316.085938 C 473.570312 316.296875 473.863281 316.539062 474.132812 316.808594 C 474.402344 317.078125 474.644531 317.371094 474.855469 317.691406 C 475.070312 318.007812 475.25 318.34375 475.394531 318.695312 C 475.539062 319.050781 475.652344 319.414062 475.726562 319.789062 C 475.800781 320.164062 475.835938 320.539062 475.835938 320.921875 Z M 475.835938 320.921875 " fill-opacity="1" fill-rule="nonzero"/><path fill="#ffcdb2" d="M 169.550781 576.96875 C 169.550781 542.0625 182.03125 538.277344 133.15625 510.382812 C 84.285156 482.484375 49.292969 412.535156 105.179688 426.550781 C 105.179688 426.550781 119.132812 398.65625 147.113281 426.550781 C 147.113281 426.550781 154.125 391.644531 182.03125 412.601562 C 209.941406 433.5625 230.976562 482.414062 230.976562 482.414062 C 230.976562 482.414062 279.921875 447.507812 307.828125 447.507812 C 335.738281 447.507812 335.804688 468.46875 307.828125 482.414062 C 279.851562 496.363281 270.382812 549.003906 277.394531 576.96875 Z M 169.550781 576.96875 " fill-opacity="1" fill-rule="nonzero"/><path fill="#000000" d="M 165.835938 405.875 C 170.25 405.875 175.582031 407.765625 182.03125 412.535156 C 210.011719 433.492188 230.976562 482.34375 230.976562 482.34375 C 230.976562 482.34375 279.921875 447.4375 307.828125 447.4375 C 335.738281 447.4375 335.804688 468.398438 307.828125 482.34375 C 279.851562 496.292969 270.382812 548.933594 277.394531 576.898438 L 169.550781 576.898438 C 169.550781 541.992188 182.03125 538.207031 133.15625 510.3125 C 88.632812 484.867188 55.675781 424.660156 92.347656 424.660156 C 96.695312 424.730469 101.042969 425.359375 105.179688 426.480469 C 105.179688 426.480469 111.421875 414.074219 123.832031 414.074219 C 130.074219 414.074219 137.785156 417.160156 147.113281 426.480469 C 147.113281 426.550781 151.25 405.875 165.835938 405.875 M 165.835938 403.773438 C 153.492188 403.773438 147.953125 416.25 145.917969 422.554688 C 138.207031 415.546875 130.773438 411.972656 123.761719 411.972656 C 112.753906 411.972656 106.300781 420.523438 104.058594 424.097656 C 100.199219 423.1875 96.203125 422.625 92.207031 422.554688 C 80.355469 422.554688 76.21875 428.445312 74.957031 433.421875 C 72.503906 442.742188 77.550781 457.113281 88.910156 472.882812 C 100.269531 488.652344 115.976562 503.023438 132.035156 512.132812 C 170.390625 534.074219 169.902344 539.960938 168.289062 559.65625 C 167.867188 564.5625 167.445312 570.101562 167.445312 576.898438 C 167.445312 578.089844 168.359375 579.003906 169.550781 579.003906 L 277.394531 579.003906 C 278.589844 579.003906 279.5 578.089844 279.5 576.898438 C 279.5 576.761719 279.5 576.550781 279.429688 576.410156 C 275.921875 562.390625 276.695312 542.695312 281.53125 524.960938 C 287.003906 504.773438 296.679688 490.265625 308.738281 484.238281 C 324.097656 476.527344 332.652344 465.875 330.546875 456.902344 C 328.792969 449.542969 320.519531 445.335938 307.757812 445.335938 C 282.445312 445.335938 241.5625 472.390625 231.746094 479.191406 C 229.785156 474.914062 225.15625 465.242188 218.703125 454.238281 C 206.996094 434.261719 195.003906 419.683594 183.222656 410.851562 C 176.984375 406.15625 171.09375 403.773438 165.835938 403.773438 Z M 165.835938 403.773438 " fill-opacity="1" fill-rule="nonzero"/><path fill="#ffcdb2" d="M 230.90625 510.3125 C 230.90625 510.3125 225.015625 483.257812 171.722656 485.78125 C 147.113281 473.652344 124.742188 453.675781 104.546875 425.921875 " fill-opacity="1" fill-rule="nonzero"/><path fill="#000000" d="M 230.90625 511.363281 C 230.414062 511.363281 229.996094 511.011719 229.855469 510.523438 C 229.855469 510.382812 228.242188 503.863281 220.457031 497.765625 C 213.164062 492.019531 198.789062 485.5 171.722656 486.761719 C 171.515625 486.761719 171.375 486.761719 171.234375 486.621094 C 146.550781 474.425781 123.832031 454.167969 103.636719 426.410156 C 103.285156 425.921875 103.425781 425.289062 103.847656 424.941406 C 104.339844 424.589844 104.96875 424.730469 105.320312 425.148438 C 125.164062 452.554688 147.601562 472.53125 171.863281 484.589844 C 199.5625 483.328125 214.359375 490.195312 221.859375 496.152344 C 230.203125 502.742188 231.816406 509.679688 231.886719 509.960938 C 232.027344 510.523438 231.675781 511.082031 231.117188 511.222656 C 231.117188 511.363281 230.976562 511.363281 230.90625 511.363281 Z M 230.90625 511.363281 " fill-opacity="1" fill-rule="nonzero"/><path fill="#ffcdb2" d="M 147.53125 424.660156 C 147.53125 424.660156 176.070312 463.839844 197.386719 479.542969 " fill-opacity="1" fill-rule="nonzero"/><path fill="#000000" d="M 197.457031 480.523438 C 197.25 480.523438 197.039062 480.453125 196.828125 480.3125 C 175.652344 464.753906 147.042969 425.570312 146.761719 425.21875 C 146.410156 424.730469 146.480469 424.097656 146.972656 423.75 C 147.460938 423.398438 148.09375 423.46875 148.445312 423.957031 C 148.445312 423.957031 148.445312 424.027344 148.515625 424.027344 C 148.792969 424.449219 177.195312 463.28125 198.160156 478.699219 C 198.652344 479.050781 198.71875 479.683594 198.371094 480.171875 C 198.089844 480.382812 197.738281 480.59375 197.457031 480.523438 Z M 197.457031 480.523438 " fill-opacity="1" fill-rule="nonzero"/><path fill="#ffc140" d="M 378.859375 487.882812 C 378.859375 488.378906 378.8125 488.871094 378.714844 489.359375 C 378.617188 489.847656 378.472656 490.320312 378.285156 490.78125 C 378.09375 491.238281 377.859375 491.675781 377.585938 492.089844 C 377.308594 492.5 376.992188 492.882812 376.640625 493.234375 C 376.289062 493.585938 375.910156 493.902344 375.496094 494.175781 C 375.082031 494.453125 374.644531 494.6875 374.1875 494.875 C 373.726562 495.066406 373.253906 495.210938 372.765625 495.308594 C 372.277344 495.402344 371.785156 495.453125 371.289062 495.453125 C 370.789062 495.453125 370.296875 495.402344 369.808594 495.308594 C 369.324219 495.210938 368.847656 495.066406 368.390625 494.875 C 367.929688 494.6875 367.492188 494.453125 367.082031 494.175781 C 366.667969 493.902344 366.285156 493.585938 365.933594 493.234375 C 365.582031 492.882812 365.265625 492.5 364.992188 492.089844 C 364.714844 491.675781 364.480469 491.238281 364.289062 490.78125 C 364.101562 490.320312 363.957031 489.847656 363.859375 489.359375 C 363.761719 488.871094 363.714844 488.378906 363.714844 487.882812 C 363.714844 487.386719 363.761719 486.894531 363.859375 486.40625 C 363.957031 485.917969 364.101562 485.445312 364.292969 484.984375 C 364.480469 484.527344 364.714844 484.089844 364.992188 483.675781 C 365.265625 483.261719 365.582031 482.882812 365.933594 482.53125 C 366.285156 482.179688 366.667969 481.863281 367.082031 481.589844 C 367.492188 481.3125 367.929688 481.078125 368.390625 480.890625 C 368.847656 480.699219 369.324219 480.554688 369.808594 480.457031 C 370.296875 480.359375 370.789062 480.3125 371.289062 480.3125 C 371.785156 480.3125 372.277344 480.359375 372.765625 480.457031 C 373.253906 480.554688 373.726562 480.699219 374.1875 480.890625 C 374.644531 481.078125 375.082031 481.3125 375.496094 481.589844 C 375.910156 481.863281 376.289062 482.179688 376.640625 482.53125 C 376.992188 482.882812 377.308594 483.261719 377.585938 483.675781 C 377.859375 484.089844 378.09375 484.527344 378.285156 484.984375 C 378.472656 485.445312 378.617188 485.917969 378.714844 486.40625 C 378.8125 486.894531 378.859375 487.386719 378.859375 487.882812 Z M 378.859375 487.882812 " fill-opacity="1" fill-rule="nonzero"/><path fill="#ffc140" d="M 325.570312 529.867188 C 325.570312 530.363281 325.519531 530.855469 325.421875 531.34375 C 325.328125 531.832031 325.183594 532.304688 324.992188 532.765625 C 324.800781 533.222656 324.570312 533.660156 324.292969 534.074219 C 324.015625 534.488281 323.703125 534.871094 323.351562 535.222656 C 323 535.570312 322.617188 535.886719 322.203125 536.160156 C 321.789062 536.4375 321.351562 536.671875 320.894531 536.863281 C 320.433594 537.050781 319.960938 537.195312 319.472656 537.292969 C 318.984375 537.390625 318.492188 537.4375 317.996094 537.4375 C 317.5 537.4375 317.007812 537.390625 316.519531 537.292969 C 316.03125 537.195312 315.558594 537.050781 315.097656 536.863281 C 314.636719 536.671875 314.203125 536.4375 313.789062 536.164062 C 313.375 535.886719 312.992188 535.570312 312.640625 535.222656 C 312.289062 534.871094 311.976562 534.488281 311.699219 534.074219 C 311.421875 533.660156 311.191406 533.222656 311 532.765625 C 310.808594 532.304688 310.664062 531.832031 310.566406 531.34375 C 310.472656 530.855469 310.421875 530.363281 310.421875 529.867188 C 310.421875 529.371094 310.472656 528.878906 310.566406 528.390625 C 310.664062 527.902344 310.808594 527.429688 311 526.972656 C 311.191406 526.511719 311.421875 526.074219 311.699219 525.664062 C 311.976562 525.25 312.289062 524.867188 312.640625 524.515625 C 312.992188 524.164062 313.375 523.851562 313.789062 523.574219 C 314.203125 523.296875 314.636719 523.0625 315.097656 522.875 C 315.558594 522.683594 316.03125 522.539062 316.519531 522.445312 C 317.007812 522.347656 317.5 522.296875 317.996094 522.296875 C 318.492188 522.296875 318.984375 522.347656 319.472656 522.445312 C 319.960938 522.539062 320.433594 522.683594 320.894531 522.875 C 321.351562 523.0625 321.789062 523.296875 322.203125 523.574219 C 322.617188 523.851562 323 524.164062 323.351562 524.515625 C 323.703125 524.867188 324.015625 525.25 324.292969 525.664062 C 324.570312 526.074219 324.800781 526.511719 324.992188 526.972656 C 325.183594 527.429688 325.328125 527.902344 325.421875 528.390625 C 325.519531 528.878906 325.570312 529.371094 325.570312 529.867188 Z M 325.570312 529.867188 " fill-opacity="1" fill-rule="nonzero"/><path fill="#ffc140" d="M 404.59375 564.984375 C 404.59375 565.480469 404.546875 565.972656 404.449219 566.460938 C 404.351562 566.949219 404.207031 567.421875 404.019531 567.882812 C 403.828125 568.339844 403.59375 568.777344 403.320312 569.191406 C 403.042969 569.601562 402.726562 569.984375 402.375 570.335938 C 402.023438 570.6875 401.644531 571.003906 401.230469 571.277344 C 400.816406 571.554688 400.378906 571.789062 399.921875 571.976562 C 399.460938 572.167969 398.988281 572.3125 398.5 572.410156 C 398.011719 572.503906 397.519531 572.554688 397.023438 572.554688 C 396.523438 572.554688 396.03125 572.503906 395.542969 572.410156 C 395.058594 572.3125 394.582031 572.167969 394.125 571.976562 C 393.664062 571.789062 393.226562 571.554688 392.816406 571.277344 C 392.402344 571.003906 392.019531 570.6875 391.667969 570.335938 C 391.316406 569.984375 391 569.601562 390.726562 569.191406 C 390.449219 568.777344 390.214844 568.339844 390.023438 567.882812 C 389.835938 567.421875 389.691406 566.949219 389.59375 566.460938 C 389.496094 565.972656 389.449219 565.480469 389.449219 564.984375 C 389.449219 564.488281 389.496094 563.996094 389.59375 563.507812 C 389.691406 563.019531 389.835938 562.546875 390.023438 562.085938 C 390.214844 561.628906 390.449219 561.191406 390.726562 560.777344 C 391 560.367188 391.316406 559.984375 391.667969 559.632812 C 392.019531 559.28125 392.402344 558.964844 392.816406 558.691406 C 393.226562 558.414062 393.664062 558.179688 394.125 557.992188 C 394.582031 557.800781 395.058594 557.65625 395.542969 557.558594 C 396.03125 557.460938 396.523438 557.414062 397.023438 557.414062 C 397.519531 557.414062 398.011719 557.460938 398.5 557.558594 C 398.988281 557.65625 399.460938 557.800781 399.921875 557.992188 C 400.378906 558.179688 400.816406 558.414062 401.230469 558.691406 C 401.644531 558.964844 402.023438 559.28125 402.375 559.632812 C 402.726562 559.984375 403.042969 560.367188 403.320312 560.777344 C 403.59375 561.191406 403.828125 561.628906 404.019531 562.085938 C 404.207031 562.546875 404.351562 563.019531 404.449219 563.507812 C 404.546875 563.996094 404.59375 564.488281 404.59375 564.984375 Z M 404.59375 564.984375 " fill-opacity="1" fill-rule="nonzero"/><path fill="#ffc140" d="M 482.359375 524.890625 C 482.359375 525.386719 482.308594 525.878906 482.214844 526.367188 C 482.117188 526.855469 481.972656 527.328125 481.78125 527.789062 C 481.59375 528.246094 481.359375 528.683594 481.082031 529.097656 C 480.804688 529.511719 480.492188 529.894531 480.140625 530.246094 C 479.789062 530.59375 479.40625 530.910156 478.992188 531.1875 C 478.578125 531.460938 478.144531 531.695312 477.683594 531.886719 C 477.222656 532.074219 476.75 532.21875 476.261719 532.316406 C 475.777344 532.414062 475.28125 532.460938 474.785156 532.460938 C 474.289062 532.460938 473.796875 532.414062 473.308594 532.316406 C 472.820312 532.21875 472.347656 532.074219 471.886719 531.886719 C 471.429688 531.695312 470.992188 531.460938 470.578125 531.1875 C 470.164062 530.910156 469.78125 530.59375 469.429688 530.246094 C 469.078125 529.894531 468.765625 529.511719 468.488281 529.097656 C 468.210938 528.683594 467.980469 528.246094 467.789062 527.789062 C 467.597656 527.328125 467.457031 526.855469 467.359375 526.367188 C 467.261719 525.878906 467.210938 525.386719 467.210938 524.890625 C 467.210938 524.394531 467.261719 523.902344 467.359375 523.414062 C 467.457031 522.925781 467.597656 522.453125 467.789062 521.996094 C 467.980469 521.535156 468.210938 521.097656 468.488281 520.6875 C 468.765625 520.273438 469.078125 519.890625 469.429688 519.539062 C 469.78125 519.1875 470.164062 518.875 470.578125 518.597656 C 470.992188 518.320312 471.429688 518.085938 471.886719 517.898438 C 472.347656 517.707031 472.820312 517.5625 473.308594 517.46875 C 473.796875 517.371094 474.289062 517.320312 474.785156 517.320312 C 475.28125 517.320312 475.777344 517.371094 476.261719 517.46875 C 476.75 517.5625 477.222656 517.707031 477.683594 517.898438 C 478.144531 518.085938 478.578125 518.320312 478.992188 518.597656 C 479.40625 518.875 479.789062 519.1875 480.140625 519.539062 C 480.492188 519.890625 480.804688 520.273438 481.082031 520.6875 C 481.359375 521.097656 481.59375 521.535156 481.78125 521.996094 C 481.972656 522.453125 482.117188 522.925781 482.214844 523.414062 C 482.308594 523.902344 482.359375 524.394531 482.359375 524.890625 Z M 482.359375 524.890625 " fill-opacity="1" fill-rule="nonzero"/><path fill="#ffc140" d="M 558.789062 529.867188 C 558.789062 530.363281 558.742188 530.855469 558.644531 531.34375 C 558.546875 531.832031 558.402344 532.304688 558.214844 532.765625 C 558.023438 533.222656 557.789062 533.660156 557.515625 534.074219 C 557.238281 534.488281 556.921875 534.871094 556.570312 535.222656 C 556.21875 535.570312 555.839844 535.886719 555.425781 536.160156 C 555.011719 536.4375 554.574219 536.671875 554.117188 536.863281 C 553.65625 537.050781 553.183594 537.195312 552.695312 537.292969 C 552.207031 537.390625 551.714844 537.4375 551.21875 537.4375 C 550.71875 537.4375 550.226562 537.390625 549.738281 537.292969 C 549.253906 537.195312 548.777344 537.050781 548.320312 536.863281 C 547.859375 536.671875 547.421875 536.4375 547.011719 536.164062 C 546.597656 535.886719 546.214844 535.570312 545.863281 535.222656 C 545.511719 534.871094 545.195312 534.488281 544.921875 534.074219 C 544.644531 533.660156 544.410156 533.222656 544.21875 532.765625 C 544.03125 532.304688 543.886719 531.832031 543.789062 531.34375 C 543.691406 530.855469 543.644531 530.363281 543.644531 529.867188 C 543.644531 529.371094 543.691406 528.878906 543.789062 528.390625 C 543.886719 527.902344 544.03125 527.429688 544.21875 526.972656 C 544.410156 526.511719 544.644531 526.074219 544.921875 525.664062 C 545.195312 525.25 545.511719 524.867188 545.863281 524.515625 C 546.214844 524.164062 546.597656 523.851562 547.011719 523.574219 C 547.421875 523.296875 547.859375 523.0625 548.320312 522.875 C 548.777344 522.683594 549.253906 522.539062 549.738281 522.445312 C 550.226562 522.347656 550.71875 522.296875 551.21875 522.296875 C 551.714844 522.296875 552.207031 522.347656 552.695312 522.445312 C 553.183594 522.539062 553.65625 522.683594 554.117188 522.875 C 554.574219 523.0625 555.011719 523.296875 555.425781 523.574219 C 555.839844 523.851562 556.21875 524.164062 556.570312 524.515625 C 556.921875 524.867188 557.238281 525.25 557.515625 525.664062 C 557.789062 526.074219 558.023438 526.511719 558.214844 526.972656 C 558.402344 527.429688 558.546875 527.902344 558.644531 528.390625 C 558.742188 528.878906 558.789062 529.371094 558.789062 529.867188 Z M 558.789062 529.867188 " fill-opacity="1" fill-rule="nonzero"/><path fill="#ffc140" d="M 536.84375 564.984375 C 536.84375 565.480469 536.792969 565.972656 536.695312 566.460938 C 536.601562 566.949219 536.457031 567.421875 536.265625 567.882812 C 536.074219 568.339844 535.84375 568.777344 535.566406 569.191406 C 535.289062 569.601562 534.976562 569.984375 534.625 570.335938 C 534.273438 570.6875 533.890625 571.003906 533.476562 571.277344 C 533.0625 571.554688 532.625 571.789062 532.167969 571.976562 C 531.707031 572.167969 531.234375 572.3125 530.746094 572.410156 C 530.257812 572.503906 529.765625 572.554688 529.269531 572.554688 C 528.773438 572.554688 528.28125 572.503906 527.792969 572.410156 C 527.304688 572.3125 526.832031 572.167969 526.371094 571.976562 C 525.910156 571.789062 525.476562 571.554688 525.0625 571.277344 C 524.648438 571.003906 524.265625 570.6875 523.914062 570.335938 C 523.5625 569.984375 523.25 569.601562 522.972656 569.191406 C 522.695312 568.777344 522.464844 568.339844 522.273438 567.882812 C 522.082031 567.421875 521.9375 566.949219 521.84375 566.460938 C 521.746094 565.972656 521.695312 565.480469 521.695312 564.984375 C 521.695312 564.488281 521.746094 563.996094 521.84375 563.507812 C 521.9375 563.019531 522.082031 562.546875 522.273438 562.085938 C 522.464844 561.628906 522.695312 561.191406 522.972656 560.777344 C 523.25 560.367188 523.5625 559.984375 523.914062 559.632812 C 524.265625 559.28125 524.648438 558.964844 525.0625 558.691406 C 525.476562 558.414062 525.910156 558.179688 526.371094 557.992188 C 526.832031 557.800781 527.304688 557.65625 527.792969 557.558594 C 528.28125 557.460938 528.773438 557.414062 529.269531 557.414062 C 529.765625 557.414062 530.257812 557.460938 530.746094 557.558594 C 531.234375 557.65625 531.707031 557.800781 532.167969 557.992188 C 532.625 558.179688 533.0625 558.414062 533.476562 558.691406 C 533.890625 558.964844 534.273438 559.28125 534.625 559.632812 C 534.976562 559.984375 535.289062 560.367188 535.566406 560.777344 C 535.84375 561.191406 536.074219 561.628906 536.265625 562.085938 C 536.457031 562.546875 536.601562 563.019531 536.695312 563.507812 C 536.792969 563.996094 536.84375 564.488281 536.84375 564.984375 Z M 536.84375 564.984375 " fill-opacity="1" fill-rule="nonzero"/><path fill="#ffad00" d="M 524.429688 389.261719 L 521.835938 386.738281 C 521.414062 386.320312 520.785156 386.039062 520.222656 385.898438 L 516.71875 385.335938 C 515.105469 385.128906 513.984375 383.585938 514.195312 381.972656 C 514.261719 381.691406 514.332031 381.34375 514.472656 381.132812 L 516.085938 377.90625 C 516.367188 377.347656 516.4375 376.714844 516.367188 376.085938 L 515.804688 372.582031 C 515.527344 370.96875 516.648438 369.425781 518.261719 369.144531 C 518.542969 369.074219 518.890625 369.074219 519.171875 369.144531 L 522.679688 369.636719 C 523.308594 369.707031 523.941406 369.636719 524.5 369.355469 L 527.65625 367.675781 C 529.128906 366.902344 530.882812 367.464844 531.652344 368.9375 C 531.792969 369.214844 531.863281 369.496094 531.933594 369.777344 L 532.566406 373.28125 C 532.707031 373.914062 532.984375 374.472656 533.40625 374.894531 L 535.929688 377.417969 C 537.125 378.539062 537.125 380.429688 536 381.621094 C 535.789062 381.832031 535.511719 382.042969 535.230469 382.183594 L 532.074219 383.867188 C 531.511719 384.144531 531.09375 384.636719 530.8125 385.199219 L 529.199219 388.421875 C 528.5 389.894531 526.675781 390.523438 525.203125 389.824219 C 524.921875 389.613281 524.640625 389.472656 524.429688 389.261719 Z M 524.429688 389.261719 " fill-opacity="1" fill-rule="nonzero"/><path fill="#000000" d="M 526.464844 391.15625 C 525.414062 391.15625 524.429688 390.734375 523.660156 390.035156 L 521.136719 387.582031 C 520.855469 387.300781 520.503906 387.089844 520.082031 387.019531 L 516.578125 386.460938 C 514.402344 386.109375 512.859375 384.074219 513.210938 381.902344 C 513.28125 381.484375 513.421875 381.0625 513.5625 380.710938 L 515.175781 377.488281 C 515.386719 377.136719 515.386719 376.714844 515.316406 376.296875 L 514.753906 372.789062 C 514.402344 370.617188 515.875 368.515625 518.050781 368.164062 C 518.472656 368.09375 518.890625 368.09375 519.3125 368.164062 L 522.820312 368.65625 C 523.238281 368.726562 523.589844 368.65625 524.011719 368.445312 L 527.164062 366.761719 C 529.128906 365.710938 531.582031 366.484375 532.636719 368.445312 C 532.84375 368.796875 532.984375 369.214844 533.054688 369.636719 L 533.6875 373.140625 C 533.757812 373.5625 533.96875 373.914062 534.25 374.191406 L 536.773438 376.714844 C 538.386719 378.257812 538.386719 380.851562 536.84375 382.394531 C 536.5625 382.675781 536.210938 382.953125 535.859375 383.164062 L 532.707031 384.847656 C 532.355469 385.058594 532.074219 385.335938 531.863281 385.6875 L 530.109375 388.914062 C 529.550781 390.105469 528.429688 390.875 527.164062 391.085938 C 526.957031 391.15625 526.746094 391.15625 526.464844 391.15625 Z M 518.609375 370.199219 C 518.050781 370.199219 517.558594 370.40625 517.207031 370.757812 C 516.789062 371.179688 516.578125 371.808594 516.648438 372.441406 L 517.207031 375.945312 C 517.347656 376.785156 517.207031 377.628906 516.859375 378.398438 L 515.316406 381.621094 C 514.824219 382.605469 515.246094 383.726562 516.226562 384.214844 C 516.4375 384.285156 516.578125 384.355469 516.789062 384.425781 L 520.292969 384.988281 C 521.136719 385.128906 521.90625 385.476562 522.539062 386.109375 L 525.132812 388.5625 C 525.902344 389.332031 527.09375 389.261719 527.867188 388.5625 C 528.007812 388.421875 528.148438 388.28125 528.21875 388.070312 L 529.832031 384.847656 C 530.179688 384.074219 530.8125 383.445312 531.582031 383.09375 L 534.738281 381.414062 C 535.300781 381.132812 535.652344 380.640625 535.71875 380.011719 C 535.789062 379.378906 535.582031 378.75 535.160156 378.328125 L 532.636719 375.804688 C 532.003906 375.246094 531.652344 374.472656 531.511719 373.632812 L 530.882812 370.128906 C 530.742188 369.074219 529.761719 368.375 528.707031 368.515625 C 528.5 368.515625 528.289062 368.585938 528.078125 368.726562 L 524.921875 370.40625 C 524.152344 370.828125 523.308594 370.96875 522.46875 370.828125 L 518.960938 370.335938 C 518.820312 370.199219 518.75 370.199219 518.609375 370.199219 Z M 518.609375 370.199219 " fill-opacity="1" fill-rule="nonzero"/><path fill="#000000" d="M 460.550781 388.140625 C 456.90625 388.140625 451.644531 382.394531 450.523438 381.203125 C 450.101562 380.78125 450.101562 380.152344 450.523438 379.730469 C 450.945312 379.308594 451.574219 379.308594 451.996094 379.730469 C 451.996094 379.730469 452.066406 379.800781 452.066406 379.800781 C 455.082031 383.164062 459.289062 386.527344 460.761719 386.039062 C 461.324219 385.828125 461.460938 384.777344 461.53125 384.214844 C 462.023438 378.328125 450.101562 374.894531 445.476562 374.050781 C 444.914062 373.984375 444.492188 373.421875 444.632812 372.859375 C 444.773438 372.300781 445.265625 371.949219 445.824219 372.019531 C 446.597656 372.160156 464.335938 375.453125 463.636719 384.425781 C 463.496094 386.390625 462.726562 387.652344 461.460938 388.070312 C 461.183594 388.070312 460.902344 388.140625 460.550781 388.140625 Z M 460.550781 388.140625 " fill-opacity="1" fill-rule="nonzero"/><path fill="#000000" d="M 623.089844 157.1875 C 622.808594 157.1875 622.53125 157.046875 622.320312 156.835938 C 607.3125 140.292969 588.242188 135.246094 565.664062 141.835938 C 554.933594 145.132812 544.90625 150.246094 535.929688 156.90625 C 535.511719 157.257812 534.808594 157.1875 534.457031 156.765625 C 534.109375 156.34375 534.179688 155.644531 534.597656 155.292969 C 543.785156 148.425781 554.023438 143.167969 564.960938 139.804688 C 581.089844 135.109375 604.296875 133.917969 623.792969 155.363281 C 624.210938 155.785156 624.144531 156.484375 623.722656 156.835938 C 623.652344 157.117188 623.371094 157.1875 623.089844 157.1875 Z M 623.089844 157.1875 " fill-opacity="1" fill-rule="nonzero"/><path fill="#ffffff" d="M 132.878906 501.339844 C 132.386719 501.339844 131.964844 501.199219 131.546875 500.917969 C 84.074219 469.9375 80.988281 440.78125 80.917969 439.519531 C 80.777344 438.1875 81.828125 436.996094 83.160156 436.855469 C 84.492188 436.714844 85.6875 437.765625 85.828125 439.097656 C 85.894531 439.449219 89.050781 467.277344 134.28125 496.785156 C 135.402344 497.554688 135.753906 499.027344 134.980469 500.148438 C 134.488281 500.988281 133.71875 501.339844 132.878906 501.339844 Z M 132.878906 501.339844 " fill-opacity="1" fill-rule="nonzero"/><path fill="#ffffff" d="M 598.96875 571.222656 C 597.636719 571.222656 596.585938 570.171875 596.515625 568.910156 C 595.253906 540.871094 584.105469 521.808594 574.988281 510.734375 C 565.03125 498.675781 555.285156 493.28125 555.144531 493.210938 C 553.953125 492.578125 553.460938 491.105469 554.09375 489.914062 C 554.722656 488.722656 556.195312 488.234375 557.386719 488.863281 C 557.386719 488.863281 557.457031 488.863281 557.457031 488.863281 C 557.878906 489.074219 568.046875 494.679688 578.5625 507.367188 C 588.242188 519.003906 600.089844 539.121094 601.351562 568.558594 C 601.421875 569.890625 600.371094 571.082031 599.039062 571.152344 Z M 598.96875 571.222656 " fill-opacity="1" fill-rule="nonzero"/><path fill="#d9cfff" d="M 219.546875 414.285156 C 219.546875 415.097656 219.507812 415.910156 219.425781 416.71875 C 219.347656 417.527344 219.226562 418.328125 219.070312 419.125 C 218.910156 419.921875 218.714844 420.710938 218.476562 421.488281 C 218.242188 422.265625 217.96875 423.03125 217.65625 423.78125 C 217.347656 424.53125 217 425.265625 216.617188 425.980469 C 216.230469 426.699219 215.816406 427.394531 215.363281 428.070312 C 214.910156 428.746094 214.425781 429.398438 213.910156 430.027344 C 213.394531 430.65625 212.851562 431.257812 212.277344 431.832031 C 211.703125 432.40625 211.097656 432.949219 210.472656 433.464844 C 209.84375 433.980469 209.191406 434.464844 208.515625 434.917969 C 207.839844 435.367188 207.140625 435.785156 206.425781 436.167969 C 205.707031 436.550781 204.972656 436.898438 204.222656 437.210938 C 203.472656 437.519531 202.707031 437.792969 201.929688 438.03125 C 201.152344 438.265625 200.363281 438.464844 199.566406 438.621094 C 198.769531 438.78125 197.964844 438.898438 197.15625 438.980469 C 196.347656 439.058594 195.535156 439.097656 194.722656 439.097656 C 193.910156 439.097656 193.101562 439.058594 192.289062 438.980469 C 191.480469 438.898438 190.679688 438.78125 189.882812 438.621094 C 189.082031 438.464844 188.296875 438.265625 187.519531 438.03125 C 186.738281 437.792969 185.976562 437.519531 185.222656 437.210938 C 184.472656 436.898438 183.738281 436.550781 183.023438 436.167969 C 182.304688 435.785156 181.609375 435.367188 180.933594 434.917969 C 180.257812 434.464844 179.605469 433.980469 178.976562 433.464844 C 178.347656 432.949219 177.746094 432.40625 177.171875 431.832031 C 176.597656 431.257812 176.050781 430.65625 175.535156 430.027344 C 175.019531 429.398438 174.535156 428.746094 174.085938 428.070312 C 173.632812 427.394531 173.214844 426.699219 172.832031 425.980469 C 172.449219 425.265625 172.101562 424.53125 171.789062 423.78125 C 171.480469 423.03125 171.207031 422.265625 170.96875 421.488281 C 170.734375 420.710938 170.535156 419.921875 170.378906 419.125 C 170.21875 418.328125 170.101562 417.527344 170.019531 416.71875 C 169.941406 415.910156 169.902344 415.097656 169.902344 414.285156 C 169.902344 413.472656 169.941406 412.664062 170.019531 411.855469 C 170.101562 411.042969 170.21875 410.242188 170.378906 409.445312 C 170.535156 408.648438 170.734375 407.859375 170.96875 407.082031 C 171.207031 406.304688 171.480469 405.539062 171.789062 404.789062 C 172.101562 404.039062 172.449219 403.304688 172.832031 402.589844 C 173.214844 401.871094 173.632812 401.175781 174.085938 400.5 C 174.535156 399.824219 175.019531 399.171875 175.535156 398.542969 C 176.050781 397.917969 176.597656 397.316406 177.171875 396.742188 C 177.746094 396.164062 178.347656 395.621094 178.976562 395.105469 C 179.605469 394.589844 180.257812 394.105469 180.933594 393.65625 C 181.609375 393.203125 182.304688 392.785156 183.023438 392.402344 C 183.738281 392.019531 184.472656 391.671875 185.222656 391.363281 C 185.976562 391.050781 186.738281 390.777344 187.519531 390.542969 C 188.296875 390.304688 189.082031 390.109375 189.882812 389.949219 C 190.679688 389.792969 191.480469 389.671875 192.289062 389.59375 C 193.101562 389.511719 193.910156 389.472656 194.722656 389.472656 C 195.535156 389.472656 196.347656 389.511719 197.15625 389.59375 C 197.964844 389.671875 198.769531 389.792969 199.566406 389.949219 C 200.363281 390.109375 201.152344 390.304688 201.929688 390.542969 C 202.707031 390.777344 203.472656 391.050781 204.222656 391.363281 C 204.972656 391.671875 205.707031 392.019531 206.425781 392.402344 C 207.140625 392.785156 207.839844 393.203125 208.515625 393.65625 C 209.191406 394.105469 209.84375 394.589844 210.472656 395.105469 C 211.097656 395.621094 211.703125 396.164062 212.277344 396.742188 C 212.851562 397.316406 213.394531 397.917969 213.910156 398.542969 C 214.425781 399.171875 214.910156 399.824219 215.363281 400.5 C 215.816406 401.175781 216.230469 401.871094 216.617188 402.589844 C 217 403.304688 217.347656 404.039062 217.65625 404.789062 C 217.96875 405.539062 218.242188 406.304688 218.476562 407.082031 C 218.714844 407.859375 218.910156 408.648438 219.070312 409.445312 C 219.226562 410.242188 219.347656 411.042969 219.425781 411.855469 C 219.507812 412.664062 219.546875 413.472656 219.546875 414.285156 Z M 219.546875 414.285156 " fill-opacity="1" fill-rule="nonzero"/><path fill="#000000" d="M 194.722656 389.542969 C 208.398438 389.542969 219.546875 400.617188 219.546875 414.355469 C 219.546875 428.023438 208.46875 439.167969 194.722656 439.167969 C 181.050781 439.167969 169.902344 428.09375 169.902344 414.425781 C 169.902344 400.617188 180.980469 389.542969 194.722656 389.542969 M 194.722656 387.441406 C 179.859375 387.441406 167.796875 399.496094 167.796875 414.285156 C 167.796875 429.144531 179.859375 441.199219 194.652344 441.199219 C 209.449219 441.199219 221.578125 429.144531 221.578125 414.355469 C 221.578125 399.425781 209.519531 387.441406 194.722656 387.441406 Z M 194.722656 387.441406 " fill-opacity="1" fill-rule="nonzero"/><path fill="#d9cfff" d="M 138.90625 387.441406 C 138.90625 387.441406 200.894531 342.019531 250.46875 395.710938 L 260.496094 385.6875 C 268.28125 377.90625 268.28125 365.292969 260.496094 357.441406 C 259.867188 356.808594 259.164062 356.179688 258.464844 355.617188 C 234.691406 337.535156 187.851562 314.054688 132.597656 349.308594 C 120.746094 356.878906 120.394531 374.121094 131.824219 382.324219 Z M 138.90625 387.441406 " fill-opacity="1" fill-rule="nonzero"/><path fill="#000000" d="M 190.867188 331.085938 C 219.96875 331.085938 243.667969 344.402344 258.464844 355.617188 C 267.230469 362.277344 268.980469 374.824219 262.320312 383.585938 C 261.757812 384.285156 261.199219 384.988281 260.496094 385.617188 L 250.46875 395.640625 C 232.027344 375.664062 211.902344 369.425781 193.882812 369.425781 C 163.378906 369.425781 138.90625 387.371094 138.90625 387.371094 L 131.824219 382.324219 C 120.394531 374.121094 120.675781 356.878906 132.527344 349.308594 C 153.421875 336.0625 173.125 331.085938 190.867188 331.085938 M 190.796875 328.984375 C 170.742188 328.984375 150.6875 335.222656 131.335938 347.558594 C 125.234375 351.484375 121.449219 358.140625 121.238281 365.429688 C 121.027344 372.789062 124.53125 379.730469 130.492188 384.003906 L 137.574219 389.050781 C 137.925781 389.332031 138.347656 389.472656 138.765625 389.472656 C 139.1875 389.472656 139.679688 389.332031 140.03125 389.050781 C 140.238281 388.84375 164.363281 371.53125 193.8125 371.53125 C 214.707031 371.53125 233.21875 380.152344 248.855469 397.042969 C 249.207031 397.464844 249.769531 397.742188 250.328125 397.742188 L 250.398438 397.742188 C 250.960938 397.742188 251.523438 397.535156 251.871094 397.113281 L 261.898438 387.089844 C 270.523438 378.46875 270.523438 364.519531 261.898438 355.898438 C 261.199219 355.199219 260.425781 354.496094 259.585938 353.9375 C 244.648438 342.652344 220.527344 329.054688 190.796875 328.984375 Z M 190.796875 328.984375 " fill-opacity="1" fill-rule="nonzero"/><path fill="#d9cfff" d="M 122.078125 334.800781 C 122.078125 334.800781 207.273438 272.347656 275.503906 346.15625 L 289.246094 332.417969 C 299.976562 321.695312 299.976562 304.3125 289.246094 293.585938 C 288.335938 292.675781 287.421875 291.90625 286.441406 291.132812 C 253.695312 266.25 189.324219 234.007812 113.3125 282.441406 C 96.976562 292.816406 96.554688 316.578125 112.332031 327.792969 Z M 122.078125 334.800781 " fill-opacity="1" fill-rule="nonzero"/><path fill="#000000" d="M 193.460938 257.347656 C 233.429688 257.347656 266.035156 275.644531 286.371094 291.132812 C 298.433594 300.316406 300.816406 317.488281 291.628906 329.613281 C 290.859375 330.59375 290.019531 331.578125 289.175781 332.417969 L 275.433594 346.15625 C 250.117188 318.75 222.421875 310.128906 197.667969 310.128906 C 155.738281 310.128906 122.078125 334.800781 122.078125 334.800781 L 112.332031 327.863281 C 96.554688 316.648438 97.046875 292.886719 113.3125 282.511719 C 142.0625 264.148438 169.128906 257.347656 193.460938 257.347656 M 193.460938 255.246094 C 165.972656 255.246094 138.628906 263.796875 112.191406 280.691406 C 103.988281 285.945312 98.9375 294.917969 98.730469 304.589844 C 98.449219 314.472656 103.074219 323.796875 111.140625 329.542969 L 120.886719 336.484375 C 121.65625 337.042969 122.640625 337.042969 123.339844 336.484375 C 130.210938 331.785156 137.503906 327.652344 145.148438 324.285156 C 157.417969 318.75 176.492188 312.160156 197.738281 312.160156 C 226.628906 312.160156 252.292969 324.078125 273.960938 347.558594 C 274.3125 347.976562 274.871094 348.257812 275.433594 348.257812 L 275.503906 348.257812 C 276.0625 348.257812 276.625 348.046875 276.976562 347.628906 L 290.71875 333.890625 C 302.289062 322.394531 302.289062 303.679688 290.71875 292.113281 C 289.738281 291.132812 288.753906 290.292969 287.632812 289.449219 C 267.160156 273.890625 234.132812 255.316406 193.460938 255.246094 Z M 193.460938 255.246094 " fill-opacity="1" fill-rule="nonzero"/><path fill="#ffffff" d="M 110.296875 292.535156 C 109.738281 292.535156 109.246094 292.113281 109.246094 291.484375 C 109.246094 291.132812 109.386719 290.851562 109.597656 290.644531 C 109.949219 290.363281 144.308594 262.183594 192.410156 263.445312 C 192.972656 263.445312 193.460938 263.9375 193.460938 264.5 C 193.460938 265.058594 192.972656 265.550781 192.410156 265.550781 C 145.078125 264.359375 111.351562 291.972656 111 292.253906 C 110.71875 292.464844 110.507812 292.535156 110.296875 292.535156 Z M 110.296875 292.535156 " fill-opacity="1" fill-rule="nonzero"/><path fill="#ffffff" d="M 262.601562 371.53125 C 262.25 371.53125 261.828125 371.320312 261.6875 370.96875 C 248.296875 346.648438 204.539062 338.375 204.121094 338.304688 C 203.558594 338.234375 203.136719 337.675781 203.277344 337.042969 C 203.347656 336.484375 203.910156 336.0625 204.539062 336.203125 C 206.363281 336.554688 249.699219 344.753906 263.582031 369.917969 C 263.863281 370.40625 263.652344 371.039062 263.160156 371.320312 C 262.949219 371.460938 262.8125 371.460938 262.601562 371.53125 Z M 262.601562 371.53125 " fill-opacity="1" fill-rule="nonzero"/><path fill="#ffffff" d="M 211.203125 402.859375 C 210.851562 402.859375 210.570312 402.71875 210.359375 402.441406 C 199.210938 388.351562 185.46875 398.445312 184.835938 398.867188 C 184.347656 399.214844 183.714844 399.144531 183.363281 398.65625 C 183.011719 398.164062 183.082031 397.535156 183.574219 397.183594 C 183.714844 397.042969 199.5625 385.476562 211.972656 401.109375 C 212.324219 401.527344 212.253906 402.230469 211.832031 402.582031 C 211.691406 402.789062 211.484375 402.859375 211.203125 402.859375 Z M 211.203125 402.859375 " fill-opacity="1" fill-rule="nonzero"/><path fill="#ffffff" d="M 108.824219 387.300781 C 103.847656 387.300781 99.078125 387.160156 94.453125 386.949219 C 72.433594 385.757812 45.4375 381.0625 42.210938 365.710938 C 38.566406 348.679688 58.550781 332.277344 103.144531 315.527344 C 104.410156 315.035156 105.8125 315.664062 106.300781 316.996094 C 106.792969 318.257812 106.160156 319.660156 104.828125 320.152344 C 63.457031 335.640625 44.035156 350.640625 46.980469 364.730469 C 50.90625 383.09375 114.367188 390.175781 202.648438 371.460938 C 290.929688 352.746094 346.042969 320.503906 342.117188 302.066406 C 339.945312 291.972656 330.617188 285.175781 292.191406 285.175781 L 291.421875 285.175781 C 290.085938 285.175781 288.964844 284.054688 288.964844 282.722656 C 288.964844 281.390625 290.085938 280.269531 291.421875 280.269531 L 292.191406 280.269531 C 328.375 280.269531 343.730469 286.15625 346.886719 301.085938 C 350.179688 316.4375 327.390625 331.648438 307.757812 341.738281 C 280.902344 355.476562 243.878906 367.746094 203.628906 376.296875 C 169.550781 383.515625 136.453125 387.300781 108.824219 387.300781 Z M 108.824219 387.300781 " fill-opacity="1" fill-rule="nonzero"/><path fill="#ffffff" d="M 306.847656 422.347656 L 303.269531 422.136719 C 302.640625 422.136719 302.007812 422.277344 301.515625 422.625 L 298.503906 424.519531 C 297.101562 425.359375 295.277344 424.941406 294.367188 423.539062 C 294.226562 423.257812 294.085938 422.976562 294.015625 422.695312 L 293.101562 419.261719 C 292.960938 418.632812 292.613281 418.140625 292.121094 417.71875 L 289.386719 415.40625 C 288.125 414.355469 287.984375 412.464844 289.035156 411.203125 C 289.246094 410.992188 289.457031 410.78125 289.738281 410.570312 L 292.753906 408.679688 C 293.3125 408.328125 293.664062 407.835938 293.945312 407.277344 L 295.277344 403.980469 C 295.90625 402.441406 297.660156 401.738281 299.132812 402.300781 C 299.414062 402.441406 299.695312 402.582031 299.90625 402.789062 L 302.640625 405.101562 C 303.128906 405.523438 303.691406 405.734375 304.324219 405.804688 L 307.898438 406.085938 C 309.511719 406.226562 310.773438 407.625 310.632812 409.238281 C 310.632812 409.519531 310.5625 409.871094 310.421875 410.148438 L 309.089844 413.445312 C 308.878906 414.003906 308.808594 414.636719 308.949219 415.265625 L 309.792969 418.773438 C 310.210938 420.382812 309.230469 421.996094 307.617188 422.347656 C 307.476562 422.347656 307.199219 422.347656 306.847656 422.347656 Z M 306.847656 422.347656 " fill-opacity="1" fill-rule="nonzero"/><path fill="#000000" d="M 296.960938 425.921875 C 296.46875 425.921875 295.90625 425.851562 295.417969 425.640625 C 294.226562 425.148438 293.3125 424.167969 293.03125 422.90625 L 292.121094 419.472656 C 292.050781 419.050781 291.839844 418.703125 291.492188 418.492188 L 288.753906 416.179688 C 287.074219 414.777344 286.792969 412.183594 288.265625 410.5 C 288.546875 410.148438 288.824219 409.871094 289.175781 409.660156 L 292.191406 407.765625 C 292.542969 407.558594 292.824219 407.207031 292.960938 406.855469 L 294.296875 403.5625 C 295.136719 401.527344 297.449219 400.476562 299.554688 401.320312 C 299.90625 401.457031 300.324219 401.667969 300.605469 401.949219 L 303.339844 404.261719 C 303.621094 404.542969 304.042969 404.683594 304.460938 404.683594 L 308.039062 404.964844 C 310.28125 405.101562 311.964844 407.066406 311.753906 409.238281 C 311.753906 409.660156 311.613281 410.078125 311.476562 410.429688 L 310.140625 413.726562 C 310.003906 414.074219 310.003906 414.496094 310.070312 414.917969 L 310.914062 418.351562 C 311.476562 420.523438 310.140625 422.695312 307.96875 423.257812 C 307.546875 423.328125 307.128906 423.398438 306.707031 423.398438 L 303.128906 423.1875 C 302.710938 423.1875 302.289062 423.257812 302.007812 423.46875 L 298.992188 425.359375 C 298.363281 425.710938 297.660156 425.921875 296.960938 425.921875 Z M 298.082031 403.070312 C 297.941406 403.070312 297.730469 403.070312 297.589844 403.140625 C 296.960938 403.28125 296.46875 403.703125 296.257812 404.261719 L 294.925781 407.558594 C 294.644531 408.328125 294.085938 409.027344 293.3125 409.449219 L 290.296875 411.339844 C 289.386719 411.902344 289.105469 413.09375 289.667969 414.003906 C 289.808594 414.144531 289.878906 414.355469 290.085938 414.496094 L 292.824219 416.808594 C 293.453125 417.371094 293.945312 418.070312 294.15625 418.910156 L 295.066406 422.347656 C 295.207031 422.976562 295.628906 423.398438 296.1875 423.679688 C 296.75 423.886719 297.378906 423.886719 297.941406 423.539062 L 300.957031 421.644531 C 301.65625 421.226562 302.5 421.015625 303.339844 421.015625 L 306.917969 421.226562 C 307.546875 421.292969 308.109375 421.015625 308.53125 420.523438 C 308.949219 420.035156 309.089844 419.402344 308.949219 418.839844 L 308.109375 415.40625 C 307.898438 414.566406 307.96875 413.726562 308.25 412.953125 L 309.582031 409.660156 C 309.792969 409.097656 309.722656 408.46875 309.441406 407.90625 C 309.089844 407.417969 308.53125 407.066406 307.96875 406.996094 L 304.390625 406.714844 C 303.550781 406.644531 302.710938 406.363281 302.078125 405.804688 L 299.34375 403.492188 C 298.921875 403.28125 298.503906 403.070312 298.082031 403.070312 Z M 298.082031 403.070312 " fill-opacity="1" fill-rule="nonzero"/><path fill="#ffffff" d="M 327.882812 270.945312 L 325.359375 268.492188 C 324.9375 268.074219 324.308594 267.792969 323.746094 267.652344 L 320.238281 267.089844 C 318.628906 266.882812 317.503906 265.339844 317.714844 263.726562 C 317.785156 263.445312 317.855469 263.097656 317.996094 262.886719 L 319.609375 259.660156 C 319.890625 259.101562 319.960938 258.46875 319.890625 257.839844 L 319.257812 254.335938 C 318.976562 252.722656 320.097656 251.179688 321.710938 250.898438 C 321.992188 250.832031 322.34375 250.832031 322.625 250.898438 L 326.128906 251.390625 C 326.761719 251.460938 327.390625 251.390625 327.953125 251.109375 L 331.109375 249.429688 C 332.582031 248.65625 334.335938 249.21875 335.105469 250.691406 C 335.246094 250.96875 335.316406 251.25 335.386719 251.53125 L 336.015625 255.035156 C 336.085938 255.667969 336.4375 256.226562 336.859375 256.648438 L 339.382812 259.171875 C 340.574219 260.292969 340.574219 262.183594 339.382812 263.375 C 339.171875 263.585938 338.890625 263.796875 338.679688 263.9375 L 335.527344 265.621094 C 334.964844 265.898438 334.542969 266.390625 334.265625 266.953125 L 332.652344 270.175781 C 331.878906 271.648438 330.125 272.207031 328.652344 271.507812 C 328.375 271.367188 328.09375 271.15625 327.882812 270.945312 Z M 327.882812 270.945312 " fill-opacity="1" fill-rule="nonzero"/><path fill="#000000" d="M 329.988281 272.839844 C 328.933594 272.839844 327.953125 272.417969 327.183594 271.71875 L 324.585938 269.195312 C 324.308594 268.914062 323.957031 268.703125 323.535156 268.632812 L 320.03125 268.074219 C 317.855469 267.722656 316.3125 265.691406 316.664062 263.515625 C 316.734375 263.097656 316.875 262.675781 317.015625 262.324219 L 318.628906 259.101562 C 318.835938 258.75 318.835938 258.332031 318.835938 257.910156 L 318.207031 254.40625 C 317.855469 252.230469 319.328125 250.128906 321.5 249.777344 C 321.921875 249.707031 322.34375 249.707031 322.765625 249.777344 L 326.269531 250.269531 C 326.691406 250.339844 327.042969 250.269531 327.460938 250.058594 L 330.617188 248.378906 C 332.582031 247.324219 335.035156 248.097656 336.085938 250.128906 C 336.296875 250.480469 336.4375 250.898438 336.507812 251.320312 L 337.140625 254.824219 C 337.207031 255.246094 337.417969 255.597656 337.699219 255.875 L 340.222656 258.398438 C 341.835938 259.941406 341.835938 262.464844 340.292969 264.078125 C 340.015625 264.359375 339.664062 264.636719 339.3125 264.847656 L 336.15625 266.53125 C 335.804688 266.742188 335.527344 267.023438 335.316406 267.371094 L 333.703125 270.597656 C 333.140625 271.71875 332.019531 272.558594 330.757812 272.769531 C 330.40625 272.839844 330.195312 272.839844 329.988281 272.839844 Z M 322.132812 251.882812 C 321.640625 251.882812 321.152344 252.09375 320.730469 252.441406 C 320.308594 252.863281 320.097656 253.492188 320.167969 254.125 L 320.800781 257.628906 C 320.941406 258.46875 320.800781 259.3125 320.449219 260.082031 L 318.835938 263.308594 C 318.558594 263.867188 318.558594 264.5 318.835938 265.058594 C 319.117188 265.621094 319.609375 265.96875 320.238281 266.109375 L 323.746094 266.671875 C 324.585938 266.8125 325.359375 267.160156 325.988281 267.792969 L 328.515625 270.246094 C 328.933594 270.667969 329.566406 270.875 330.195312 270.804688 C 330.828125 270.738281 331.320312 270.316406 331.597656 269.753906 L 333.210938 266.53125 C 333.5625 265.761719 334.195312 265.128906 334.964844 264.777344 L 338.121094 263.097656 C 339.03125 262.605469 339.453125 261.414062 338.960938 260.503906 C 338.890625 260.292969 338.75 260.152344 338.613281 260.011719 L 336.085938 257.488281 C 335.457031 256.929688 335.105469 256.15625 334.964844 255.316406 L 334.335938 251.8125 C 334.195312 250.761719 333.210938 250.058594 332.160156 250.199219 C 331.949219 250.199219 331.738281 250.269531 331.527344 250.410156 L 328.375 252.09375 C 327.601562 252.511719 326.761719 252.652344 325.917969 252.511719 L 322.414062 252.023438 C 322.273438 251.882812 322.203125 251.882812 322.132812 251.882812 Z M 322.132812 251.882812 " fill-opacity="1" fill-rule="nonzero"/><path fill="#ffffff" d="M 209.027344 222.933594 L 205.664062 224.054688 C 205.101562 224.265625 204.539062 224.617188 204.191406 225.105469 L 202.085938 227.980469 C 201.105469 229.3125 199.28125 229.59375 197.949219 228.609375 C 197.667969 228.402344 197.457031 228.191406 197.316406 227.980469 L 195.214844 225.105469 C 194.863281 224.617188 194.304688 224.265625 193.742188 224.054688 L 190.304688 222.933594 C 188.761719 222.441406 187.851562 220.761719 188.414062 219.21875 C 188.484375 218.9375 188.625 218.65625 188.832031 218.378906 L 190.9375 215.503906 C 191.289062 215.011719 191.5 214.382812 191.5 213.75 L 191.5 210.175781 C 191.5 208.566406 192.902344 207.234375 194.511719 207.234375 C 194.792969 207.234375 195.074219 207.304688 195.355469 207.371094 L 198.789062 208.425781 C 199.351562 208.632812 200.054688 208.632812 200.613281 208.425781 L 204.050781 207.304688 C 205.59375 206.8125 207.273438 207.652344 207.765625 209.195312 C 207.835938 209.476562 207.90625 209.824219 207.90625 210.105469 L 207.90625 213.679688 C 207.90625 214.3125 208.117188 214.941406 208.46875 215.433594 L 210.570312 218.308594 C 211.550781 219.640625 211.203125 221.53125 209.871094 222.441406 C 209.519531 222.652344 209.308594 222.792969 209.027344 222.933594 Z M 209.027344 222.933594 " fill-opacity="1" fill-rule="nonzero"/><path fill="#000000" d="M 199.632812 230.292969 C 198.371094 230.292969 197.109375 229.664062 196.40625 228.679688 L 194.304688 225.808594 C 194.09375 225.457031 193.742188 225.246094 193.320312 225.105469 L 189.957031 223.984375 C 187.851562 223.285156 186.660156 221.039062 187.359375 218.9375 C 187.5 218.519531 187.710938 218.167969 187.921875 217.816406 L 190.027344 214.941406 C 190.234375 214.59375 190.375 214.242188 190.375 213.820312 L 190.375 210.175781 C 190.375 207.933594 192.199219 206.109375 194.441406 206.179688 C 194.863281 206.179688 195.285156 206.25 195.636719 206.390625 L 199.070312 207.441406 C 199.421875 207.582031 199.84375 207.582031 200.261719 207.441406 L 203.628906 206.320312 C 205.734375 205.621094 208.046875 206.8125 208.679688 208.914062 C 208.816406 209.335938 208.886719 209.757812 208.886719 210.175781 L 208.886719 213.75 C 208.886719 214.171875 209.027344 214.523438 209.238281 214.871094 L 211.34375 217.746094 C 212.675781 219.570312 212.253906 222.09375 210.5 223.355469 C 210.148438 223.632812 209.800781 223.773438 209.378906 223.914062 L 206.011719 225.035156 C 205.59375 225.175781 205.3125 225.386719 205.03125 225.738281 L 202.929688 228.609375 C 202.15625 229.664062 200.964844 230.292969 199.632812 230.292969 Z M 194.304688 208.285156 C 193.25 208.285156 192.410156 209.125 192.410156 210.175781 L 192.410156 213.75 C 192.410156 214.59375 192.128906 215.433594 191.636719 216.132812 L 189.535156 219.007812 C 188.902344 219.847656 189.113281 221.039062 189.957031 221.671875 C 190.097656 221.8125 190.304688 221.882812 190.515625 221.953125 L 193.953125 223.074219 C 194.722656 223.355469 195.425781 223.84375 195.984375 224.546875 L 198.089844 227.417969 C 198.441406 227.910156 199 228.191406 199.632812 228.191406 C 200.261719 228.191406 200.824219 227.910156 201.175781 227.417969 L 203.277344 224.546875 C 203.769531 223.84375 204.46875 223.355469 205.242188 223.074219 L 208.609375 221.953125 C 209.589844 221.601562 210.148438 220.480469 209.800781 219.5 C 209.730469 219.289062 209.660156 219.148438 209.519531 219.007812 L 207.414062 216.132812 C 206.925781 215.433594 206.644531 214.59375 206.644531 213.75 L 206.644531 210.175781 C 206.644531 209.125 205.804688 208.285156 204.75 208.285156 C 204.539062 208.285156 204.332031 208.285156 204.121094 208.355469 L 200.753906 209.476562 C 199.984375 209.757812 199.070312 209.757812 198.300781 209.476562 L 194.933594 208.425781 C 194.722656 208.285156 194.511719 208.285156 194.304688 208.285156 Z M 194.304688 208.285156 " fill-opacity="1" fill-rule="nonzero"/></svg>