<svg xmlns="http://www.w3.org/2000/svg" xmlns:xlink="http://www.w3.org/1999/xlink" width="500" zoomAndPan="magnify" viewBox="0 0 375 337.499995" height="450" preserveAspectRatio="xMidYMid meet" version="1.0"><defs><clipPath id="a2f01e80f8"><path d="M 37 4 L 372.472656 4 L 372.472656 294 L 37 294 Z M 37 4 " clip-rule="nonzero"/></clipPath><clipPath id="beee778c39"><path d="M 2.519531 38 L 27 38 L 27 67 L 2.519531 67 Z M 2.519531 38 " clip-rule="nonzero"/></clipPath></defs><g clip-path="url(#a2f01e80f8)"><path fill="#febf00" d="M 372.25 201.339844 C 371.363281 196.902344 372.472656 192.09375 371.511719 187.65625 C 370.328125 182.554688 367.886719 176.710938 362.488281 175.082031 C 356.050781 172.273438 349.691406 169.164062 343.183594 166.503906 C 334.011719 162.730469 324.617188 159.402344 315.152344 156.445312 C 311.972656 156.445312 309.679688 153.191406 306.574219 152.597656 C 297.550781 149.121094 287.785156 148.382812 278.910156 144.390625 C 274.175781 141.875 267.59375 141.578125 263.378906 138.398438 C 257.757812 134.40625 257.535156 118.429688 255.09375 111.179688 C 253.691406 105.265625 253.617188 98.902344 252.210938 92.988281 C 251.695312 89.730469 249.917969 86.699219 250.65625 83.222656 C 247.773438 74.050781 247.996094 63.847656 245.777344 54.453125 C 246 47.648438 244.371094 41.140625 243.78125 34.484375 C 244 32.488281 242.816406 30.636719 242.816406 28.714844 C 243.1875 25.460938 241.5625 22.355469 240.894531 19.246094 C 239.859375 13.699219 235.199219 9.335938 230.394531 7.339844 C 229.285156 7.710938 228.617188 6.75 227.804688 6.15625 C 226.621094 5.492188 225.066406 5.859375 224.03125 4.675781 C 215.527344 3.9375 206.800781 5.195312 198.664062 7.5625 C 196.742188 7.117188 195.261719 8.671875 193.339844 8.671875 C 190.15625 9.261719 186.976562 10.964844 183.648438 11.113281 C 180.839844 11.554688 178.621094 13.035156 175.734375 12.664062 C 172.113281 13.550781 168.488281 15.402344 164.789062 15.179688 C 163.53125 15.105469 162.71875 17.027344 161.3125 16.214844 C 160.945312 16.066406 160.5 16.214844 160.203125 16.511719 C 159.316406 17.25 157.835938 16.808594 157.023438 17.769531 C 156.949219 17.84375 156.578125 17.769531 156.359375 17.769531 C 152.734375 17.621094 149.628906 19.46875 146.226562 20.136719 C 145.335938 20.652344 144.523438 21.246094 143.414062 20.578125 C 143.117188 20.429688 142.75 20.578125 142.453125 20.726562 C 141.417969 21.316406 140.160156 21.171875 139.199219 22.058594 C 138.976562 22.28125 138.535156 22.207031 138.238281 22.058594 C 135.648438 21.835938 133.058594 22.945312 130.621094 23.683594 C 126.847656 23.832031 123.074219 25.164062 119.304688 25.902344 C 115.679688 26.570312 111.90625 27.457031 108.285156 27.902344 C 107.246094 27.753906 106.582031 28.121094 105.917969 28.789062 C 105.101562 29.601562 104.066406 30.121094 102.882812 29.230469 C 100.515625 29.011719 97.929688 30.5625 95.488281 31.007812 C 92.382812 32.042969 88.90625 31.820312 85.949219 33.375 C 83.65625 33.375 81.4375 34.707031 79.144531 34.851562 C 78.179688 34.851562 77.441406 35 76.777344 35.742188 C 75.371094 35.371094 75 35.371094 73.667969 35.886719 C 71.304688 36.480469 68.789062 35.742188 66.644531 37.515625 C 66.496094 37.589844 66.273438 37.664062 66.199219 37.589844 C 65.164062 37.070312 64.71875 37.886719 63.980469 38.328125 C 63.316406 38.699219 62.28125 38.179688 61.761719 39.070312 C 61.171875 39.734375 59.914062 39.363281 59.46875 40.328125 C 55.84375 43.359375 51.628906 45.949219 47.117188 47.648438 C 38.167969 51.421875 36.394531 61.921875 37.796875 70.578125 C 37.355469 76.863281 39.425781 82.707031 40.757812 88.621094 C 41.71875 93.652344 44.234375 98.164062 44.308594 103.339844 C 44.308594 105.191406 46.007812 106.667969 45.933594 108.445312 C 45.785156 109.703125 46.75 110.8125 46.304688 112.066406 C 49.1875 123.164062 49.113281 135.441406 52.296875 146.609375 C 53.921875 152.671875 54.144531 159.105469 55.992188 165.171875 C 56.214844 166.355469 57.101562 167.390625 56.4375 168.722656 C 56.4375 168.871094 56.4375 169.019531 56.511719 169.238281 C 57.917969 172.640625 57.25 176.414062 58.433594 179.890625 C 57.695312 181.589844 59.46875 182.699219 59.394531 184.328125 C 60.136719 188.027344 60.949219 191.722656 61.613281 195.496094 C 62.5 198.378906 61.316406 201.78125 62.574219 204.371094 C 63.242188 204.964844 63.316406 205.703125 63.019531 206.515625 C 62.355469 208.808594 63.980469 211.027344 63.019531 213.320312 C 62.871094 213.691406 63.019531 213.984375 63.242188 214.28125 C 64.5 216.132812 63.242188 219.015625 65.015625 220.644531 C 66.792969 222.269531 67.011719 224.859375 69.304688 225.894531 C 69.675781 226.042969 69.824219 226.484375 70.046875 226.78125 C 71.082031 228.261719 72.339844 230.257812 74.335938 230.480469 C 74.707031 230.480469 75.148438 230.703125 75.371094 230.996094 C 77.441406 233.511719 80.992188 233.660156 84.023438 234.175781 C 87.574219 234.398438 90.902344 235.804688 94.453125 236.027344 C 96.523438 236.25 97.1875 238.171875 99.113281 238.613281 C 102.070312 239.503906 104.289062 241.945312 107.394531 242.609375 C 113.535156 247.710938 121.300781 250.746094 127.882812 255.257812 C 133.503906 258.734375 139.050781 262.207031 144.894531 265.316406 C 146.890625 265.757812 148.371094 267.089844 150.21875 267.902344 C 151.921875 269.085938 154.285156 269.160156 155.765625 270.863281 C 163.753906 274.855469 171.667969 279.8125 179.953125 283.214844 C 183.648438 286.097656 187.9375 288.019531 192.230469 289.871094 C 194.964844 291.347656 197.40625 293.199219 200.585938 293.492188 C 200.808594 293.492188 201.105469 293.492188 201.253906 293.347656 C 201.992188 292.679688 202.878906 292.976562 203.691406 293.050781 C 207.835938 293.492188 212.050781 292.238281 216.191406 291.867188 C 223.21875 290.460938 230.097656 287.28125 236.605469 284.175781 C 237.195312 283.804688 238.011719 283.953125 238.453125 283.363281 C 239.5625 281.957031 241.265625 281.660156 242.671875 280.773438 C 244.964844 279.8125 246.960938 277.886719 249.179688 277.074219 C 250.953125 277.296875 251.839844 275.667969 253.394531 275.300781 C 254.578125 275.078125 255.835938 274.929688 256.648438 273.746094 C 260.273438 272.414062 263.824219 270.789062 267.445312 269.308594 C 271.8125 267.386719 276.175781 264.796875 280.464844 263.023438 C 282.238281 263.023438 283.347656 261.839844 284.753906 261.023438 C 292.519531 257.84375 299.988281 254.664062 307.683594 251.335938 C 307.828125 251.335938 307.902344 251.113281 307.976562 250.964844 C 308.496094 249.929688 309.828125 250.375 310.566406 249.636719 C 313.820312 247.269531 317.8125 246.085938 320.847656 243.496094 C 325.875 241.054688 329.722656 236.691406 334.898438 234.398438 C 335.933594 233.363281 337.636719 233.214844 338.300781 231.738281 C 338.300781 231.589844 338.671875 231.515625 338.894531 231.441406 C 342.960938 230.257812 345.992188 226.78125 350.210938 225.96875 C 351.6875 225.15625 353.242188 224.339844 354.867188 223.824219 C 356.71875 222.121094 358.863281 220.714844 361.007812 219.460938 C 362.265625 219.015625 363.375 218.425781 363.890625 217.09375 C 364.261719 216.203125 365 215.6875 365.890625 215.464844 C 368.402344 215.09375 369.4375 212.582031 371.4375 211.398438 C 370.328125 207.847656 372.324219 204.742188 371.953125 201.265625 Z M 372.25 201.339844 " fill-opacity="1" fill-rule="nonzero"/></g><path fill="#1cbc7c" d="M 201.253906 101.121094 C 200.808594 95.351562 196.886719 90.546875 194.078125 85.664062 C 192.894531 84.183594 193.414062 81.816406 191.265625 80.929688 C 189.121094 79.304688 188.234375 76.492188 186.015625 74.867188 C 179.804688 70.355469 171.445312 67.765625 163.753906 68.210938 C 154.433594 70.28125 145.632812 76.863281 141.046875 85.148438 C 133.503906 98.976562 131.949219 115.324219 141.046875 128.785156 C 143.636719 130.707031 147.410156 135.734375 150.664062 133.441406 C 151.699219 134.035156 152.660156 134.773438 153.621094 135.660156 C 151.550781 144.535156 167.007812 144.316406 172.480469 142.613281 C 177.214844 141.207031 181.503906 139.136719 184.757812 135.441406 C 188.753906 132.1875 192.746094 128.339844 195.261719 123.679688 C 195.925781 121.3125 197.332031 119.167969 198.144531 116.949219 C 199.253906 111.625 202.507812 106.816406 201.253906 101.121094 Z M 201.253906 101.121094 " fill-opacity="1" fill-rule="nonzero"/><path fill="#4a71f6" d="M 362.5625 192.980469 C 362.707031 190.464844 359.085938 191.574219 359.234375 188.988281 C 358.789062 186.027344 355.089844 184.917969 352.574219 184.105469 C 339.261719 181.371094 327.207031 174.785156 313.894531 172.125 C 304.796875 169.164062 296.660156 162.582031 289.414062 156.960938 C 279.207031 153.484375 269.664062 146.089844 258.496094 146.386719 C 256.945312 143.058594 255.023438 140.246094 251.101562 139.582031 C 250.214844 123.53125 247.921875 106.890625 243.925781 91.285156 C 242.746094 86.328125 242.890625 80.636719 239.785156 76.199219 C 238.824219 74.71875 240.746094 74.347656 238.453125 72.425781 C 238.972656 71.242188 239.121094 70.207031 238.304688 69.320312 C 237.863281 67.839844 238.011719 66.066406 237.492188 64.585938 C 236.605469 62.664062 236.308594 60.589844 235.71875 58.59375 C 234.683594 56.746094 234.015625 54.96875 233.941406 52.824219 C 229.875 44.023438 229.726562 33.597656 224.550781 25.3125 C 219.890625 17.917969 209.386719 24.351562 202.4375 23.683594 C 186.3125 24.941406 170.039062 29.453125 154.214844 31.007812 C 165.457031 26.867188 177.878906 27.234375 189.34375 23.683594 C 190.011719 23.539062 190.527344 23.316406 190.527344 22.5 C 189.863281 18.582031 180.46875 21.835938 177.660156 22.132812 C 164.199219 25.238281 150.292969 27.160156 137.203125 31.304688 C 118.195312 32.929688 99.335938 37.144531 82.027344 45.429688 C 81.804688 46.019531 82.472656 46.167969 82.324219 46.6875 C 80.769531 47.351562 79.144531 47.945312 78.109375 49.277344 C 78.035156 50.089844 78.847656 50.238281 78.921875 50.902344 C 76.925781 52.011719 74.925781 53.195312 72.632812 53.640625 C 72.339844 53.640625 71.894531 53.714844 71.96875 54.230469 C 72.265625 54.675781 73.003906 54.378906 73.152344 55.042969 C 72.707031 55.488281 72.191406 55.636719 71.597656 55.488281 C 68.121094 55.117188 65.535156 58.371094 62.648438 59.925781 C 59.246094 54.230469 58.433594 57.1875 56.140625 61.628906 C 55.402344 64.214844 53.921875 66.65625 53.550781 69.246094 C 53.921875 71.539062 53.109375 73.832031 53.109375 76.125 C 53.996094 79.378906 53.773438 83.074219 55.84375 85.960938 C 56.066406 88.695312 56.585938 91.507812 56.660156 94.242188 C 57.027344 95.574219 57.769531 96.683594 57.621094 98.089844 C 57.621094 98.753906 57.472656 99.570312 57.917969 100.011719 C 59.027344 101.046875 58.804688 102.378906 58.65625 103.5625 C 58.65625 105.632812 59.542969 107.628906 59.46875 109.628906 C 60.652344 111.105469 59.988281 113.25 60.949219 114.730469 C 61.464844 115.324219 61.464844 115.914062 61.539062 116.578125 C 61.246094 119.835938 63.832031 122.125 63.539062 125.308594 C 63.683594 127.601562 65.609375 129.449219 65.3125 131.890625 C 65.3125 133.074219 66.792969 133.589844 66.421875 134.921875 C 66.273438 136.476562 66.496094 138.027344 67.160156 139.359375 C 68.9375 142.835938 68.121094 146.757812 69.75 150.230469 C 68.789062 160.957031 70.636719 171.679688 72.042969 182.332031 C 72.558594 185.4375 72.558594 188.765625 73.152344 191.796875 C 73.742188 193.277344 73.300781 194.386719 72.414062 195.496094 C 71.523438 196.605469 71.449219 197.863281 71.746094 199.121094 C 73.078125 202.890625 72.558594 206.8125 72.929688 210.65625 C 74.777344 217.019531 81.066406 220.273438 87.277344 220.496094 C 90.3125 221.824219 93.640625 222.34375 96.820312 222.714844 C 98.226562 223.304688 99.261719 222.121094 100.519531 222.269531 C 102.144531 222.640625 103.699219 224.117188 105.472656 223.527344 C 106.285156 223.230469 106.878906 223.453125 107.320312 224.265625 C 107.617188 224.785156 108.136719 225.082031 108.726562 225.082031 C 111.019531 225.082031 112.425781 227.300781 114.644531 227.667969 C 120.929688 230.773438 127.660156 233.214844 133.578125 237.0625 C 146.667969 245.417969 160.722656 252.148438 173.515625 261.097656 C 179.136719 264.425781 185.203125 266.867188 190.601562 270.566406 C 193.265625 271.453125 195.558594 274.191406 198.589844 273.96875 C 199.996094 270.789062 197.925781 266.351562 200.734375 263.6875 C 201.472656 264.425781 200.957031 265.390625 201.398438 266.128906 C 202.507812 265.167969 202.582031 263.242188 204.359375 262.949219 C 204.65625 263.613281 204.726562 264.132812 204.0625 264.425781 C 201.546875 266.941406 200.734375 271.601562 201.324219 275.078125 C 203.324219 275.890625 205.46875 275.816406 207.539062 275.667969 C 211.089844 275.816406 214.34375 278.109375 217.96875 277.296875 C 231.648438 274.855469 242.152344 264.871094 254.058594 258.363281 C 262.714844 253.113281 272.699219 251.707031 281.871094 247.269531 C 286.898438 245.273438 292.445312 244.976562 297.105469 242.015625 C 298.511719 242.015625 299.398438 241.351562 299.914062 240.167969 C 302.652344 239.945312 304.945312 237.652344 307.386719 236.46875 C 309.011719 235.582031 310.863281 235.140625 312.046875 233.660156 C 318.628906 230.628906 324.765625 225.96875 331.496094 223.230469 C 335.714844 221.824219 339.261719 219.238281 343.257812 217.460938 C 344.070312 217.316406 344.664062 216.945312 345.253906 216.277344 C 346.289062 214.949219 348.0625 214.726562 349.394531 213.839844 C 359.824219 207.550781 363.449219 206.664062 362.414062 192.90625 Z M 62.207031 79.597656 C 61.613281 76.125 60.949219 72.648438 61.097656 69.171875 C 61.984375 72.796875 62.574219 76.492188 62.796875 80.265625 C 62.429688 80.265625 62.28125 79.96875 62.207031 79.597656 Z M 63.316406 85.148438 C 63.019531 83.519531 62.207031 81.964844 62.871094 80.265625 C 63.757812 81.816406 63.980469 83.59375 64.128906 85.292969 C 63.683594 85.515625 63.390625 85.292969 63.390625 85.074219 Z M 247.183594 152.523438 C 245.109375 154.523438 242.375 155.1875 240.007812 156.816406 C 239.488281 156 238.898438 155.558594 238.160156 154.890625 C 241.191406 153.632812 244.148438 153.117188 247.183594 152.523438 Z M 136.316406 36.109375 C 136.90625 35.816406 137.351562 36.332031 137.792969 37 C 136.242188 37.367188 134.984375 38.035156 133.429688 37.8125 C 133.949219 36.40625 135.351562 36.628906 136.316406 36.183594 Z M 84.542969 51.566406 C 97.261719 48.535156 109.46875 44.542969 122.1875 41.363281 C 119.820312 42.914062 117.378906 43.285156 115.015625 44.765625 C 114.199219 45.132812 113.386719 45.578125 112.425781 45.355469 C 111.316406 45.207031 110.429688 46.167969 109.394531 46.167969 C 103.625 46.539062 98.816406 50.164062 93.121094 50.605469 C 88.3125 50.457031 83.800781 53.789062 79.21875 53.492188 C 81.066406 52.898438 82.765625 52.085938 84.617188 51.566406 Z M 67.605469 100.972656 C 67.085938 100.382812 67.011719 99.863281 66.9375 99.050781 C 67.53125 99.644531 67.753906 100.085938 67.605469 100.972656 Z M 92.824219 200.007812 C 92.085938 199.785156 92.308594 199.269531 92.382812 198.824219 C 92.972656 199.121094 93.121094 199.488281 92.824219 200.007812 Z M 99.113281 208.511719 C 98.816406 209.328125 98.59375 210.140625 97.558594 210.730469 C 93.269531 207.550781 97.042969 202.300781 93.789062 198.675781 C 93.195312 197.9375 92.75 197.125 92.898438 196.015625 C 98.667969 196.382812 100.589844 203.707031 99.1875 208.585938 Z M 97.117188 178.929688 C 95.5625 179.667969 93.269531 179.152344 92.382812 177.96875 C 92.234375 175.894531 90.53125 174.195312 90.976562 171.976562 C 91.496094 165.46875 89.792969 159.035156 88.460938 152.746094 C 86.761719 141.0625 81.582031 130.113281 80.105469 118.429688 C 80.105469 117.984375 80.179688 117.46875 79.882812 117.097656 C 78.402344 114.953125 79.882812 112.289062 78.699219 109.921875 C 77.664062 107.335938 78.476562 104.300781 77.144531 101.789062 C 75.445312 96.757812 75.886719 91.136719 73.597656 86.183594 C 73.816406 82.039062 72.042969 78.121094 70.933594 74.273438 C 70.488281 73.238281 70.785156 72.054688 69.304688 71.6875 C 69.898438 69.613281 67.828125 69.171875 67.753906 67.246094 C 75.296875 62.367188 85.132812 63.917969 93.121094 60.222656 C 94.527344 58.226562 96.96875 58.59375 98.890625 57.632812 C 103.179688 55.859375 107.839844 54.96875 112.277344 53.492188 C 117.601562 52.53125 122.261719 49.941406 127.585938 49.277344 C 133.800781 45.875 140.898438 44.839844 147.628906 42.839844 C 155.988281 39.734375 164.640625 37.21875 173.367188 35.371094 C 185.941406 32.707031 198.8125 31.523438 211.015625 27.679688 C 218.335938 23.90625 219.816406 34.707031 221.664062 39.4375 C 223.144531 45.355469 225.4375 51.496094 224.917969 57.558594 C 225.511719 59.113281 224.917969 60.960938 225.957031 62.367188 C 226.25 65.621094 226.175781 69.023438 227.804688 72.054688 C 228.246094 75.160156 228.765625 78.269531 229.578125 81.375 C 229.949219 84.703125 230.171875 88.03125 230.835938 91.285156 C 230.761719 92.394531 230.613281 93.503906 231.28125 94.539062 C 231.132812 97.203125 232.242188 99.789062 232.242188 102.527344 C 232.167969 104.082031 232.316406 105.78125 232.980469 107.335938 C 233.277344 111.847656 234.164062 116.285156 235.125 120.648438 C 235.199219 122.496094 236.53125 124.050781 236.160156 126.046875 C 237.417969 128.117188 237.417969 130.335938 237.789062 132.554688 C 237.9375 132.925781 237.9375 133.367188 237.640625 133.664062 C 229.355469 142.910156 211.53125 143.28125 199.996094 147.421875 C 184.90625 150.824219 169.964844 154.742188 154.804688 157.925781 C 134.613281 161.695312 114.867188 168.128906 97.1875 178.78125 Z M 230.6875 160.070312 C 230.6875 160.660156 230.320312 161.03125 229.800781 161.179688 C 222.847656 164.433594 215.601562 166.503906 208.128906 168.277344 C 205.984375 168.648438 203.914062 170.644531 201.769531 170.054688 C 204.726562 166.28125 210.347656 166.132812 214.417969 163.765625 C 219.816406 161.398438 225.4375 159.328125 231.058594 157.703125 C 230.984375 158.515625 230.613281 159.253906 230.6875 159.996094 Z M 140.457031 198.75 C 131.285156 202.597656 121.449219 206.960938 111.390625 208.144531 C 109.246094 207.550781 107.988281 204.667969 110.429688 203.558594 C 111.242188 203.78125 110.132812 205.035156 111.6875 204.519531 C 118.269531 202.375 124.257812 198.75 130.695312 196.308594 C 142.675781 191.648438 154.433594 186.027344 166.710938 182.183594 C 170.855469 180.554688 175.21875 179.226562 179.285156 177.300781 C 182.023438 176.265625 184.683594 174.492188 187.792969 174.714844 C 180.765625 181.8125 170.1875 184.84375 161.238281 189.136719 C 154.507812 192.683594 147.1875 195.421875 140.382812 198.675781 Z M 189.714844 228.703125 C 183.425781 230.40625 178.101562 236.175781 171.222656 234.917969 C 160.574219 233.066406 151.402344 226.410156 142.898438 220.050781 C 145.335938 218.425781 152.734375 223.675781 155.46875 224.933594 C 161.164062 228.410156 167.527344 230.921875 174.035156 232.253906 C 181.578125 229.296875 189.121094 225.300781 196.886719 222.640625 C 202.878906 220.570312 208.945312 218.644531 214.195312 214.949219 C 225.214844 208.808594 236.382812 201.191406 249.105469 199.488281 C 249.105469 200.082031 248.734375 200.230469 248.367188 200.378906 C 239.859375 204.222656 231.429688 208.144531 223.367188 212.875 C 213.160156 220.347656 201.03125 223.601562 189.640625 228.703125 Z M 261.824219 237.652344 C 247.328125 243.496094 233.203125 250.226562 218.632812 256.144531 C 210.941406 259.769531 201.917969 264.425781 193.414062 261.023438 C 195.558594 259.175781 198.292969 259.914062 200.808594 259.25 C 209.460938 256.957031 216.933594 251.707031 225.585938 249.5625 C 238.085938 244.679688 250.140625 238.171875 263.304688 235.507812 C 263.304688 236.691406 262.566406 237.210938 261.824219 237.726562 Z M 278.46875 211.25 C 268.703125 216.5 258.941406 224.636719 247.625 225.375 C 248.585938 223.082031 251.175781 223.007812 253.171875 221.972656 C 257.90625 220.273438 262.195312 217.757812 266.484375 215.242188 C 270.921875 213.023438 275.878906 208.4375 281.054688 209.546875 C 280.316406 210.363281 279.355469 210.730469 278.542969 211.25 Z M 281.945312 189.726562 C 280.6875 191.132812 261.972656 196.53125 266.335938 191.574219 C 275.214844 188.46875 283.867188 184.550781 292.742188 181.8125 C 296.585938 181 300.953125 179.816406 303.171875 176.488281 C 311.15625 182.625 285.566406 187.582031 281.945312 189.652344 Z M 342.738281 195.050781 C 336.894531 197.125 332.53125 201.707031 326.617188 203.558594 C 317 206.144531 308.273438 211.398438 299.324219 215.761719 C 298.734375 216.058594 297.992188 216.203125 298.140625 217.316406 C 294.148438 216.574219 290.003906 223.15625 285.714844 221.160156 C 285.492188 219.902344 287.417969 219.535156 288.15625 218.941406 C 294.960938 215.464844 301.097656 210.804688 308.421875 208.292969 C 320.699219 202.449219 332.828125 196.015625 344.441406 188.988281 C 345.773438 190.464844 345.84375 190.984375 344.734375 192.390625 C 345.03125 192.757812 345.476562 192.390625 345.699219 192.757812 C 345.03125 194.015625 343.921875 194.683594 342.738281 195.050781 Z M 342.738281 195.050781 " fill-opacity="1" fill-rule="nonzero"/><path fill="#1cbc7c" d="M 245.332031 305.699219 C 240.820312 303.480469 236.234375 300.964844 234.683594 295.785156 C 231.871094 295.34375 229.800781 296.230469 228.320312 298.523438 C 226.324219 301.261719 223.144531 302.589844 220.335938 304.367188 C 218.117188 305.699219 217.523438 306.953125 218.042969 309.542969 C 219.59375 313.980469 226.992188 305.992188 229.0625 304.515625 C 231.722656 306.585938 224.625 311.984375 223.070312 313.613281 C 214.269531 322.929688 201.179688 324.707031 189.417969 325.222656 C 188.457031 324.707031 187.71875 323.816406 186.535156 324.410156 C 184.535156 323.226562 182.097656 323.300781 179.878906 322.339844 C 178.25 321.671875 176.84375 320.34375 174.847656 320.636719 C 173.296875 319.972656 172.039062 318.417969 170.113281 318.34375 C 169.820312 317.160156 170.707031 316.496094 171.296875 315.832031 C 175.585938 311.394531 175.367188 304.664062 172.925781 299.261719 C 169.894531 293.347656 159.613281 292.976562 156.136719 298.671875 C 152.4375 304.882812 155.617188 310.355469 158.871094 315.609375 C 129.140625 321.304688 142.824219 279.8125 123.148438 270.789062 C 119.527344 268.863281 115.679688 268.199219 111.6875 267.386719 C 109.023438 267.015625 109.6875 271.304688 111.167969 272.339844 C 137.203125 273.894531 128.546875 299.707031 139.199219 315.089844 C 143.5625 321.007812 151.328125 324.484375 158.652344 323.300781 C 161.238281 323.152344 163.828125 320.488281 166.34375 321.523438 C 187.71875 336.835938 222.996094 336.539062 232.539062 308.285156 C 236.976562 311.320312 242.671875 311.6875 246.960938 308.0625 C 246.441406 306.660156 246.144531 306.289062 245.183594 305.773438 Z M 167.453125 310.578125 C 166.269531 311.464844 165.011719 312.355469 163.828125 313.242188 C 161.3125 312.355469 159.90625 309.988281 158.28125 307.992188 C 156.507812 305.402344 158.871094 301.777344 161.386719 300.667969 C 170.632812 298.003906 175.070312 303.699219 167.453125 310.578125 Z M 167.453125 310.578125 " fill-opacity="1" fill-rule="nonzero"/><path fill="#d755b3" d="M 32.992188 36.109375 C 37.28125 46.242188 39.648438 36.035156 41.941406 31.304688 C 42.015625 31.082031 42.238281 30.710938 42.457031 30.636719 C 43.714844 30.414062 44.160156 29.527344 44.457031 28.417969 C 45.933594 27.011719 47.414062 25.238281 49.410156 24.5 C 50.59375 23.90625 53.109375 22.722656 52.367188 21.097656 C 51.777344 19.394531 49.78125 19.988281 48.597656 19.027344 C 44.308594 16.066406 39.574219 13.035156 38.539062 7.5625 C 36.320312 6.082031 37.652344 3.347656 36.246094 1.496094 C 35.359375 0.164062 33.140625 1.644531 33.140625 2.976562 C 33.140625 6.230469 32.398438 9.335938 30.921875 12.222656 C 28.777344 16.289062 25.152344 19.394531 20.714844 20.578125 C 18.863281 21.171875 18.570312 23.242188 19.234375 24.867188 C 20.492188 25.386719 21.824219 25.902344 23.15625 26.421875 C 27.296875 28.269531 31.140625 31.820312 32.917969 36.035156 Z M 32.992188 36.109375 " fill-opacity="1" fill-rule="nonzero"/><path fill="#d755b3" d="M 44.160156 180.554688 C 42.015625 179.003906 42.308594 173.605469 40.089844 173.824219 C 37.503906 174.640625 39.425781 178.78125 37.871094 180.554688 C 34.988281 186.621094 32.695312 184.917969 29.589844 188.394531 C 28.183594 190.613281 33.214844 190.171875 34.175781 191.648438 C 40.089844 194.90625 40.683594 203.632812 43.640625 203.78125 C 45.566406 198.304688 43.789062 192.832031 50.445312 189.652344 C 51.851562 188.914062 52.441406 187.804688 52.664062 186.324219 C 49.929688 184.105469 46.304688 183.589844 44.234375 180.480469 Z M 44.160156 180.554688 " fill-opacity="1" fill-rule="nonzero"/><g clip-path="url(#beee778c39)"><path fill="#d755b3" d="M 24.558594 51.421875 C 15.390625 50.753906 14.058594 33.964844 11.988281 39.363281 C 11.542969 44.910156 8.140625 49.941406 3.777344 53.195312 C 3.183594 53.640625 2.519531 54.15625 2.519531 54.96875 C 15.019531 57.78125 12.652344 67.394531 17.3125 66.210938 C 17.828125 60.519531 19.753906 54.378906 26.1875 53.269531 C 26.335938 51.789062 25.449219 51.640625 24.558594 51.421875 Z M 24.558594 51.421875 " fill-opacity="1" fill-rule="nonzero"/></g><path fill="#febf00" d="M 289.785156 87.21875 C 289.785156 85 289.265625 82.78125 289.265625 80.5625 C 289.265625 79.304688 289.117188 79.007812 287.859375 79.082031 C 283.71875 78.785156 260.125 86.921875 273.066406 90.398438 C 276.914062 90.324219 291.78125 93.800781 289.785156 87.21875 Z M 289.785156 87.21875 " fill-opacity="1" fill-rule="nonzero"/><path fill="#febf00" d="M 278.46875 67.617188 C 280.539062 65.992188 273.511719 54.082031 271.21875 58.371094 C 269.664062 60.960938 258.351562 78.636719 265.007812 78.269531 C 265.671875 78.488281 266.117188 78.046875 266.707031 77.601562 C 270.628906 74.125 275.582031 71.980469 278.542969 67.617188 Z M 278.46875 67.617188 " fill-opacity="1" fill-rule="nonzero"/><path fill="#febf00" d="M 285.566406 101.714844 C 281.128906 101.195312 276.691406 101.195312 272.179688 101.046875 C 270.480469 100.898438 267.375 100.308594 268.484375 103.117188 C 270.40625 107.628906 275.507812 109.777344 279.355469 112.4375 C 280.464844 113.324219 281.648438 112.511719 282.609375 113.84375 C 284.382812 111.625 287.492188 110.144531 286.824219 106.964844 C 287.566406 104.671875 289.042969 102.453125 285.492188 101.789062 Z M 285.566406 101.714844 " fill-opacity="1" fill-rule="nonzero"/><path fill="#ffffff" d="M 362.339844 187.136719 C 360.269531 178.1875 348.730469 177.375 341.480469 174.640625 C 334.824219 171.976562 328.316406 169.019531 321.289062 167.316406 C 309.234375 163.398438 297.328125 159.179688 285.050781 155.925781 C 275.359375 152.523438 265.820312 147.71875 255.390625 146.757812 C 254.28125 142.835938 254.578125 138.25 249.769531 136.625 C 245.035156 107.558594 240.820312 78.417969 235.792969 49.347656 C 234.683594 39.289062 233.425781 28.9375 230.171875 19.394531 C 229.285156 17.695312 228.027344 15.992188 225.585938 16.363281 C 220.40625 13.773438 214.195312 14.144531 208.5 15.476562 C 206.058594 16.953125 203.101562 16.511719 200.289062 16.953125 C 199.847656 16.953125 199.402344 17.027344 199.035156 17.398438 C 198.070312 18.359375 196.667969 17.917969 195.484375 18.210938 C 192.96875 19.691406 189.863281 19.320312 187.199219 20.207031 C 182.316406 22.28125 176.917969 22.28125 171.890625 23.832031 C 162.347656 26.273438 152.808594 28.9375 143.191406 30.933594 C 139.496094 33.152344 134.6875 32.558594 130.695312 34.410156 C 122.1875 35.960938 113.683594 39.4375 105.175781 40.472656 C 114.273438 35.667969 126.035156 35.886719 134.539062 30.269531 C 119.597656 31.96875 105.25 38.035156 91.125 42.839844 C 86.316406 43.65625 81.363281 43.875 76.925781 45.726562 C 67.234375 46.242188 59.027344 51.050781 51.554688 56.597656 C 41.71875 63.550781 50.371094 79.597656 50.890625 89.4375 C 53.847656 103.339844 56.660156 117.246094 59.691406 131.078125 C 60.503906 136.84375 61.984375 142.539062 62.945312 148.308594 C 63.019531 148.679688 63.167969 149.046875 62.429688 149.34375 C 59.988281 141.949219 59.171875 134.109375 56.734375 126.636719 C 53.699219 133.664062 61.171875 150.304688 62.945312 158.144531 C 66.199219 168.054688 67.457031 178.410156 70.269531 188.46875 C 72.265625 196.308594 75.59375 204.074219 77.589844 211.621094 C 78.328125 212.582031 78.328125 214.058594 79.585938 214.652344 C 80.769531 215.613281 81.730469 217.019531 83.507812 217.019531 C 85.207031 216.871094 86.464844 217.535156 87.574219 218.867188 C 98.226562 225.671875 109.171875 231.886719 120.414062 237.652344 C 138.902344 249.117188 158.28125 258.878906 177.4375 269.160156 C 185.867188 273.375 196.742188 281.511719 206.28125 280.105469 C 218.632812 276.777344 229.726562 269.753906 241.707031 265.242188 C 251.398438 260.136719 261.972656 256.660156 271.664062 251.410156 C 273.066406 251.113281 273.957031 249.855469 275.140625 249.117188 C 277.578125 247.859375 280.09375 246.824219 282.386719 245.34375 C 284.015625 243.644531 286.527344 243.347656 288.527344 242.3125 C 290.226562 240.980469 291.929688 239.796875 294 239.28125 C 298.734375 236.617188 303.835938 234.175781 308.496094 231.292969 C 309.679688 229.886719 311.527344 229.59375 312.785156 228.484375 C 313.96875 226.78125 316.261719 226.78125 317.59375 225.226562 C 324.914062 221.457031 332.902344 218.496094 339.78125 214.207031 C 351.984375 208.070312 366.109375 204 362.265625 187.066406 Z M 247.328125 142.316406 C 250.65625 142.316406 253.691406 145.054688 249.328125 146.828125 C 245.109375 147.644531 241.5625 150.378906 237.269531 151.121094 C 236.160156 151.339844 235.792969 152.304688 234.976562 152.746094 C 234.164062 153.191406 233.128906 152.449219 232.390625 153.117188 C 227.730469 155.1875 222.332031 156.667969 217.449219 158.8125 C 199.328125 166.429688 181.949219 175.007812 163.53125 182.035156 C 154.214844 184.105469 145.191406 188.246094 136.535156 191.648438 C 127.21875 194.089844 117.601562 197.640625 108.652344 201.5625 C 107.027344 202.449219 105.175781 202.746094 103.773438 204 C 102.589844 204.667969 101.035156 204.445312 100.222656 205.703125 C 99.703125 206.292969 99.113281 206.589844 98.003906 206.292969 C 98.226562 203.632812 97.335938 201.265625 96.523438 198.824219 C 112.5 195.050781 127.511719 188.027344 142.75 182.183594 C 157.320312 177.078125 171.59375 170.203125 186.3125 165.320312 C 196.222656 160.511719 207.984375 158.144531 218.1875 153.707031 C 226.992188 151.265625 234.976562 146.386719 243.78125 143.648438 C 244.964844 143.058594 245.628906 141.578125 247.253906 142.171875 Z M 61.835938 58.890625 C 66.71875 56.375 72.707031 56.375 77.441406 53.859375 C 78.179688 53.121094 79.21875 53.046875 80.105469 53.566406 C 80.769531 53.933594 81.363281 53.933594 81.953125 53.566406 C 84.394531 51.9375 87.351562 53.046875 89.941406 51.789062 C 107.914062 46.464844 126.257812 42.472656 144.375 37.664062 C 170.78125 32.117188 196.519531 24.054688 223.515625 22.355469 C 225.140625 24.351562 224.84375 26.867188 225.4375 29.304688 C 225.660156 30.339844 226.769531 31.082031 226.027344 32.265625 C 227.359375 39.070312 228.765625 46.167969 229.136719 53.195312 C 230.097656 56.078125 229.652344 59.335938 230.910156 62.21875 C 231.648438 63.105469 230.910156 64.214844 231.429688 65.101562 C 233.277344 71.167969 233.203125 77.601562 235.421875 83.59375 C 238.085938 101.417969 242.671875 118.945312 244.445312 136.917969 C 227.65625 145.644531 209.019531 150.527344 191.339844 156.742188 C 179.953125 161.324219 168.855469 165.320312 157.542969 169.980469 C 153.84375 171.679688 149.847656 172.273438 146.300781 174.34375 C 144.300781 175.230469 141.789062 175.230469 140.457031 177.078125 C 139.125 176.710938 138.015625 177.375 136.832031 177.894531 C 130.914062 180.703125 124.628906 182.699219 118.5625 185.214844 C 113.386719 186.992188 108.359375 189.652344 103.179688 191.429688 C 98.890625 192.464844 95.117188 194.3125 91.273438 196.308594 C 90.828125 193.941406 90.015625 191.503906 90.3125 189.136719 C 87.058594 176.859375 85.058594 164.210938 81.878906 152.007812 C 79.734375 144.242188 79.363281 135.660156 76.035156 128.339844 C 74.925781 121.683594 73.597656 115.101562 71.746094 108.59375 C 71.523438 102.75 69.824219 97.203125 68.269531 91.65625 C 68.121094 90.25 68.417969 88.546875 67.308594 87.367188 C 67.085938 87.144531 67.011719 86.921875 67.085938 86.625 C 67.457031 84.703125 66.125 83.074219 66.273438 81.226562 C 66.347656 79.082031 65.015625 77.234375 65.015625 75.085938 C 64.351562 73.089844 64.5 70.871094 64.203125 68.800781 C 62.429688 66.066406 62.648438 62.589844 61.390625 59.777344 C 61.390625 59.335938 61.613281 59.113281 61.910156 59.039062 Z M 63.316406 151.710938 C 62.796875 151.488281 62.796875 151.121094 62.871094 150.675781 C 63.390625 150.898438 63.609375 151.121094 63.316406 151.710938 Z M 79.511719 200.746094 C 72.707031 186.695312 71.15625 170.128906 68.714844 154.667969 C 66.570312 141.0625 63.539062 127.527344 60.726562 114.066406 C 58.359375 102.230469 56.808594 90.324219 54.070312 78.5625 C 53.035156 72.054688 47.488281 61.996094 54.957031 57.855469 C 55.917969 76.714844 62.796875 96.167969 65.609375 115.175781 C 69.75 136.476562 75.667969 157.480469 79.660156 178.78125 C 80.695312 185.066406 84.910156 190.6875 84.542969 197.125 C 82.691406 197.9375 81.140625 199.414062 79.4375 200.820312 Z M 90.015625 210.066406 C 83.726562 210.511719 80.253906 206.515625 84.542969 201.117188 C 87.351562 198.972656 90.164062 202.816406 92.457031 204.222656 C 93.714844 205.332031 93.195312 207.773438 92.011719 208.882812 C 91.789062 210.066406 90.902344 210.140625 89.941406 210.066406 Z M 191.5625 272.710938 C 171.667969 263.316406 152.734375 251.261719 133.949219 240.09375 C 119.96875 231.070312 105.84375 223.15625 90.753906 216.277344 C 92.160156 215.09375 93.34375 213.984375 94.527344 213.023438 C 120.5625 225.449219 145.265625 240.539062 170.113281 255.109375 C 178.027344 259.25 185.941406 263.6875 194.078125 267.089844 C 196.074219 268.199219 194.816406 272.046875 195.484375 274.265625 C 193.929688 273.894531 192.746094 273.304688 191.5625 272.710938 Z M 356.496094 193.867188 C 356.570312 203.484375 343.480469 203.855469 337.488281 208.957031 C 336.453125 209.621094 334.972656 209.695312 334.382812 211.027344 C 334.308594 211.25 334.011719 211.175781 333.789062 211.175781 C 333.492188 211.175781 333.125 211.027344 332.976562 211.175781 C 332.089844 212.359375 330.535156 212.136719 329.5 212.949219 C 328.390625 213.691406 327.058594 214.132812 325.875 214.652344 C 315.964844 219.089844 306.574219 224.265625 296.808594 228.851562 C 294.441406 230.332031 292.074219 232.105469 289.191406 232.699219 C 288.15625 233.140625 288.082031 234.621094 286.75 234.472656 C 283.421875 234.695312 281.425781 237.726562 278.46875 238.542969 C 275.804688 238.984375 274.917969 242.015625 272.328125 242.3125 C 272.105469 242.3125 271.738281 242.460938 271.589844 242.683594 C 270.996094 243.71875 269.886719 243.867188 268.925781 244.308594 C 266.855469 244.828125 265.597656 246.824219 263.453125 247.046875 C 256.648438 249.855469 249.84375 253.183594 242.964844 256.292969 C 240.820312 257.84375 237.417969 257.769531 235.71875 259.914062 C 235.273438 260.65625 234.757812 260.953125 233.941406 260.804688 C 232.980469 260.582031 232.167969 261.023438 231.574219 261.765625 C 230.613281 263.246094 228.691406 262.207031 227.507812 263.316406 C 218.042969 267.460938 209.238281 273.082031 199.105469 274.929688 C 198.738281 273.15625 199.035156 271.898438 199.105469 270.34375 C 198.8125 268.863281 199.476562 268.199219 200.808594 267.753906 C 212.050781 263.246094 222.332031 256.660156 233.425781 251.707031 C 273.882812 230.40625 318.40625 217.019531 356.570312 191.648438 C 356.71875 192.464844 356.71875 193.203125 356.570312 194.015625 Z M 355.089844 187.507812 C 346.511719 192.539062 337.488281 196.53125 328.464844 200.820312 C 333.347656 196.234375 340.667969 193.796875 345.699219 189.285156 C 345.105469 188.839844 344.734375 189.285156 344.367188 189.429688 C 340.890625 191.648438 336.675781 192.613281 333.273438 195.050781 C 325.0625 200.820312 315.890625 205.109375 307.238281 210.140625 C 273.214844 223.898438 241.414062 242.90625 208.722656 259.769531 C 205.097656 261.691406 200.882812 263.6875 196.742188 261.839844 C 190.75 259.25 185.054688 256.070312 179.0625 253.332031 C 164.417969 245.566406 149.921875 237.503906 135.722656 228.925781 C 124.480469 222.417969 113.238281 215.835938 100.519531 211.839844 C 113.386719 206.886719 125.664062 200.230469 139.050781 196.902344 C 151.773438 192.167969 164.125 186.546875 176.992188 182.183594 C 191.414062 176.5625 205.617188 170.273438 219.964844 164.433594 C 232.390625 160.363281 245.257812 155.632812 257.167969 151.121094 C 277.433594 159.402344 298.289062 165.835938 319.070312 172.273438 C 331.941406 175.894531 345.402344 178.707031 357.382812 184.625 C 357.234375 186.175781 356.347656 186.917969 355.238281 187.582031 Z M 355.089844 187.507812 " fill-opacity="1" fill-rule="nonzero"/><path fill="#ffffff" d="M 304.058594 174.714844 C 300.210938 172.050781 295.332031 171.238281 290.894531 170.054688 C 289.636719 168.722656 287.710938 169.019531 286.160156 168.5 C 276.988281 164.507812 267.59375 162.140625 257.90625 159.847656 C 257.019531 159.625 255.984375 159.253906 255.316406 159.699219 C 248.4375 162.507812 241.265625 164.65625 234.238281 167.167969 C 211.238281 174.714844 188.976562 184.105469 167.082031 194.238281 C 161.386719 197.34375 129.214844 208.4375 131.210938 213.984375 C 132.246094 214.726562 133.28125 214.132812 134.242188 214.058594 C 136.167969 217.535156 140.53125 219.015625 143.785156 221.160156 C 149.847656 225.007812 156.285156 228.039062 162.644531 231.367188 C 171.003906 236.175781 167.894531 236.101562 176.992188 232.921875 C 187.125 228.703125 197.183594 224.117188 206.945312 219.164062 C 227.878906 208.882812 249.84375 201.117188 271.441406 192.390625 C 276.765625 189.652344 282.609375 187.507812 288.15625 185.066406 C 293.257812 183.144531 300.804688 178.261719 305.980469 178.632812 C 305.609375 177.523438 305.980469 176.859375 306.574219 176.117188 C 305.683594 175.378906 304.722656 175.378906 303.984375 174.785156 Z M 279.503906 169.980469 C 280.835938 170.644531 282.3125 171.015625 283.867188 171.902344 C 277.285156 174.859375 274.621094 179.371094 267.742188 174.640625 C 270.996094 172.714844 274.546875 172.347656 277.652344 170.128906 C 278.320312 169.683594 278.835938 169.683594 279.503906 169.980469 Z M 251.546875 178.261719 C 249.253906 179.003906 247.109375 176.933594 245.035156 175.96875 C 247.550781 173.75 251.101562 173.53125 254.132812 172.199219 C 256.277344 171.753906 258.054688 173.382812 260.050781 174.34375 C 257.167969 176.042969 254.429688 177.003906 251.472656 178.261719 Z M 253.46875 185.066406 C 253.394531 185.734375 252.875 185.734375 252.433594 185.808594 C 251.175781 186.101562 250.066406 186.84375 248.882812 187.136719 C 244.964844 188.46875 241.265625 190.097656 237.714844 186.769531 C 243.1875 184.84375 248.292969 180.777344 253.46875 185.066406 Z M 255.167969 179.519531 C 261.53125 176.785156 263.601562 174.492188 270.257812 178.707031 C 263.972656 180.261719 259.976562 185.882812 254.132812 180.261719 C 254.28125 179.742188 254.800781 179.667969 255.167969 179.519531 Z M 267.667969 166.875 C 269.960938 166.207031 272.105469 167.761719 274.398438 168.425781 C 271.664062 170.496094 267.890625 170.867188 264.859375 172.566406 C 262.640625 173.457031 261.085938 171.53125 258.792969 170.792969 C 261.824219 168.871094 264.5625 168.054688 267.667969 166.945312 Z M 250.363281 165.691406 C 252.507812 164.875 254.800781 164.359375 256.132812 162.066406 C 258.054688 162.878906 259.976562 163.691406 262.121094 164.582031 C 257.832031 167.316406 253.394531 169.3125 248.660156 166.875 C 249.105469 166.132812 249.695312 165.984375 250.363281 165.691406 Z M 237.269531 171.164062 C 241.414062 170.421875 245.332031 166.28125 249.328125 169.386719 C 247.847656 171.089844 245.257812 171.015625 243.484375 172.421875 C 241.265625 173.972656 238.527344 173.605469 236.753906 171.457031 C 236.976562 171.3125 237.125 171.164062 237.269531 171.089844 Z M 237.9375 179.226562 C 238.824219 178.632812 239.636719 178.632812 240.523438 179.296875 C 241.636719 180.261719 243.1875 180.113281 244.148438 181.371094 C 240.96875 182.625 237.9375 184.699219 234.757812 185.140625 C 233.425781 184.253906 231.945312 183.589844 230.464844 182.257812 C 233.277344 181.296875 235.347656 180.335938 237.9375 179.226562 Z M 203.101562 198.527344 C 201.695312 197.125 199.179688 197.417969 198.367188 195.570312 C 205.835938 192.683594 207.019531 189.429688 214.640625 194.089844 C 212.714844 195.199219 204.582031 200.082031 203.175781 198.527344 Z M 204.507812 204.667969 C 203.101562 206.515625 200.4375 206.515625 198.589844 207.847656 C 195.261719 209.328125 192.96875 211.472656 190.011719 207.847656 C 194.964844 206.292969 199.625 200.96875 204.507812 204.59375 Z M 208.351562 199.488281 C 213.234375 197.789062 216.933594 193.203125 221.589844 197.9375 C 216.859375 199.488281 211.53125 204.519531 207.316406 200.304688 C 207.539062 199.785156 207.984375 199.710938 208.351562 199.488281 Z M 221.371094 191.207031 C 220.1875 191.722656 219.296875 191.796875 218.410156 190.761719 C 217.671875 189.578125 215.96875 189.800781 215.378906 188.394531 C 218.707031 186.546875 222.109375 185.734375 225.585938 184.402344 C 227.582031 183.734375 229.429688 185.953125 231.207031 186.84375 C 228.101562 188.691406 224.625 189.578125 221.371094 191.28125 Z M 224.179688 176.339844 C 228.691406 174.933594 229.800781 173.011719 234.238281 176.339844 C 229.949219 177.894531 225.289062 181.515625 221.445312 177.671875 C 222.332031 177.226562 223.21875 176.710938 224.105469 176.414062 Z M 209.164062 182.035156 C 213.53125 180.925781 217.300781 177.003906 221.074219 181.445312 C 217.226562 182.625 213.75 184.992188 210.054688 185.511719 C 208.648438 184.773438 206.875 184.699219 205.542969 183.441406 C 206.726562 182.625 208.054688 182.332031 209.238281 181.960938 Z M 188.902344 190.464844 C 192.230469 189.0625 195.484375 187.730469 198.738281 186.324219 C 200.511719 185.4375 202.066406 187.507812 203.546875 188.101562 C 203.691406 188.691406 203.398438 188.914062 203.101562 188.988281 C 199.550781 190.023438 196.222656 192.683594 192.671875 193.203125 C 191.859375 192.390625 186.535156 191.871094 188.902344 190.394531 Z M 191.339844 198.75 C 192.304688 198.085938 197.996094 200.820312 197.996094 202.003906 C 190.527344 205.332031 188.828125 208.734375 180.988281 203.632812 C 184.683594 201.632812 187.71875 200.304688 191.339844 198.75 Z M 172.851562 215.242188 C 176.625 213.617188 180.394531 212.0625 184.09375 210.363281 C 185.71875 209.695312 187.9375 210.953125 189.121094 212.136719 C 186.238281 214.726562 181.355469 214.875 177.878906 216.648438 C 176.476562 218.128906 175.070312 217.609375 173.738281 216.648438 C 173.296875 216.351562 171.890625 215.835938 172.925781 215.316406 Z M 171.148438 213.914062 C 169.003906 214.800781 165.75 212.359375 163.828125 211.324219 C 163.828125 210.804688 164.125 210.730469 164.417969 210.585938 C 167.746094 209.253906 171.003906 207.847656 174.257812 206.21875 C 176.992188 204.59375 179.953125 207.402344 182.464844 208.660156 C 179.136719 211.027344 174.847656 211.988281 171.222656 213.914062 Z M 176.328125 196.382812 C 180.320312 195.050781 182.835938 191.945312 186.460938 196.015625 C 185.203125 196.382812 184.683594 197.269531 183.648438 197.714844 C 178.398438 198.304688 176.328125 202.890625 170.632812 198.824219 C 172.554688 197.789062 174.40625 197.050781 176.328125 196.308594 Z M 153.105469 206.144531 C 157.171875 204.296875 161.3125 202.523438 165.457031 200.820312 C 167.15625 200.15625 168.855469 201.78125 170.410156 202.597656 C 167.082031 205.035156 162.347656 205.257812 159.019531 207.996094 C 157.171875 208.957031 155.027344 206.960938 153.175781 206.589844 C 153.175781 206.441406 153.175781 206.292969 153.175781 206.21875 Z M 144.671875 215.242188 C 142.453125 214.652344 139.9375 213.765625 138.089844 212.359375 C 143.414062 210.4375 148.886719 205.703125 154.214844 210.214844 C 151.03125 212.210938 148.371094 214.726562 144.671875 215.316406 Z M 152.660156 219.902344 C 151.625 218.867188 149.847656 219.089844 149.109375 217.609375 C 151.996094 215.6875 155.175781 214.800781 158.207031 213.171875 C 160.945312 211.765625 163.457031 214.726562 165.972656 215.613281 C 163.015625 217.832031 159.019531 218.496094 155.617188 220.199219 C 154.582031 220.644531 153.621094 220.714844 152.660156 219.902344 Z M 156.875 221.972656 C 157.171875 221.160156 157.761719 221.085938 158.28125 220.9375 C 161.3125 219.976562 164.273438 218.644531 167.230469 217.460938 C 169.152344 216.574219 170.929688 218.128906 172.554688 219.164062 C 169.597656 221.457031 166.121094 222.789062 163.238281 225.152344 C 161.3125 223.75 158.945312 223.230469 156.875 222.046875 Z M 182.539062 225.820312 C 177.808594 228.261719 171.445312 233.363281 167.15625 227.375 C 171.078125 225.820312 174.476562 222.566406 178.695312 222.492188 C 180.320312 223.15625 181.652344 224.414062 183.355469 224.710938 C 183.355469 225.523438 182.835938 225.597656 182.539062 225.746094 Z M 195.925781 219.460938 C 190.011719 222.121094 187.792969 225.523438 181.652344 220.9375 C 184.980469 218.71875 188.679688 217.3125 192.15625 215.316406 C 194.667969 213.914062 197.035156 216.351562 199.402344 217.3125 C 198.292969 218.351562 197.109375 218.941406 195.925781 219.535156 Z M 215.304688 210.65625 C 211.53125 212.136719 207.835938 213.617188 204.136719 215.316406 C 203.175781 216.132812 199.035156 213.765625 198.21875 212.582031 C 205.394531 209.472656 208.5 205.332031 216.042969 209.84375 C 216.042969 210.4375 215.601562 210.511719 215.304688 210.65625 Z M 229.875 203.78125 C 226.621094 204.59375 221.8125 209.472656 218.78125 207.625 C 217.820312 206.664062 216.117188 206.441406 215.75 204.964844 C 218.929688 203.113281 222.625 202.597656 225.957031 201.117188 C 227.582031 200.746094 229.136719 202.449219 230.539062 202.964844 C 230.539062 203.558594 230.171875 203.632812 229.875 203.78125 Z M 226.398438 195.570312 C 224.992188 195.867188 223.515625 194.386719 222.480469 193.574219 C 225.289062 191.28125 229.578125 190.613281 232.832031 188.839844 C 234.757812 187.878906 236.160156 189.652344 237.863281 190.394531 C 236.53125 192.019531 234.386719 192.613281 232.464844 193.128906 C 230.464844 193.867188 228.542969 194.976562 226.398438 195.496094 Z M 243.632812 198.160156 C 239.34375 199.195312 235.125 203.558594 231.28125 199.195312 C 235.347656 197.125 239.488281 195.71875 243.632812 193.867188 C 245.480469 193.425781 247.183594 194.535156 249.03125 195.644531 C 246.960938 196.234375 245.480469 197.492188 243.632812 198.160156 Z M 260.863281 190.394531 C 258.128906 191.574219 255.390625 192.683594 252.65625 193.867188 C 250.953125 194.609375 249.992188 192.90625 248.363281 192.316406 C 251.621094 190.464844 254.949219 189.800781 258.128906 188.394531 C 259.902344 187.285156 261.382812 188.027344 262.933594 189.210938 C 262.417969 189.949219 261.605469 190.171875 260.9375 190.464844 Z M 278.6875 183.144531 C 275.804688 184.476562 272.699219 185.511719 269.886719 186.84375 C 267.964844 188.542969 265.894531 187.136719 264.046875 185.808594 C 267.519531 183.957031 270.921875 182.921875 274.175781 180.925781 C 276.175781 179.667969 278.46875 181 280.242188 182.035156 C 279.871094 182.699219 279.132812 182.921875 278.613281 183.144531 Z M 294.8125 176.636719 C 288.820312 177.894531 283.941406 183.070312 277.800781 179.078125 C 280.09375 177.523438 287.269531 172.566406 289.488281 173.75 C 291.410156 174.640625 293.925781 174.492188 295.550781 176.042969 C 295.476562 176.414062 295.183594 176.5625 294.8125 176.636719 Z M 294.8125 176.636719 " fill-opacity="1" fill-rule="nonzero"/><path fill="#ffffff" d="M 283.347656 207.402344 C 279.132812 205.628906 274.84375 204.148438 270.554688 202.523438 C 267.226562 200.820312 263.601562 199.414062 259.753906 200.304688 C 247.996094 203.707031 237.714844 210.65625 226.324219 215.023438 C 225.140625 215.464844 224.917969 216.574219 224.699219 217.609375 C 224.476562 220.421875 228.394531 220.9375 230.246094 222.269531 C 236.679688 224.933594 242.449219 229.148438 249.402344 230.332031 C 256.796875 227.226562 263.675781 222.492188 271.070312 219.3125 C 274.175781 216.945312 290.003906 212.507812 283.347656 207.476562 Z M 275.878906 212.65625 C 267.816406 216.648438 259.460938 220.199219 251.695312 224.859375 C 247.402344 226.855469 235.792969 219.679688 231.429688 217.460938 C 237.566406 213.914062 244.296875 211.621094 250.730469 208.660156 C 253.839844 207.773438 256.574219 205.109375 259.902344 205.480469 C 266.117188 207.328125 272.699219 208.660156 278.613281 210.953125 C 277.875 212.136719 276.765625 212.359375 275.878906 212.730469 Z M 275.878906 212.65625 " fill-opacity="1" fill-rule="nonzero"/><path fill="#ffffff" d="M 71.597656 68.652344 C 75.371094 90.175781 80.992188 111.402344 84.171875 133 C 86.242188 144.683594 88.609375 156.074219 91.566406 167.539062 C 92.75 171.605469 92.75 178.042969 96.375 180.628906 C 95.339844 188.027344 127.660156 173.308594 131.878906 172.347656 C 137.941406 169.460938 144.523438 167.835938 151.03125 166.058594 C 164.714844 160.808594 178.324219 155.484375 191.859375 149.9375 C 204.433594 144.09375 218.261719 142.023438 230.910156 136.550781 C 233.203125 136.695312 234.3125 134.625 235.792969 133.367188 C 237.417969 131.371094 236.53125 128.042969 236.605469 125.601562 C 236.457031 119.613281 235.792969 113.769531 235.125 107.925781 C 234.015625 106.152344 234.460938 104.226562 234.238281 102.230469 C 233.203125 100.011719 234.089844 97.496094 232.980469 95.207031 C 233.203125 93.800781 232.09375 92.914062 232.09375 91.582031 C 232.09375 88.546875 230.320312 85.664062 230.246094 82.78125 C 230.761719 80.855469 229.285156 79.304688 229.429688 77.527344 C 229.949219 74.273438 228.246094 71.539062 227.730469 68.429688 C 228.320312 64.882812 225.660156 61.847656 226.027344 58.445312 C 226.398438 56.894531 224.773438 55.859375 225.214844 54.230469 C 224.84375 47.722656 222.773438 40.84375 219.519531 35.222656 C 217.523438 33.078125 214.859375 30.046875 211.902344 29.824219 C 211.089844 30.710938 210.128906 30.414062 209.164062 30.710938 C 203.839844 31.378906 198.8125 33.152344 193.558594 33.742188 C 193.191406 33.742188 192.820312 33.742188 192.597656 34.039062 C 191.710938 35.59375 190.378906 33.816406 189.269531 34.777344 C 184.390625 35.742188 178.84375 36.332031 173.8125 37.8125 C 169.894531 39.511719 165.675781 38.773438 161.832031 40.472656 C 160.5 41.214844 158.726562 40.621094 157.46875 41.878906 C 156.507812 42.324219 154.804688 41.878906 153.84375 42.472656 C 152.660156 43.136719 151.105469 42.691406 150.070312 43.65625 C 147.558594 43.800781 144.96875 44.839844 142.675781 45.652344 C 141.566406 46.910156 140.160156 46.539062 138.828125 46.6875 C 136.460938 47.128906 134.023438 47.945312 131.804688 48.832031 C 128.253906 50.753906 123.816406 49.71875 120.191406 51.789062 C 113.976562 52.75 107.839844 54.378906 101.699219 55.785156 C 100.445312 56.300781 99.039062 56.300781 97.707031 56.597656 C 92.605469 59.039062 86.910156 58.890625 81.730469 61.035156 C 78.109375 61.480469 74.410156 64.4375 70.859375 62.957031 C 70.269531 65.175781 71.523438 66.507812 71.820312 68.503906 Z M 75.742188 68.800781 C 90.089844 68.0625 104.066406 62.144531 118.121094 59.851562 C 126.625 56.894531 136.019531 56.671875 144.226562 52.824219 C 150.8125 52.382812 157.097656 49.792969 163.457031 48.09375 C 173.515625 46.09375 183.574219 43.210938 193.484375 40.695312 C 196.667969 41.289062 213.605469 34.558594 213.972656 37.664062 C 215.378906 45.058594 217.820312 52.234375 218.707031 59.777344 C 221.886719 74.570312 223.882812 89.730469 227.582031 104.523438 C 228.175781 113.621094 230.835938 122.644531 231.648438 131.890625 C 201.328125 140.914062 170.484375 154.597656 141.121094 163.25 C 132.542969 166.429688 124.257812 170.277344 115.605469 173.308594 C 110.429688 175.082031 105.324219 177.820312 99.777344 177.671875 C 96.671875 158.664062 93.714844 139.359375 87.796875 121.089844 C 83.65625 103.933594 79.363281 86.328125 75.742188 68.949219 Z M 75.742188 68.800781 " fill-opacity="1" fill-rule="nonzero"/><path fill="#ffffff" d="M 126.257812 111.921875 C 126.625 119.167969 129.730469 125.601562 134.242188 131.148438 C 135.132812 133.148438 137.496094 132.703125 138.535156 134.332031 C 139.789062 136.917969 142.675781 136.917969 144.597656 138.546875 C 144.96875 138.988281 145.335938 139.433594 145.929688 139.433594 C 147.558594 139.433594 148.8125 141.0625 150.589844 140.542969 C 171.222656 146.164062 189.714844 128.414062 197.851562 111.402344 C 200.214844 103.339844 201.917969 94.613281 198.589844 86.476562 C 195.113281 77.378906 187.867188 69.097656 177.804688 67.839844 C 177.140625 67.542969 176.476562 68.285156 175.808594 67.839844 C 174.109375 66.953125 172.480469 67.542969 170.855469 68.0625 C 166.417969 69.835938 159.019531 71.832031 157.171875 76.417969 C 159.90625 77.085938 162.199219 74.71875 164.9375 74.644531 C 172.113281 72.722656 179.582031 75.160156 184.90625 80.191406 C 191.710938 85.589844 194.226562 95.425781 191.5625 103.5625 C 190.675781 105.78125 189.269531 107.628906 189.269531 110.144531 C 188.976562 112.140625 186.3125 111.476562 185.644531 115.46875 C 185.128906 117.542969 182.390625 117.910156 181.578125 119.90625 C 177.511719 125.601562 171.003906 128.929688 164.789062 131.667969 C 161.3125 133.222656 157.6875 132.039062 154.140625 132.628906 C 153.25 132.851562 152.363281 132.851562 151.625 132.1875 C 145.042969 130.039062 138.460938 126.492188 136.242188 119.539062 C 135.945312 115.617188 132.765625 112.363281 133.355469 108.296875 C 132.765625 106.226562 132.988281 104.007812 132.988281 101.863281 C 134.6875 82.855469 151.253906 62.957031 171.816406 67.175781 C 166.34375 61.996094 155.765625 63.476562 149.257812 66.582031 C 133.652344 74.867188 122.1875 94.390625 126.402344 111.996094 Z M 126.257812 111.921875 " fill-opacity="1" fill-rule="nonzero"/><path fill="#ffffff" d="M 171.003906 106.816406 C 172.039062 104.894531 173 102.972656 173.738281 100.898438 C 174.847656 100.011719 175.21875 98.828125 175.660156 97.644531 C 177.363281 94.023438 180.097656 90.175781 179.582031 85.886719 C 168.785156 90.546875 165.457031 105.335938 158.726562 114.359375 C 155.101562 111.847656 153.621094 107.925781 150.292969 105.191406 C 148.296875 103.339844 146.449219 105.855469 145.335938 107.410156 C 143.785156 110.664062 150.515625 117.097656 152.585938 119.390625 C 154.730469 122.570312 163.015625 124.492188 164.566406 120.425781 C 164.566406 119.6875 165.085938 119.242188 165.527344 118.726562 C 167.15625 116.800781 167.96875 114.140625 168.191406 111.699219 C 169.300781 110.21875 170.335938 108.667969 171.003906 106.816406 Z M 171.003906 106.816406 " fill-opacity="1" fill-rule="nonzero"/></svg>