<svg xmlns="http://www.w3.org/2000/svg" xmlns:xlink="http://www.w3.org/1999/xlink" width="1920" zoomAndPan="magnify" viewBox="0 0 1440 374.999991" height="500" preserveAspectRatio="xMidYMid meet" version="1.0"><path fill="#4a71f6" d="M 1417.890625 240.265625 C 1417.890625 208.578125 1411 177.992188 1404.113281 147.132812 C 1403.285156 143 1401.632812 139.417969 1399.980469 135.5625 C 1398.328125 130.878906 1394.46875 128.121094 1391.988281 123.988281 C 1390.886719 122.0625 1389.511719 120.957031 1387.03125 120.683594 C 1385.652344 120.683594 1384 120.683594 1382.898438 119.582031 C 1382.347656 117.929688 1383.449219 116.824219 1383.722656 115.449219 C 1385.378906 110.765625 1384.824219 109.660156 1379.589844 109.386719 C 1373.804688 109.109375 1368.019531 108.835938 1362.234375 108.285156 C 1341.566406 107.183594 1320.628906 102.222656 1299.960938 104.152344 C 1280.675781 107.457031 1262.214844 109.660156 1242.925781 114.621094 C 1250.367188 124.816406 1257.53125 118.203125 1267.171875 119.582031 C 1268.277344 121.785156 1266.621094 124.265625 1268.828125 125.917969 C 1270.753906 127.296875 1273.234375 124.265625 1275.164062 127.296875 C 1264.96875 132.53125 1253.949219 135.285156 1243.476562 139.417969 C 1242.101562 137.765625 1241.824219 135.285156 1239.34375 134.183594 C 1235.210938 136.113281 1234.109375 139.96875 1233.835938 144.105469 C 1231.90625 166.421875 1232.457031 188.738281 1231.355469 211.058594 C 1227.222656 210.230469 1225.292969 205.824219 1220.332031 206.097656 C 1217.578125 213.8125 1213.71875 220.976562 1211.515625 228.96875 C 1207.933594 227.867188 1206.554688 223.457031 1202.972656 223.457031 C 1201.871094 224.835938 1202.421875 226.210938 1202.421875 227.3125 C 1203.25 238.609375 1204.628906 249.90625 1204.902344 261.480469 C 1204.902344 276.636719 1206.832031 291.238281 1211.515625 305.566406 C 1215.375 317.136719 1219.78125 320.445312 1231.628906 320.71875 C 1232.179688 320.71875 1233.007812 320.71875 1233.007812 321.546875 C 1232.179688 322.375 1229.976562 322.375 1229.976562 324.300781 C 1230.527344 326.507812 1232.179688 327.058594 1233.832031 327.882812 C 1242.101562 332.015625 1250.367188 334.222656 1259.734375 332.84375 C 1264.417969 332.015625 1269.101562 332.292969 1273.785156 333.671875 C 1285.910156 337.527344 1298.859375 335.875 1311.257812 336.148438 C 1322.28125 337.253906 1332.75 333.117188 1343.769531 332.566406 C 1353.691406 332.566406 1380.417969 330.089844 1373.253906 314.660156 C 1371.875 312.179688 1370.222656 309.699219 1368.84375 307.496094 C 1370.5 304.464844 1373.527344 302.808594 1374.632812 300.054688 C 1375.734375 297.023438 1377.9375 295.371094 1380.96875 293.71875 C 1385.929688 290.960938 1389.511719 286.554688 1388.683594 280.769531 C 1387.03125 267.542969 1389.234375 254.042969 1387.582031 240.816406 C 1386.203125 233.101562 1386.753906 225.660156 1387.582031 218.222656 C 1388.957031 204.722656 1388.957031 190.945312 1390.613281 177.441406 C 1390.613281 175.515625 1390.613281 173.308594 1391.988281 171.105469 C 1393.367188 172.207031 1393.089844 173.585938 1393.367188 174.964844 C 1400.53125 205.546875 1410.449219 236.40625 1409.074219 268.09375 C 1409.074219 271.675781 1409.074219 275.257812 1409.625 278.5625 C 1410.175781 281.320312 1410.449219 284.625 1414.03125 286.277344 C 1420.644531 271.675781 1417.0625 255.96875 1417.890625 240.539062 Z M 1245.132812 293.167969 C 1239.894531 291.511719 1235.761719 288.207031 1231.628906 284.902344 C 1230.527344 284.074219 1230.253906 282.421875 1230.253906 281.042969 C 1231.355469 272.226562 1232.179688 263.410156 1233.007812 254.59375 C 1233.007812 254.316406 1233.558594 254.042969 1234.109375 253.214844 C 1235.761719 254.316406 1236.039062 256.246094 1236.039062 257.898438 C 1236.039062 261.480469 1236.589844 265.0625 1236.589844 268.367188 C 1236.589844 275.53125 1238.519531 281.871094 1242.925781 287.378906 C 1244.027344 289.035156 1245.957031 290.410156 1245.132812 293.167969 Z M 1297.480469 310.523438 C 1291.972656 311.902344 1291.421875 312.179688 1291.972656 317.964844 C 1291.972656 319.066406 1292.246094 319.894531 1292.523438 321.546875 C 1282.878906 319.617188 1273.234375 320.167969 1263.589844 318.242188 C 1262.488281 316.585938 1263.589844 314.933594 1263.589844 313.554688 C 1265.519531 309.148438 1258.90625 301.15625 1267.449219 301.984375 C 1268.828125 301.984375 1269.929688 302.535156 1271.03125 303.085938 C 1275.441406 305.839844 1280.125 306.945312 1285.082031 306.117188 C 1287.5625 305.839844 1290.042969 306.117188 1292.523438 306.945312 C 1296.65625 308.597656 1300.789062 309.421875 1305.195312 308.046875 C 1306.300781 307.496094 1307.953125 307.496094 1309.605469 309.421875 C 1305.472656 310.25 1301.339844 309.699219 1297.207031 310.800781 Z M 1352.3125 277.738281 C 1334.953125 277.738281 1317.320312 263.132812 1300.789062 274.429688 C 1298.03125 276.359375 1294.726562 277.1875 1291.421875 276.082031 C 1288.941406 275.257812 1286.460938 276.082031 1283.980469 275.257812 C 1283.707031 270.574219 1283.980469 270.296875 1287.289062 269.746094 C 1290.871094 269.195312 1294.726562 269.195312 1298.308594 268.367188 C 1303.542969 267.542969 1304.371094 266.164062 1304.371094 260.929688 C 1304.371094 252.386719 1303.542969 251.5625 1295.277344 248.53125 C 1291.144531 246.878906 1287.289062 245.222656 1283.15625 243.570312 C 1271.859375 237.785156 1267.726562 225.109375 1258.90625 216.570312 C 1256.980469 214.640625 1255.875 212.160156 1255.875 209.40625 C 1255.875 201.414062 1255.875 193.148438 1255.875 185.15625 C 1255.875 178.820312 1259.183594 176.617188 1265.519531 177.71875 C 1268 177.992188 1270.480469 178.269531 1272.960938 177.71875 C 1279.023438 176.066406 1283.980469 178.546875 1288.113281 182.679688 C 1290.320312 184.882812 1292.523438 186.8125 1295.277344 188.738281 C 1298.308594 190.945312 1300.511719 193.699219 1299.960938 197.558594 C 1299.410156 202.242188 1301.339844 205.824219 1303.269531 209.679688 C 1311.808594 211.609375 1315.667969 209.957031 1316.21875 200.863281 C 1316.496094 197.832031 1317.597656 194.800781 1317.046875 191.496094 C 1316.769531 189.84375 1317.320312 188.738281 1318.699219 187.636719 C 1325.035156 182.402344 1331.648438 177.441406 1339.363281 174.136719 C 1345.148438 171.65625 1355.34375 174.136719 1358.652344 178.269531 C 1364.710938 185.433594 1352.039062 200.585938 1351.210938 208.855469 C 1349.28125 219.046875 1339.640625 223.457031 1331.648438 228.417969 C 1322.832031 233.925781 1317.871094 241.917969 1316.492188 252.113281 C 1315.117188 261.757812 1324.484375 270.847656 1334.402344 270.574219 C 1345.148438 270.574219 1356.996094 263.132812 1365.261719 273.878906 C 1360.855469 276.082031 1356.996094 277.738281 1352.3125 277.738281 Z M 1352.3125 277.738281 " fill-opacity="1" fill-rule="nonzero"/><path fill="#febf00" d="M 831.003906 182.128906 C 830.453125 181.851562 829.902344 181.574219 829.351562 182.128906 C 831.554688 186.261719 838.167969 188.738281 837.066406 193.976562 C 836.242188 196.730469 837.617188 198.382812 838.996094 200.3125 C 840.648438 203.066406 843.679688 205.273438 844.230469 208.300781 C 843.40625 209.679688 842.578125 210.230469 840.925781 210.507812 C 832.660156 203.066406 823.566406 197.558594 812.820312 194.527344 C 803.726562 191.769531 795.738281 187.363281 789.949219 179.371094 C 779.757812 166.421875 768.460938 154.574219 756.613281 143 C 745.589844 135.011719 739.804688 121.511719 726.855469 116 C 724.648438 115.171875 725.199219 112.96875 725.199219 111.039062 C 725.199219 108.558594 726.027344 105.527344 723.824219 103.601562 C 722.167969 103.601562 721.34375 104.152344 720.242188 104.976562 C 710.875 112.96875 700.679688 120.40625 692.136719 129.5 C 687.453125 134.734375 680.566406 137.492188 676.429688 143.550781 C 670.09375 152.371094 659.074219 154.296875 650.53125 160.085938 C 641.4375 165.59375 632.070312 170.554688 625.183594 178.546875 C 621.601562 182.953125 619.121094 187.914062 616.917969 193.148438 C 615.261719 196.179688 618.570312 198.933594 621.050781 196.179688 C 629.867188 189.566406 637.03125 181.574219 647.5 176.890625 C 653.011719 174.414062 659.347656 173.585938 664.582031 170.003906 C 666.511719 168.625 668.714844 167.800781 670.921875 166.699219 C 671.472656 168.625 670.371094 169.453125 669.820312 170.554688 C 661.277344 186.261719 649.152344 199.484375 636.753906 212.160156 C 631.796875 217.121094 628.488281 222.355469 626.835938 228.96875 C 624.90625 236.40625 625.457031 237.785156 632.898438 240.539062 C 637.582031 242.191406 642.539062 243.019531 646.675781 245.773438 C 654.390625 251.011719 661.550781 257.347656 667.339844 265.0625 C 671.195312 270.296875 674.503906 276.082031 680.289062 279.941406 C 680.839844 280.492188 681.390625 281.320312 681.667969 281.871094 C 681.390625 289.585938 705.636719 300.332031 692.414062 305.566406 C 682.769531 308.871094 675.878906 299.503906 670.371094 292.890625 C 662.378906 283.523438 653.011719 275.257812 644.46875 266.164062 C 632.621094 254.042969 622.425781 239.4375 607.546875 230.894531 C 606.171875 233.652344 607.273438 235.582031 607.546875 237.785156 C 609.753906 244.949219 614.4375 250.734375 618.570312 257.070312 C 624.355469 265.890625 632.347656 272.5 639.234375 280.214844 C 653.835938 296.75 671.472656 309.421875 688.28125 322.925781 C 693.789062 327.332031 700.953125 328.160156 708.394531 327.058594 C 705.363281 320.996094 697.921875 318.242188 697.648438 310.800781 C 699.578125 310.800781 700.679688 311.628906 701.230469 312.730469 C 703.160156 316.3125 706.1875 318.515625 710.046875 320.167969 C 715.832031 324.851562 720.792969 330.640625 726.855469 334.773438 C 729.058594 336.425781 731.8125 338.078125 734.84375 336.425781 C 737.875 335.046875 738.425781 332.015625 738.425781 328.984375 C 738.425781 327.058594 737.875 325.128906 739.527344 323.75 C 752.753906 308.320312 771.214844 299.226562 784.992188 284.902344 C 791.328125 279.113281 798.21875 271.398438 805.105469 266.992188 C 807.035156 268.09375 806.207031 270.847656 808.960938 271.398438 C 810.617188 271.125 812.820312 270.574219 814.472656 268.917969 C 819.707031 264.511719 824.945312 260.101562 830.179688 255.96875 C 844.78125 243.570312 829.078125 236.132812 848.914062 221.804688 C 849.464844 219.875 848.363281 217.121094 849.464844 214.089844 C 853.597656 217.394531 856.628906 221.527344 862.140625 221.527344 C 861.589844 217.121094 862.140625 217.121094 859.660156 213.8125 C 851.945312 201.691406 842.300781 191.769531 831.28125 182.953125 Z M 757.988281 259.828125 C 755.507812 266.164062 753.855469 272.777344 749.171875 278.011719 C 745.589844 281.871094 738.976562 283.796875 735.394531 280.214844 C 731.261719 276.359375 726.304688 275.53125 721.617188 274.429688 C 716.109375 273.054688 712.527344 269.746094 710.320312 264.785156 C 708.945312 260.929688 705.914062 258.449219 704.261719 254.59375 C 699.578125 244.398438 698.75 233.652344 699.851562 222.628906 C 701.230469 211.058594 703.433594 199.484375 708.117188 188.464844 C 713.351562 176.339844 718.035156 163.667969 726.578125 153.472656 C 736.222656 155.953125 740.078125 155.125 740.078125 167.25 C 740.078125 170.277344 741.734375 173.035156 743.386719 175.238281 C 748.070312 181.851562 749.171875 189.84375 754.132812 195.902344 C 756.613281 198.933594 757.164062 202.515625 757.714844 206.375 C 758.539062 212.988281 760.195312 219.046875 759.089844 225.9375 C 758.539062 228.96875 759.367188 232.550781 760.195312 235.582031 C 762.121094 244.121094 760.746094 252.113281 757.714844 259.828125 Z M 757.988281 259.828125 " fill-opacity="1" fill-rule="nonzero"/><path fill="#1cbc7c" d="M 218.496094 287.378906 C 224.28125 275.808594 230.070312 263.960938 236.40625 252.664062 C 241.917969 243.570312 239.4375 233.375 241.367188 223.734375 C 242.46875 217.671875 242.46875 211.882812 237.507812 206.925781 C 236.128906 205.546875 235.578125 203.617188 235.304688 201.964844 C 233.375 189.566406 226.761719 180.199219 218.222656 171.933594 C 203.617188 157.054688 181.574219 158.980469 162.839844 153.746094 C 158.429688 152.644531 153.46875 152.644531 150.441406 149.0625 C 146.859375 145.207031 142.449219 148.238281 138.316406 147.960938 C 135.835938 147.960938 133.355469 148.238281 132.253906 146.308594 C 132.253906 143 136.664062 143.550781 135.835938 140.523438 C 135.285156 137.765625 137.214844 137.492188 138.589844 136.390625 C 139.96875 135.5625 141.898438 135.5625 143 133.359375 C 139.695312 130.878906 143.828125 128.398438 143.550781 125.367188 C 119.855469 117.652344 95.332031 129.777344 78.800781 146.859375 C 69.707031 155.402344 63.371094 165.59375 59.515625 177.441406 C 58.960938 179.097656 58.136719 180.75 59.238281 182.679688 C 61.167969 182.402344 61.71875 179.648438 65.300781 180.472656 C 68.882812 186.535156 70.8125 193.425781 67.78125 200.863281 C 66.125 204.722656 65.574219 208.855469 65.300781 212.988281 C 64.75 220.703125 64.472656 228.140625 63.921875 235.855469 C 63.921875 236.957031 63.921875 238.609375 63.371094 239.4375 C 60.339844 242.746094 61.167969 246.878906 61.441406 250.734375 C 61.71875 254.59375 62.820312 258.449219 62.542969 262.582031 C 62.542969 268.644531 64.199219 273.878906 68.332031 278.5625 C 69.707031 280.214844 71.085938 282.144531 70.535156 284.902344 C 65.851562 284.351562 64.199219 280.214844 61.167969 277.738281 C 59.238281 280.214844 56.207031 279.664062 54.828125 282.421875 C 53.175781 285.175781 54.003906 288.207031 53.726562 290.960938 C 53.453125 312.730469 84.035156 327.609375 100.566406 336.425781 C 117.652344 345.519531 159.53125 354.609375 174.410156 338.355469 C 173.308594 335.324219 175.238281 332.566406 175.511719 329.8125 C 174.136719 326.230469 170.554688 324.851562 167.246094 321.820312 C 173.859375 319.617188 178.820312 315.210938 185.433594 314.660156 C 187.914062 314.382812 190.117188 313.28125 192.320312 311.902344 C 199.761719 305.839844 206.925781 299.78125 214.363281 293.71875 C 216.292969 292.066406 217.667969 290.136719 218.773438 287.933594 Z M 138.316406 323.75 C 144.101562 322.375 149.613281 321.820312 156.226562 325.402344 C 149.335938 325.957031 143.550781 328.984375 138.316406 323.75 Z M 209.679688 219.046875 C 207.476562 224.835938 207.476562 231.449219 202.789062 236.132812 C 199.207031 239.988281 196.453125 244.121094 194.800781 249.355469 C 189.566406 259 181.574219 268.367188 171.65625 273.878906 C 169.175781 274.980469 166.972656 276.910156 165.320312 278.839844 C 150.441406 294.820312 127.847656 290.410156 108.558594 292.617188 C 106.355469 292.890625 103.875 292.617188 101.671875 292.066406 C 96.710938 290.6875 96.710938 288.757812 96.433594 283.523438 C 96.433594 276.359375 101.671875 270.847656 101.671875 263.683594 C 101.671875 261.203125 102.773438 258.726562 102.222656 255.96875 C 101.121094 250.734375 103.324219 246.878906 107.730469 244.398438 C 109.660156 243.296875 111.039062 242.191406 111.863281 239.988281 C 114.621094 234.753906 117.925781 229.792969 121.507812 225.109375 C 127.570312 217.394531 129.773438 205.824219 139.417969 201.414062 C 154.574219 192.871094 171.929688 192.046875 187.914062 186.8125 C 194.523438 184.882812 201.414062 185.433594 207.476562 181.574219 C 210.503906 183.503906 213.261719 185.433594 215.191406 188.738281 C 211.332031 193.699219 211.058594 200.035156 208.851562 205.824219 C 207.476562 209.679688 206.371094 213.261719 208.300781 217.121094 C 208.578125 217.945312 208.851562 218.773438 208.578125 219.597656 Z M 209.679688 219.046875 " fill-opacity="1" fill-rule="nonzero"/><path fill="#1cbc7c" d="M 252.664062 262.308594 C 242.742188 292.617188 228.140625 303.636719 204.71875 323.476562 C 208.027344 324.851562 210.230469 322.648438 212.710938 323.476562 C 215.464844 324.578125 217.945312 323.476562 220.425781 322.375 C 225.9375 319.894531 231.996094 319.617188 237.234375 316.035156 C 246.324219 308.871094 256.246094 302.257812 262.03125 291.511719 C 264.785156 286.277344 266.714844 280.492188 268.644531 274.707031 C 271.121094 266.714844 267.816406 260.378906 264.234375 253.488281 C 259.824219 256.246094 254.589844 256.796875 252.9375 262.308594 Z M 252.664062 262.308594 " fill-opacity="1" fill-rule="nonzero"/><path fill="#febf00" d="M 851.945312 233.925781 C 850.015625 235.582031 848.363281 237.785156 846.710938 239.988281 C 838.996094 252.664062 831.003906 265.339844 820.535156 276.082031 C 812.269531 284.625 804.003906 292.890625 795.460938 301.15625 C 794.085938 302.535156 792.15625 303.085938 792.15625 305.289062 C 796.289062 305.015625 799.59375 303.636719 804.828125 299.503906 C 821.085938 286.277344 858.007812 256.246094 855.804688 233.375 C 854.425781 232 853.046875 232.273438 851.671875 233.375 Z M 851.945312 233.925781 " fill-opacity="1" fill-rule="nonzero"/><path fill="#1cbc7c" d="M 225.382812 143 C 222.078125 137.492188 219.597656 128.949219 213.8125 125.917969 C 206.925781 123.4375 200.585938 119.855469 193.972656 117.101562 C 189.839844 120.957031 187.085938 125.367188 185.433594 130.878906 C 200.585938 135.285156 212.984375 144.378906 226.488281 153.195312 C 227.589844 149.613281 227.589844 146.308594 225.660156 143 Z M 225.382812 143 " fill-opacity="1" fill-rule="nonzero"/><path fill="#febf00" d="M 206.371094 201.964844 C 208.578125 181.023438 180.75 192.320312 169.175781 192.597656 C 153.46875 193.148438 135.011719 204.167969 126.742188 217.394531 C 118.753906 230.894531 114.070312 245.773438 108.28125 260.101562 C 104.425781 270.296875 102.773438 289.859375 116.824219 292.339844 C 121.234375 292.339844 126.191406 292.890625 130.050781 290.410156 C 137.765625 285.453125 146.859375 283.796875 154.847656 279.390625 C 164.214844 274.15625 174.136719 268.367188 179.371094 258.726562 C 179.644531 257.898438 180.472656 257.625 181.023438 257.070312 C 195.351562 245.5 208.578125 229.792969 210.503906 211.058594 C 208.851562 209.679688 207.199219 208.855469 205.820312 207.75 C 206.097656 205.824219 206.371094 204.167969 206.648438 202.792969 Z M 206.371094 201.964844 " fill-opacity="1" fill-rule="nonzero"/><path fill="#1cbc7c" d="M 1347.078125 192.597656 C 1348.457031 177.167969 1324.484375 169.175781 1320.074219 186.535156 C 1318.699219 193.148438 1319.25 200.3125 1316.21875 206.375 C 1314.015625 211.058594 1310.984375 215.464844 1308.226562 220.152344 C 1306.300781 219.046875 1305.195312 217.121094 1304.371094 215.464844 C 1298.585938 206.925781 1284.808594 182.679688 1273.234375 184.605469 C 1270.753906 185.15625 1268.828125 185.15625 1266.347656 183.503906 C 1262.214844 180.75 1258.355469 182.953125 1257.53125 188.1875 C 1257.253906 190.945312 1257.253906 193.699219 1256.703125 196.179688 C 1256.152344 199.484375 1256.703125 202.515625 1259.183594 204.722656 C 1261.664062 206.648438 1263.316406 209.957031 1263.039062 212.160156 C 1262.488281 216.570312 1264.96875 219.046875 1267.171875 221.804688 C 1271.308594 227.316406 1274.613281 233.375 1280.675781 236.957031 C 1286.460938 240.816406 1291.972656 246.050781 1300.511719 243.019531 C 1312.085938 239.714844 1302.992188 267.542969 1307.675781 273.605469 C 1309.054688 273.605469 1309.882812 273.605469 1310.15625 272.777344 C 1317.597656 264.234375 1317.871094 252.113281 1315.117188 241.640625 C 1314.015625 238.058594 1315.117188 236.132812 1318.148438 233.925781 C 1321.453125 231.449219 1325.863281 230.894531 1329.167969 228.140625 C 1338.261719 220.425781 1344.597656 210.507812 1350.382812 199.761719 C 1347.628906 197.832031 1347.355469 195.351562 1347.355469 192.597656 Z M 1347.078125 192.597656 " fill-opacity="1" fill-rule="nonzero"/><path fill="#4a71f6" d="M 738.976562 202.792969 C 738.976562 201.414062 738.976562 199.761719 738.703125 198.382812 C 734.84375 187.636719 737.046875 175.238281 728.78125 166.421875 C 725.75 168.074219 727.40625 173.308594 723.824219 173.859375 C 718.035156 174.136719 716.109375 178.546875 713.628906 182.953125 C 710.046875 189.566406 705.636719 195.351562 703.15625 202.515625 C 700.953125 209.40625 700.128906 216.570312 696.269531 222.90625 C 695.71875 223.734375 695.996094 224.835938 695.996094 225.9375 C 695.996094 241.917969 705.914062 261.757812 724.097656 261.203125 C 726.027344 261.203125 727.957031 260.929688 729.058594 259 C 730.988281 255.417969 734.570312 253.214844 737.324219 250.734375 C 741.183594 247.429688 741.183594 242.46875 741.457031 237.785156 C 741.457031 232.824219 742.558594 227.589844 741.457031 222.90625 C 739.527344 216.292969 739.253906 209.40625 739.253906 202.792969 Z M 738.976562 202.792969 " fill-opacity="1" fill-rule="nonzero"/><path fill="#fc7c2c" d="M 1242.101562 68.054688 C 1239.070312 48.21875 1234.109375 28.65625 1227.496094 9.644531 C 1226.394531 6.335938 1225.015625 2.480469 1221.984375 0 C 1217.851562 1.929688 1217.300781 5.785156 1216.75 9.367188 C 1214.546875 25.347656 1215.648438 41.605469 1213.167969 57.585938 C 1211.515625 73.015625 1191.125 49.871094 1185.617188 46.839844 C 1178.726562 41.882812 1172.941406 34.992188 1164.675781 31.960938 C 1158.890625 37.472656 1156.683594 46.289062 1159.992188 52.902344 C 1164.949219 63.371094 1170.1875 73.566406 1175.421875 84.039062 C 1179.277344 91.476562 1179.003906 92.578125 1171.5625 96.4375 C 1156.132812 101.945312 1139.328125 101.121094 1123.34375 99.191406 C 1121.140625 98.917969 1118.9375 97.539062 1116.734375 98.640625 C 1114.804688 103.601562 1111.496094 114.347656 1117.835938 116.273438 C 1126.375 119.582031 1135.195312 122.613281 1143.734375 125.917969 C 1145.9375 126.746094 1148.144531 125.917969 1150.347656 127.296875 C 1155.03125 130.328125 1160.542969 131.429688 1165.777344 133.632812 C 1172.390625 136.113281 1174.871094 133.632812 1175.144531 126.46875 C 1175.144531 122.0625 1173.21875 118.480469 1168.808594 116.824219 C 1167.15625 116 1165.226562 116 1163.847656 113.796875 C 1165.503906 111.867188 1167.429688 111.589844 1169.085938 110.765625 C 1182.585938 105.253906 1185.890625 87.894531 1179.828125 75.773438 C 1178.726562 73.84375 1177.074219 71.914062 1177.902344 69.160156 C 1178.726562 69.160156 1179.277344 69.160156 1179.277344 69.160156 C 1183.410156 75.21875 1190.023438 77.425781 1196.363281 79.628906 C 1204.902344 82.660156 1210.691406 79.628906 1214.546875 71.636719 C 1220.058594 56.757812 1216.476562 39.953125 1217.300781 24.246094 C 1217.300781 21.765625 1217.300781 19.5625 1218.40625 15.707031 C 1221.710938 27.828125 1228.324219 80.457031 1237.417969 83.210938 C 1242.925781 80.457031 1242.375 73.015625 1241.550781 68.054688 Z M 1242.101562 68.054688 " fill-opacity="1" fill-rule="nonzero"/><path fill="#fc7c2c" d="M 671.195312 340.007812 C 660.726562 339.179688 650.808594 336.976562 642.542969 330.089844 C 633.171875 320.445312 622.152344 330.089844 615.539062 337.804688 C 614.710938 338.90625 613.886719 340.28125 612.234375 340.007812 C 609.753906 337.527344 609.203125 334.222656 609.476562 331.464844 C 609.476562 327.882812 608.375 325.128906 607.824219 321.820312 C 607.273438 318.792969 605.621094 317.6875 603.140625 316.585938 C 588.8125 311.628906 572.003906 339.179688 559.882812 344.414062 C 555.75 338.628906 555.75 336.699219 556.851562 328.984375 C 558.226562 319.34375 559.882812 309.972656 557.402344 300.332031 C 543.074219 301.15625 545.828125 318.792969 542.523438 328.984375 C 540.042969 338.90625 537.839844 375 556.300781 361.773438 C 566.21875 353.507812 574.207031 342.761719 583.851562 334.222656 C 586.058594 332.292969 588.535156 329.8125 592.117188 330.914062 C 592.945312 332.015625 593.21875 333.117188 593.21875 334.496094 C 593.21875 339.730469 593.496094 344.96875 593.496094 349.925781 C 593.773438 355.160156 595.148438 370.867188 603.414062 364.53125 C 610.027344 361.773438 619.949219 338.90625 626.558594 345.519531 C 629.039062 348.273438 632.070312 350.753906 633.449219 354.335938 C 634.550781 357.917969 636.203125 360.121094 640.335938 360.398438 C 641.4375 360.398438 642.265625 360.949219 643.09375 361.5 C 649.980469 365.355469 657.417969 363.425781 664.03125 361.773438 C 672.851562 359.84375 676.429688 352.40625 678.910156 344.140625 C 676.429688 341.386719 673.953125 340.558594 671.195312 340.28125 Z M 671.195312 340.007812 " fill-opacity="1" fill-rule="nonzero"/><path fill="#fc7c2c" d="M 259.824219 46.015625 C 249.355469 42.984375 240.539062 37.746094 235.855469 27.277344 C 234.203125 23.695312 231.996094 20.941406 227.3125 18.734375 C 225.109375 24.796875 223.730469 30.03125 224.007812 36.09375 C 224.007812 43.535156 221.527344 49.042969 214.085938 52.351562 C 209.402344 54.554688 203.894531 55.933594 200.585938 60.617188 C 198.65625 63.648438 198.382812 64.75 201.6875 66.128906 C 205.269531 67.78125 208.851562 69.160156 212.710938 69.984375 C 216.015625 70.8125 217.945312 74.117188 220.699219 75.21875 C 228.140625 78.527344 232.824219 84.039062 235.578125 91.476562 C 236.40625 93.679688 237.507812 96.160156 238.335938 98.363281 C 238.886719 99.742188 239.988281 100.570312 241.640625 100.570312 C 245.222656 100.292969 244.394531 96.710938 244.671875 94.230469 C 245.5 82.382812 251.558594 66.128906 262.582031 60.339844 C 266.988281 58.414062 269.46875 55.105469 271.398438 50.699219 C 268.09375 47.117188 263.40625 47.390625 259.273438 46.015625 Z M 259.824219 46.015625 " fill-opacity="1" fill-rule="nonzero"/><path fill="#fc7c2c" d="M 318.789062 100.019531 C 295.09375 97.8125 303.910156 78.25 291.511719 75.496094 C 289.308594 76.875 289.03125 79.078125 289.03125 81.28125 C 289.03125 84.3125 288.480469 87.621094 289.03125 90.648438 C 289.859375 99.46875 279.941406 104.703125 273.601562 109.109375 C 269.746094 110.765625 271.675781 116.550781 275.53125 116.824219 C 282.417969 116.550781 289.582031 118.203125 292.890625 125.09375 C 294.542969 128.398438 296.746094 131.429688 298.675781 134.460938 C 300.328125 137.214844 302.535156 138.867188 305.566406 138.042969 C 306.667969 136.941406 306.941406 135.5625 306.667969 134.460938 C 305.011719 123.164062 314.105469 115.449219 322.371094 109.660156 C 325.128906 107.734375 326.503906 105.527344 325.953125 102.222656 C 324.023438 100.570312 321.820312 100.292969 319.066406 100.019531 Z M 318.789062 100.019531 " fill-opacity="1" fill-rule="nonzero"/><path fill="#ffffff" d="M 1315.941406 325.402344 C 1298.308594 325.402344 1281.5 323.75 1264.144531 324.851562 C 1250.917969 324.851562 1237.140625 318.792969 1224.191406 322.925781 C 1222.8125 322.925781 1221.710938 322.097656 1219.78125 319.34375 C 1213.71875 310.800781 1209.863281 300.605469 1208.210938 287.933594 C 1205.179688 264.785156 1201.046875 239.4375 1199.390625 214.914062 C 1207.660156 232.824219 1207.105469 259.277344 1211.242188 279.941406 C 1212.34375 280.769531 1213.996094 279.941406 1213.996094 278.5625 C 1213.996094 272.5 1215.375 266.164062 1212.894531 260.101562 C 1212.894531 251.835938 1211.792969 244.121094 1209.585938 236.132812 C 1207.660156 226.488281 1209.585938 216.84375 1209.3125 207.199219 C 1208.210938 194.800781 1208.484375 182.402344 1209.863281 170.003906 C 1210.6875 157.054688 1212.34375 143 1215.925781 130.328125 C 1214.546875 127.019531 1210.6875 127.570312 1208.484375 125.367188 C 1225.84375 108.835938 1259.457031 112.140625 1282.328125 111.589844 C 1296.65625 111.039062 1310.984375 110.765625 1325.035156 109.109375 C 1332.476562 108.007812 1340.464844 107.457031 1347.90625 109.109375 C 1356.996094 108.007812 1366.917969 108.285156 1376.007812 109.109375 C 1386.480469 108.835938 1394.46875 113.242188 1400.53125 121.234375 C 1406.042969 128.398438 1411.550781 134.460938 1410.175781 144.378906 C 1409.898438 147.132812 1409.898438 150.164062 1411 153.195312 C 1412.378906 156.503906 1411.550781 160.085938 1412.65625 163.390625 C 1413.757812 166.699219 1416.238281 169.175781 1416.789062 172.757812 C 1418.441406 184.882812 1418.164062 196.179688 1418.164062 207.476562 C 1418.164062 228.417969 1418.164062 250.460938 1417.0625 271.675781 C 1417.0625 273.328125 1417.0625 274.980469 1415.960938 276.636719 L 1411.550781 238.886719 C 1410.726562 239.4375 1408.523438 239.714844 1408.796875 240.816406 C 1409.347656 246.601562 1407.695312 252.386719 1408.246094 258.449219 C 1408.796875 264.234375 1407.695312 270.023438 1410.175781 275.53125 C 1410.449219 276.359375 1409.898438 277.738281 1409.347656 278.839844 C 1408.796875 280.214844 1407.972656 281.59375 1408.796875 283.523438 C 1409.625 285.175781 1409.347656 286.554688 1408.246094 288.757812 C 1407.96875 289.308594 1406.59375 291.789062 1407.417969 293.167969 C 1409.347656 296.472656 1407.417969 298.675781 1405.214844 300.882812 C 1401.910156 304.464844 1398.601562 310.523438 1393.917969 311.351562 C 1375.183594 317.964844 1352.863281 312.453125 1333.851562 316.585938 C 1333.027344 316.585938 1331.921875 316.3125 1330.820312 316.3125 C 1328.066406 316.3125 1325.585938 316.3125 1322.554688 317.414062 L 1323.933594 318.242188 C 1326.414062 320.167969 1329.167969 319.34375 1331.648438 318.242188 C 1333.027344 320.71875 1335.503906 320.445312 1337.710938 320.445312 C 1345.976562 321.269531 1354.242188 320.445312 1361.957031 322.648438 C 1360.578125 324.300781 1358.648438 324.300781 1356.722656 324.300781 C 1342.667969 324.300781 1328.617188 325.128906 1314.289062 325.128906 Z M 1215.097656 302.257812 C 1214.824219 310.25 1218.128906 311.078125 1224.464844 310.25 C 1222.539062 306.667969 1218.679688 305.289062 1216.476562 301.984375 C 1216.476562 301.984375 1214.824219 299.226562 1214.824219 299.226562 L 1214.824219 302.257812 Z M 1237.140625 127.019531 C 1232.730469 127.570312 1223.363281 126.746094 1220.609375 129.777344 C 1219.78125 131.152344 1220.058594 133.359375 1221.160156 136.113281 C 1225.292969 147.410156 1226.121094 155.675781 1227.222656 166.421875 C 1228.324219 178.546875 1231.078125 193.699219 1230.804688 204.996094 C 1230.253906 222.628906 1227.496094 239.988281 1229.148438 257.347656 C 1228.597656 267.265625 1229.976562 276.910156 1231.078125 286.554688 C 1231.355469 288.757812 1231.90625 291.789062 1234.109375 293.167969 C 1235.488281 293.992188 1235.210938 294.269531 1234.660156 295.648438 C 1234.109375 296.472656 1233.835938 297.574219 1234.109375 298.675781 C 1237.691406 299.503906 1242.375 299.503906 1245.957031 299.226562 C 1260.011719 297.851562 1278.46875 298.125 1293.625 298.675781 C 1308.777344 299.226562 1324.484375 299.226562 1338.8125 298.675781 C 1345.148438 298.402344 1350.933594 296.199219 1357.273438 296.75 C 1364.4375 297.023438 1371.601562 297.574219 1378.765625 297.851562 C 1381.519531 297.851562 1385.652344 297.300781 1388.40625 293.167969 C 1389.234375 291.789062 1390.613281 290.6875 1391.714844 289.308594 C 1395.570312 283.523438 1396.949219 277.1875 1395.570312 271.125 C 1395.019531 268.367188 1394.195312 265.890625 1395.019531 263.132812 C 1395.847656 260.101562 1395.019531 257.070312 1394.195312 254.042969 C 1394.195312 253.214844 1393.644531 252.386719 1394.195312 251.5625 C 1395.570312 246.878906 1395.570312 242.191406 1395.296875 237.785156 C 1394.746094 225.9375 1395.847656 214.363281 1394.195312 202.515625 C 1393.09375 194.527344 1394.195312 186.535156 1392.816406 178.546875 C 1391.4375 168.074219 1392.539062 157.605469 1389.785156 147.132812 C 1386.753906 136.941406 1382.621094 123.164062 1371.875 123.164062 C 1359.203125 123.714844 1346.527344 122.886719 1333.851562 124.265625 C 1313.464844 126.195312 1293.074219 126.46875 1272.683594 128.121094 C 1263.589844 128.949219 1254.222656 129.226562 1244.855469 129.5 C 1244.027344 129.5 1243.476562 129.5 1242.925781 128.949219 C 1241.273438 127.296875 1239.621094 127.019531 1238.242188 127.019531 Z M 1237.140625 127.019531 " fill-opacity="1" fill-rule="nonzero"/><path fill="#ffffff" d="M 165.59375 341.9375 C 148.511719 339.179688 130.050781 336.699219 114.070312 332.566406 C 102.773438 329.8125 91.199219 326.230469 81.832031 317.414062 C 79.078125 314.933594 75.496094 313.28125 73.015625 310.523438 C 58.410156 293.992188 50.144531 283.523438 44.085938 264.234375 C 38.574219 242.191406 42.707031 220.703125 42.429688 198.382812 C 42.429688 181.023438 59.238281 151.542969 73.839844 143.828125 C 65.851562 155.953125 56.207031 168.625 54.277344 183.503906 C 54.277344 183.503906 54.277344 183.503906 54.554688 183.503906 C 55.105469 183.503906 55.382812 183.503906 55.65625 183.503906 C 57.308594 183.503906 57.859375 182.128906 58.410156 181.574219 C 64.199219 171.382812 72.1875 162.289062 79.351562 153.472656 C 86.242188 144.105469 94.507812 136.664062 104.703125 130.328125 C 116.824219 122.0625 131.429688 117.929688 147.132812 117.929688 C 155.949219 120.40625 164.765625 119.304688 173.308594 120.957031 C 179.09375 122.335938 185.15625 121.511719 190.667969 123.4375 C 194.800781 125.09375 198.105469 127.570312 202.515625 128.949219 C 204.167969 130.050781 206.648438 130.050781 208.578125 128.949219 C 203.066406 122.613281 195.351562 119.304688 188.1875 114.898438 C 217.394531 122.886719 241.089844 149.339844 253.214844 176.617188 C 257.347656 184.882812 263.132812 192.597656 263.683594 201.964844 C 263.683594 203.617188 264.234375 204.996094 264.785156 205.824219 C 270.296875 214.640625 269.746094 224.007812 268.917969 233.925781 C 268.644531 241.917969 267.265625 249.90625 265.886719 257.898438 C 264.511719 288.484375 233.652344 315.210938 211.882812 327.332031 C 197.28125 336.148438 180.75 339.179688 165.871094 341.386719 Z M 147.410156 132.808594 C 139.695312 134.183594 133.90625 137.492188 127.570312 140.523438 C 122.886719 143.550781 117.101562 142.175781 112.691406 146.308594 C 107.730469 151.265625 102.773438 156.503906 96.988281 160.910156 C 90.648438 165.871094 87.066406 173.035156 81.28125 178.546875 C 73.015625 186.535156 68.054688 198.933594 62.542969 209.40625 C 58.136719 219.324219 55.65625 229.519531 55.105469 239.714844 C 55.105469 241.640625 55.105469 243.847656 56.207031 245.5 C 57.585938 247.152344 57.308594 249.355469 57.308594 251.5625 C 57.585938 257.347656 58.960938 262.582031 61.167969 266.164062 C 66.402344 274.429688 70.8125 283.246094 77.699219 290.6875 C 82.382812 296.199219 86.792969 301.433594 93.957031 304.1875 C 101.394531 307.21875 108.28125 311.628906 116.273438 313.832031 C 128.398438 316.585938 138.589844 322.648438 150.992188 322.925781 C 163.113281 322.925781 174.960938 318.792969 186.535156 313.832031 C 198.382812 309.699219 209.128906 303.085938 217.394531 293.441406 C 231.171875 281.042969 241.089844 265.613281 244.671875 247.429688 C 247.425781 233.652344 246.875 213.8125 240.8125 199.484375 C 236.679688 187.363281 228.691406 177.992188 223.457031 166.144531 C 220.148438 158.15625 209.953125 157.605469 203.894531 152.371094 C 192.871094 145.207031 176.339844 144.929688 163.664062 144.929688 C 160.082031 144.929688 155.675781 144.929688 152.917969 143.828125 C 146.308594 141.898438 146.582031 139.96875 148.234375 133.082031 L 147.132812 133.082031 Z M 258.722656 263.683594 C 251.558594 273.328125 247.152344 284.351562 238.886719 293.167969 C 237.785156 294.542969 238.886719 295.921875 240.261719 297.023438 C 251.285156 288.757812 255.691406 276.359375 260.101562 264.511719 Z M 258.722656 263.683594 " fill-opacity="1" fill-rule="nonzero"/><path fill="#ffffff" d="M 734.84375 355.710938 C 728.507812 354.335938 722.445312 351.855469 717.484375 347.445312 C 710.875 341.9375 703.984375 336.148438 696.820312 331.191406 C 688.832031 326.507812 681.667969 314.105469 673.953125 306.390625 C 661.554688 293.71875 648.328125 281.320312 635.652344 269.472656 C 627.386719 261.757812 618.570312 253.488281 610.304688 245.5 C 607.824219 243.296875 605.621094 240.816406 604.242188 237.234375 C 608.652344 239.714844 611.679688 242.746094 615.8125 245.5 C 615.8125 239.988281 614.710938 237.785156 609.203125 230.621094 C 606.445312 226.761719 602.039062 224.558594 599.558594 220.976562 C 599.558594 220.152344 601.488281 219.875 602.3125 219.324219 C 600.382812 215.191406 602.3125 211.882812 605.621094 208.578125 C 613.058594 201.414062 621.050781 191.769531 629.039062 182.402344 C 631.246094 180.472656 633.722656 176.339844 634.550781 172.757812 C 625.183594 179.921875 616.089844 188.1875 604.515625 190.117188 C 622.425781 175.515625 638.132812 158.980469 655.765625 144.378906 C 670.371094 132.253906 685.25 120.132812 699.851562 108.007812 C 705.085938 103.601562 711.148438 101.121094 715.28125 95.058594 C 716.109375 93.679688 717.484375 93.128906 719.140625 93.128906 C 726.855469 95.058594 734.292969 98.640625 741.734375 101.394531 C 747.242188 103.875 751.652344 108.007812 755.785156 112.140625 C 790.503906 145.480469 827.148438 176.617188 858.558594 213.8125 C 852.496094 211.058594 849.191406 204.996094 843.128906 201.691406 C 845.882812 208.027344 849.464844 213.8125 854.148438 217.671875 C 860.488281 223.457031 860.488281 225.109375 854.425781 231.722656 C 852.496094 233.652344 851.945312 236.957031 850.015625 238.886719 C 846.433594 241.089844 844.507812 244.671875 842.578125 247.703125 C 839.269531 253.765625 834.585938 258.726562 830.453125 263.683594 C 824.117188 272.226562 817.503906 280.492188 810.066406 287.933594 C 801.523438 296.199219 795.460938 306.390625 785.542969 313.554688 C 781.410156 317.964844 778.929688 322.097656 772.59375 325.679688 C 768.183594 328.160156 766.253906 333.117188 762.121094 336.148438 C 758.265625 338.628906 755.234375 342.210938 751.652344 344.96875 C 748.898438 346.894531 745.589844 348.273438 742.285156 349.652344 C 739.253906 351.027344 735.671875 350.476562 735.394531 355.710938 C 735.394531 355.988281 734.84375 356.265625 734.019531 356.265625 Z M 723.824219 109.660156 C 717.484375 115.722656 710.320312 120.957031 704.261719 127.847656 C 703.160156 129.226562 701.78125 130.601562 699.851562 131.429688 C 690.207031 136.113281 682.492188 143 676.984375 152.09375 C 676.429688 152.921875 675.605469 153.746094 674.503906 154.296875 C 670.09375 155.953125 668.714844 161.460938 664.859375 163.941406 C 657.144531 169.453125 655.214844 179.371094 647.5 184.605469 C 646.398438 185.433594 645.847656 186.535156 645.296875 187.636719 C 644.46875 189.566406 643.09375 191.496094 641.4375 193.148438 C 634.273438 200.585938 628.214844 206.925781 622.703125 212.988281 C 619.121094 217.121094 615.539062 220.703125 609.753906 221.804688 C 617.742188 227.039062 623.804688 234.203125 630.417969 240.539062 C 648.050781 257.347656 666.238281 273.054688 684.421875 289.585938 C 692.6875 298.402344 699.851562 308.597656 710.320312 315.484375 C 710.875 316.035156 711.425781 316.863281 711.976562 317.6875 C 718.589844 328.160156 728.78125 332.566406 737.046875 335.597656 C 751.375 316.863281 770.113281 301.433594 786.09375 284.902344 C 799.042969 270.847656 815.300781 260.378906 826.597656 244.671875 C 829.628906 240.816406 833.484375 237.234375 834.035156 232.273438 C 834.585938 226.761719 835.964844 220.976562 841.199219 216.570312 C 836.792969 213.261719 834.3125 208.855469 830.730469 204.996094 C 821.636719 194.527344 811.71875 184.054688 801.800781 174.414062 C 790.777344 163.117188 780.308594 149.890625 767.355469 140.523438 C 752.753906 130.328125 738.976562 119.582031 724.375 109.386719 L 723.824219 109.9375 Z M 640.613281 167.25 C 638.683594 167.25 638.40625 169.453125 638.683594 170.832031 C 638.683594 170.832031 639.511719 170.832031 639.785156 170.832031 C 642.265625 171.382812 643.917969 167.523438 640.613281 167.25 Z M 640.613281 167.25 " fill-opacity="1" fill-rule="nonzero"/><path fill="#ffffff" d="M 536.460938 188.464844 C 532.050781 184.882812 527.367188 183.230469 521.308594 182.679688 C 517.726562 193.425781 519.652344 203.617188 518.277344 214.640625 C 517.449219 225.386719 516.621094 236.132812 516.621094 246.878906 C 516.621094 250.460938 517.449219 253.765625 519.101562 256.796875 C 522.132812 257.625 524.0625 255.695312 525.992188 254.316406 C 531.226562 250.460938 535.632812 245.773438 539.492188 240.539062 C 543.625 234.753906 548.308594 229.519531 553.269531 224.558594 C 556.574219 221.527344 559.328125 217.945312 560.707031 213.261719 C 552.992188 204.445312 545.277344 195.902344 536.183594 188.464844 Z M 536.460938 188.464844 " fill-opacity="1" fill-rule="nonzero"/><path fill="#ffffff" d="M 1165.503906 211.609375 C 1153.101562 208.027344 1140.980469 203.894531 1130.234375 196.453125 C 1126.101562 194.25 1118.660156 191.769531 1117.007812 198.109375 C 1113.425781 206.097656 1117.007812 214.914062 1117.007812 223.179688 C 1117.007812 233.925781 1115.355469 244.121094 1117.835938 254.867188 C 1122.519531 254.59375 1125.824219 251.835938 1129.132812 249.632812 C 1142.632812 240.816406 1153.929688 228.96875 1166.605469 219.046875 C 1170.738281 215.742188 1169.910156 213.261719 1165.226562 211.609375 Z M 1165.503906 211.609375 " fill-opacity="1" fill-rule="nonzero"/><path fill="#ffffff" d="M 337.25 210.507812 C 332.292969 211.609375 297.851562 213.539062 303.910156 222.355469 C 306.941406 226.488281 310.25 230.070312 315.207031 231.722656 C 323.199219 234.203125 331.464844 234.203125 339.457031 235.03125 C 348.824219 235.855469 352.957031 225.109375 358.191406 219.324219 C 355.160156 210.230469 344.964844 209.957031 337.25 210.507812 Z M 337.25 210.507812 " fill-opacity="1" fill-rule="nonzero"/><path fill="#ffffff" d="M 1029.664062 219.597656 C 1025.257812 216.019531 1020.296875 214.363281 1014.785156 213.8125 C 1003.765625 212.710938 993.019531 212.988281 981.996094 214.640625 C 979.242188 214.914062 976.761719 215.742188 974.558594 218.222656 C 979.792969 227.316406 985.855469 231.449219 995.222656 232 C 1006.796875 232 1019.46875 235.582031 1030.214844 230.070312 C 1036.277344 226.761719 1032.695312 222.90625 1029.390625 219.324219 Z M 1029.664062 219.597656 " fill-opacity="1" fill-rule="nonzero"/><path fill="#ffffff" d="M 426.523438 216.570312 C 415.503906 208.300781 402.828125 208.027344 389.878906 210.507812 C 387.398438 211.058594 385.746094 212.710938 385.46875 214.914062 C 384.367188 224.558594 386.847656 232.273438 399.519531 231.171875 C 408.890625 230.070312 418.53125 230.070312 427.625 227.316406 C 429.828125 226.761719 432.035156 225.9375 432.585938 223.179688 C 431.757812 220.152344 429.003906 218.222656 426.523438 216.570312 Z M 426.523438 216.570312 " fill-opacity="1" fill-rule="nonzero"/><path fill="#ffffff" d="M 1090.28125 218.222656 C 1085.320312 217.671875 1042.613281 209.128906 1051.707031 221.804688 C 1055.011719 226.488281 1058.042969 232.824219 1064.65625 232.550781 C 1077.054688 232 1091.382812 239.988281 1100.75 228.140625 C 1099.925781 222.628906 1096.34375 219.046875 1090.28125 218.222656 Z M 1090.28125 218.222656 " fill-opacity="1" fill-rule="nonzero"/><path fill="#ffffff" d="M 466.476562 214.089844 C 462.066406 214.089844 459.585938 217.121094 457.933594 220.976562 C 455.730469 227.039062 457.933594 231.171875 464.546875 230.621094 C 478.875 229.792969 495.683594 230.070312 505.050781 217.121094 C 494.027344 207.75 479.148438 214.640625 466.476562 214.089844 Z M 466.476562 214.089844 " fill-opacity="1" fill-rule="nonzero"/><path fill="#ffffff" d="M 936.257812 215.191406 C 928.542969 216.292969 920.828125 217.671875 913.113281 219.875 C 909.808594 220.976562 906.5 222.078125 904.847656 225.660156 C 914.214844 233.652344 947.554688 233.101562 956.648438 224.285156 C 951.136719 217.945312 944.523438 214.089844 936.257812 215.191406 Z M 936.257812 215.191406 " fill-opacity="1" fill-rule="nonzero"/><path fill="#ffffff" d="M 1358.652344 264.785156 C 1342.667969 262.308594 1327.789062 268.917969 1311.808594 265.613281 C 1311.257812 257.625 1312.359375 249.90625 1311.535156 242.191406 C 1311.535156 240.816406 1312.359375 239.988281 1313.1875 239.164062 C 1323.933594 231.449219 1331.648438 220.703125 1340.464844 211.058594 C 1348.457031 202.515625 1369.949219 170.832031 1351.488281 164.769531 C 1330.546875 157.878906 1315.390625 182.679688 1309.332031 199.484375 C 1308.777344 200.863281 1309.332031 203.066406 1306.574219 203.066406 C 1303.269531 190.394531 1298.585938 176.890625 1284.257812 173.035156 C 1275.164062 170.554688 1263.867188 168.074219 1257.253906 176.890625 C 1245.132812 190.667969 1246.785156 203.066406 1260.011719 215.191406 C 1270.753906 226.488281 1281.777344 237.234375 1297.480469 240.816406 C 1300.789062 241.640625 1301.617188 243.570312 1301.617188 246.601562 C 1301.339844 251.285156 1300.789062 255.96875 1300.511719 260.652344 C 1300.511719 269.472656 1288.664062 271.398438 1281.5 271.125 C 1277.644531 270.574219 1273.511719 271.125 1269.652344 271.675781 C 1267.171875 271.949219 1264.695312 272.5 1263.039062 274.980469 C 1264.96875 278.5625 1267.726562 279.390625 1271.308594 279.113281 C 1277.367188 278.289062 1283.707031 278.289062 1290.042969 278.289062 C 1302.441406 276.910156 1314.015625 271.675781 1326.964844 274.15625 C 1338.8125 273.605469 1350.382812 271.675781 1362.234375 271.949219 C 1363.886719 271.949219 1365.539062 271.949219 1366.367188 269.472656 C 1364.988281 266.441406 1362.234375 265.0625 1358.652344 264.785156 Z M 1302.992188 223.734375 C 1296.65625 217.121094 1290.871094 209.679688 1282.878906 204.722656 C 1288.113281 213.8125 1296.929688 220.703125 1301.339844 230.894531 C 1295.277344 231.722656 1290.871094 228.96875 1287.011719 226.210938 C 1281.5 222.628906 1276.265625 218.773438 1271.03125 214.914062 C 1263.867188 209.40625 1255.324219 201.964844 1253.949219 192.320312 C 1252.847656 185.15625 1256.152344 179.921875 1263.039062 179.921875 C 1273.511719 179.921875 1284.257812 181.300781 1292.246094 189.015625 C 1299.6875 196.730469 1302.992188 207.476562 1304.371094 217.671875 C 1304.644531 219.597656 1305.195312 221.804688 1302.992188 223.734375 Z M 1305.75 265.890625 C 1303.820312 259 1305.75 252.386719 1306.851562 245.5 C 1308.503906 252.9375 1308.503906 261.757812 1305.75 265.890625 Z M 1309.605469 221.804688 C 1314.566406 204.996094 1315.390625 174.414062 1338.261719 173.859375 C 1342.394531 173.859375 1346.800781 173.859375 1349.007812 177.992188 C 1351.488281 182.402344 1352.589844 187.363281 1349.007812 192.046875 C 1345.699219 196.453125 1342.117188 200.863281 1338.535156 205.273438 C 1333.027344 211.882812 1327.515625 218.222656 1321.730469 224.558594 C 1319.523438 227.316406 1317.046875 229.792969 1312.085938 231.449219 C 1316.492188 221.253906 1323.382812 213.8125 1325.863281 203.894531 C 1319.800781 205.824219 1319.523438 206.097656 1309.882812 223.734375 C 1308.503906 223.734375 1308.777344 222.628906 1309.054688 221.804688 Z M 1309.605469 221.804688 " fill-opacity="1" fill-rule="nonzero"/><path fill="#ffffff" d="M 209.402344 178.546875 C 205.269531 176.066406 200.585938 176.066406 196.179688 176.890625 C 183.226562 179.648438 170.003906 181.300781 157.605469 185.984375 C 145.480469 191.21875 134.457031 197.832031 123.988281 205.824219 C 107.457031 219.875 101.945312 242.46875 93.128906 261.757812 C 83.761719 282.144531 98.640625 294.820312 118.203125 284.074219 C 153.195312 267.816406 189.289062 249.90625 206.925781 213.261719 C 210.78125 205.546875 212.984375 197.558594 214.914062 189.289062 C 215.742188 184.605469 213.535156 181.023438 209.402344 178.546875 Z M 200.585938 194.800781 C 200.3125 235.03125 167.523438 255.417969 134.183594 269.195312 C 129.5 271.398438 125.367188 274.707031 120.683594 276.636719 C 112.691406 279.941406 99.464844 279.941406 99.464844 268.367188 C 99.464844 264.511719 100.292969 260.929688 101.671875 257.625 C 107.179688 245.5 112.140625 233.375 118.476562 221.527344 C 130.875 199.484375 155.398438 187.363281 179.921875 186.8125 C 187.085938 186.535156 201.414062 183.230469 200.585938 194.527344 Z M 200.585938 194.800781 " fill-opacity="1" fill-rule="nonzero"/><path fill="#ffffff" d="M 747.792969 199.484375 C 742.558594 189.84375 740.90625 179.097656 736.773438 169.175781 C 735.394531 165.320312 732.914062 162.289062 730.4375 159.257812 C 728.230469 156.777344 726.578125 156.777344 724.375 159.257812 C 715.558594 177.71875 708.394531 197.28125 703.160156 217.121094 C 701.230469 224.835938 699.300781 232.273438 699.578125 240.816406 C 696.269531 256.796875 717.210938 271.675781 730.988281 275.257812 C 736.773438 276.910156 741.734375 274.15625 746.96875 272.226562 C 750 270.847656 750.824219 268.09375 752.476562 265.890625 C 767.082031 244.949219 757.714844 219.875 747.792969 198.933594 Z M 748.621094 238.886719 C 747.242188 255.695312 730.710938 271.398438 714.179688 260.929688 C 712.25 259.550781 711.425781 257.625 711.148438 255.144531 C 709.496094 227.589844 721.617188 201.964844 729.332031 175.515625 C 730.160156 176.339844 730.710938 176.617188 730.710938 176.890625 C 735.671875 197.832031 750.273438 216.570312 748.34375 238.886719 Z M 748.621094 238.886719 " fill-opacity="1" fill-rule="nonzero"/><path fill="#ffffff" d="M 133.082031 217.945312 C 134.183594 219.597656 136.9375 218.222656 138.039062 220.425781 C 135.835938 225.109375 129.773438 227.039062 127.847656 232.550781 C 136.9375 236.957031 142.726562 226.488281 148.785156 221.527344 C 160.082031 209.679688 174.136719 205.273438 189.015625 198.382812 C 176.890625 194.527344 142.726562 207.199219 133.082031 217.945312 Z M 133.082031 217.945312 " fill-opacity="1" fill-rule="nonzero"/><path fill="#ffffff" d="M 121.234375 262.03125 C 138.867188 262.582031 178.269531 234.476562 178.269531 220.976562 C 162.5625 239.988281 142.726562 251.5625 121.234375 262.03125 Z M 121.234375 262.03125 " fill-opacity="1" fill-rule="nonzero"/></svg>